<svg width="1120" height="710" viewBox="0 0 1120 710" fill="none" xmlns="http://www.w3.org/2000/svg"><rect x=".5" y=".5" width="1119" height="709" rx="19.5" fill="#fff"/><path d="M138.231 50.034v563.903m92.31-563.903v563.903m90.306-563.903v563.903m92.311-563.903v563.903m90.304-563.903v563.903m92.311-563.903v563.903m92.312-563.903v563.903m90.307-563.903v563.903m92.31-563.903v563.903m90.304-563.903v563.903m94.314-563.903v563.903m-916.087 1.003h915.087M139.233 502.561h915.087m-915.087-112.38h915.087M139.233 275.796h915.087m-915.087-112.38h915.087M139.233 49.03h915.087M139.233 614.94h915.087M138.231 50.034v563.903" stroke="#F0FBF7" stroke-width="2.007"/><path d="M121.735 647.502v1.489h-9.338v-1.303l4.674-5.203c.574-.641 1.019-1.183 1.332-1.627.32-.451.542-.852.667-1.205.13-.359.195-.725.195-1.098 0-.47-.098-.895-.293-1.273a2.21 2.21 0 00-.843-.922c-.373-.228-.823-.343-1.352-.343-.634 0-1.163.125-1.588.373a2.29 2.29 0 00-.94 1.019c-.209.438-.314.941-.314 1.509h-1.813c0-.804.177-1.538.529-2.205a3.906 3.906 0 011.568-1.587c.693-.399 1.545-.598 2.558-.598.901 0 1.672.16 2.312.48.64.314 1.13.758 1.47 1.333.346.568.519 1.234.519 1.999 0 .418-.072.842-.215 1.274a6.52 6.52 0 01-.578 1.273 9.901 9.901 0 01-.853 1.255c-.32.411-.663.816-1.029 1.215l-3.821 4.145h7.153zm10.896-6.781v2.175c0 1.169-.105 2.156-.314 2.959-.209.804-.509 1.451-.901 1.941a3.45 3.45 0 01-1.421 1.068c-.549.215-1.169.323-1.862.323a5.349 5.349 0 01-1.519-.206 3.621 3.621 0 01-1.254-.656 3.974 3.974 0 01-.94-1.196c-.262-.49-.461-1.084-.598-1.783-.137-.699-.206-1.516-.206-2.45v-2.175c0-1.169.105-2.149.314-2.94.215-.79.519-1.424.911-1.901a3.318 3.318 0 011.411-1.038 5.251 5.251 0 011.862-.314c.555 0 1.064.069 1.528.206a3.46 3.46 0 011.255.637c.365.287.676.673.93 1.156.262.477.461 1.062.598 1.754.137.692.206 1.506.206 2.44zm-1.823 2.469v-2.773c0-.64-.039-1.202-.117-1.685a5.282 5.282 0 00-.324-1.254 2.459 2.459 0 00-.548-.843 1.936 1.936 0 00-.755-.471 2.724 2.724 0 00-.95-.156c-.431 0-.814.081-1.147.245a2.05 2.05 0 00-.842.754c-.223.346-.392.8-.51 1.362s-.176 1.245-.176 2.048v2.773c0 .64.036 1.205.107 1.695.079.49.193.915.343 1.274.151.353.334.644.549.872.216.229.464.399.745.51.287.104.604.157.95.157.445 0 .833-.085 1.166-.255.333-.17.611-.435.833-.794.229-.366.399-.833.51-1.401.111-.575.166-1.261.166-2.058zm10.113-8.544v14.345h-1.813v-12.082l-3.655 1.333v-1.637l5.183-1.959h.285zm11.288 0v14.345h-1.813v-12.082l-3.655 1.333v-1.637l5.184-1.959h.284zm61.033 12.856v1.489h-9.339v-1.303l4.674-5.203c.575-.641 1.019-1.183 1.333-1.627.32-.451.542-.852.666-1.205a3.18 3.18 0 00.196-1.098c0-.47-.098-.895-.294-1.273a2.201 2.201 0 00-.842-.922c-.373-.228-.823-.343-1.353-.343-.633 0-1.162.125-1.587.373a2.292 2.292 0 00-.941 1.019c-.209.438-.313.941-.313 1.509h-1.813c0-.804.176-1.538.529-2.205a3.906 3.906 0 011.568-1.587c.692-.399 1.545-.598 2.557-.598.902 0 1.673.16 2.313.48.64.314 1.13.758 1.47 1.333.346.568.519 1.234.519 1.999 0 .418-.072.842-.215 1.274-.138.424-.33.849-.579 1.273a9.787 9.787 0 01-.852 1.255c-.32.411-.663.816-1.029 1.215l-3.821 4.145h7.153zm10.896-6.781v2.175c0 1.169-.105 2.156-.314 2.959-.209.804-.509 1.451-.901 1.941a3.45 3.45 0 01-1.421 1.068c-.549.215-1.169.323-1.862.323a5.344 5.344 0 01-1.519-.206 3.613 3.613 0 01-1.254-.656 3.992 3.992 0 01-.941-1.196c-.261-.49-.46-1.084-.597-1.783-.137-.699-.206-1.516-.206-2.45v-2.175c0-1.169.104-2.149.313-2.94.216-.79.52-1.424.912-1.901a3.318 3.318 0 011.411-1.038 5.251 5.251 0 011.862-.314c.555 0 1.064.069 1.528.206.47.131.889.343 1.254.637.366.287.676.673.931 1.156.262.477.461 1.062.598 1.754.137.692.206 1.506.206 2.44zm-1.823 2.469v-2.773c0-.64-.039-1.202-.117-1.685a5.282 5.282 0 00-.324-1.254 2.459 2.459 0 00-.548-.843 1.943 1.943 0 00-.755-.471 2.724 2.724 0 00-.95-.156c-.432 0-.814.081-1.147.245a2.059 2.059 0 00-.843.754c-.222.346-.392.8-.509 1.362-.118.562-.177 1.245-.177 2.048v2.773c0 .64.036 1.205.108 1.695.079.49.193.915.343 1.274.15.353.333.644.549.872.216.229.464.399.745.51.287.104.604.157.95.157.444 0 .833-.085 1.166-.255.333-.17.611-.435.833-.794.229-.366.399-.833.51-1.401.111-.575.166-1.261.166-2.058zm10.112-8.544v14.345h-1.812v-12.082l-3.655 1.333v-1.637l5.183-1.959h.284zm14.679 12.856v1.489h-9.338v-1.303l4.674-5.203c.575-.641 1.019-1.183 1.332-1.627.32-.451.543-.852.667-1.205.13-.359.196-.725.196-1.098 0-.47-.098-.895-.294-1.273a2.21 2.21 0 00-.843-.922c-.372-.228-.823-.343-1.352-.343-.634 0-1.163.125-1.588.373a2.29 2.29 0 00-.94 1.019c-.209.438-.314.941-.314 1.509h-1.813c0-.804.177-1.538.529-2.205a3.906 3.906 0 011.568-1.587c.693-.399 1.545-.598 2.558-.598.901 0 1.672.16 2.312.48.64.314 1.13.758 1.47 1.333.346.568.519 1.234.519 1.999 0 .418-.071.842-.215 1.274-.137.424-.33.849-.578 1.273a9.901 9.901 0 01-.853 1.255c-.32.411-.663.816-1.029 1.215l-3.821 4.145h7.153zm57.645 0v1.489h-9.338v-1.303l4.674-5.203c.575-.641 1.019-1.183 1.333-1.627.32-.451.542-.852.666-1.205a3.18 3.18 0 00.196-1.098c0-.47-.098-.895-.294-1.273a2.197 2.197 0 00-.843-.922c-.372-.228-.823-.343-1.352-.343-.633 0-1.163.125-1.587.373a2.292 2.292 0 00-.941 1.019c-.209.438-.313.941-.313 1.509h-1.813c0-.804.176-1.538.529-2.205a3.9 3.9 0 011.568-1.587c.692-.399 1.545-.598 2.557-.598.902 0 1.673.16 2.313.48.64.314 1.13.758 1.47 1.333.346.568.519 1.234.519 1.999 0 .418-.072.842-.216 1.274-.137.424-.33.849-.578 1.273a9.998 9.998 0 01-.852 1.255c-.32.411-.663.816-1.029 1.215l-3.822 4.145h7.153zm10.896-6.781v2.175c0 1.169-.104 2.156-.313 2.959-.209.804-.51 1.451-.902 1.941a3.44 3.44 0 01-1.42 1.068c-.549.215-1.17.323-1.862.323a5.344 5.344 0 01-1.519-.206 3.604 3.604 0 01-1.254-.656 3.976 3.976 0 01-.941-1.196c-.261-.49-.46-1.084-.598-1.783-.137-.699-.205-1.516-.205-2.45v-2.175c0-1.169.104-2.149.313-2.94.216-.79.52-1.424.912-1.901a3.312 3.312 0 011.411-1.038 5.246 5.246 0 011.861-.314 5.38 5.38 0 011.529.206c.47.131.888.343 1.254.637.366.287.676.673.931 1.156.261.477.461 1.062.598 1.754.137.692.205 1.506.205 2.44zm-1.822 2.469v-2.773c0-.64-.039-1.202-.118-1.685a5.285 5.285 0 00-.323-1.254 2.475 2.475 0 00-.549-.843 1.932 1.932 0 00-.754-.471 2.726 2.726 0 00-.951-.156c-.431 0-.813.081-1.146.245a2.059 2.059 0 00-.843.754c-.222.346-.392.8-.509 1.362-.118.562-.177 1.245-.177 2.048v2.773c0 .64.036 1.205.108 1.695a5.6 5.6 0 00.343 1.274c.15.353.333.644.549.872.215.229.464.399.744.51.288.104.605.157.951.157.444 0 .833-.085 1.166-.255.333-.17.611-.435.833-.794.228-.366.398-.833.509-1.401.111-.575.167-1.261.167-2.058zm10.112-8.544v14.345h-1.813v-12.082l-3.654 1.333v-1.637l5.183-1.959h.284zm7.976 6.32h1.294c.633 0 1.156-.105 1.568-.314.418-.215.728-.506.93-.872.209-.372.314-.79.314-1.254 0-.549-.091-1.009-.274-1.382a1.839 1.839 0 00-.823-.842c-.366-.19-.83-.285-1.392-.285-.509 0-.96.102-1.352.304a2.219 2.219 0 00-.911.843c-.216.366-.324.797-.324 1.293h-1.812c0-.725.182-1.385.548-1.979a3.954 3.954 0 011.539-1.421c.666-.353 1.437-.529 2.312-.529.862 0 1.617.154 2.264.461.646.3 1.149.751 1.509 1.352.359.594.539 1.336.539 2.224 0 .359-.085.745-.255 1.156a3.446 3.446 0 01-.774 1.137c-.347.353-.797.643-1.353.872-.555.222-1.221.333-1.998.333h-1.549v-1.097zm0 1.489v-1.087h1.549c.908 0 1.659.107 2.253.323.595.216 1.062.503 1.401.862.347.36.588.755.726 1.186.143.424.215.849.215 1.274 0 .666-.114 1.257-.343 1.773a3.617 3.617 0 01-.95 1.313c-.405.36-.882.631-1.431.814a5.664 5.664 0 01-1.793.274 5.68 5.68 0 01-1.754-.265 4.536 4.536 0 01-1.44-.764 3.566 3.566 0 01-.98-1.244c-.235-.497-.353-1.062-.353-1.696h1.813c0 .497.107.931.323 1.304.222.372.536.663.941.872.411.202.895.304 1.45.304.555 0 1.032-.095 1.431-.285.405-.196.715-.49.93-.882.223-.391.334-.885.334-1.479 0-.595-.125-1.081-.373-1.46a2.182 2.182 0 00-1.058-.853c-.451-.189-.983-.284-1.597-.284h-1.294zm64.348 5.047v1.489h-9.338v-1.303l4.674-5.203c.575-.641 1.019-1.183 1.332-1.627.32-.451.543-.852.667-1.205.13-.359.196-.725.196-1.098 0-.47-.098-.895-.294-1.273a2.21 2.21 0 00-.843-.922c-.372-.228-.823-.343-1.352-.343-.634 0-1.163.125-1.588.373a2.29 2.29 0 00-.94 1.019c-.209.438-.314.941-.314 1.509h-1.813c0-.804.177-1.538.529-2.205a3.906 3.906 0 011.568-1.587c.693-.399 1.545-.598 2.558-.598.901 0 1.672.16 2.312.48.64.314 1.13.758 1.47 1.333.346.568.519 1.234.519 1.999 0 .418-.071.842-.215 1.274-.137.424-.33.849-.578 1.273a9.901 9.901 0 01-.853 1.255c-.32.411-.663.816-1.029 1.215l-3.821 4.145h7.153zm10.896-6.781v2.175c0 1.169-.104 2.156-.314 2.959-.209.804-.509 1.451-.901 1.941a3.45 3.45 0 01-1.421 1.068c-.549.215-1.169.323-1.862.323a5.337 5.337 0 01-1.518-.206 3.617 3.617 0 01-1.255-.656 3.99 3.99 0 01-.94-1.196c-.262-.49-.461-1.084-.598-1.783-.137-.699-.206-1.516-.206-2.45v-2.175c0-1.169.105-2.149.314-2.94.215-.79.519-1.424.911-1.901a3.318 3.318 0 011.411-1.038 5.251 5.251 0 011.862-.314c.555 0 1.065.069 1.528.206a3.46 3.46 0 011.255.637c.365.287.676.673.931 1.156.261.477.46 1.062.597 1.754.137.692.206 1.506.206 2.44zm-1.823 2.469v-2.773c0-.64-.039-1.202-.117-1.685a5.333 5.333 0 00-.323-1.254 2.475 2.475 0 00-.549-.843 1.936 1.936 0 00-.755-.471 2.72 2.72 0 00-.95-.156c-.431 0-.813.081-1.147.245a2.05 2.05 0 00-.842.754c-.222.346-.392.8-.51 1.362-.117.562-.176 1.245-.176 2.048v2.773c0 .64.036 1.205.108 1.695.078.49.192.915.343 1.274.15.353.333.644.548.872.216.229.464.399.745.51.287.104.604.157.95.157.445 0 .833-.085 1.166-.255a2.1 2.1 0 00.833-.794c.229-.366.399-.833.51-1.401.111-.575.166-1.261.166-2.058zm10.113-8.544v14.345h-1.813v-12.082l-3.655 1.333v-1.637l5.184-1.959h.284zm14.972 9.544v1.489h-10.308v-1.068l6.389-9.887h1.479l-1.587 2.861-4.223 6.605h8.25zm-1.989-9.466v14.267h-1.813v-14.267h1.813zm59.34 12.778v1.489h-9.338v-1.303l4.674-5.203c.575-.641 1.019-1.183 1.333-1.627.32-.451.542-.852.666-1.205a3.18 3.18 0 00.196-1.098c0-.47-.098-.895-.294-1.273a2.197 2.197 0 00-.843-.922c-.372-.228-.823-.343-1.352-.343-.633 0-1.163.125-1.587.373a2.292 2.292 0 00-.941 1.019c-.209.438-.313.941-.313 1.509h-1.813c0-.804.176-1.538.529-2.205a3.9 3.9 0 011.568-1.587c.692-.399 1.545-.598 2.557-.598.902 0 1.673.16 2.313.48.64.314 1.13.758 1.47 1.333.346.568.519 1.234.519 1.999 0 .418-.072.842-.216 1.274-.137.424-.33.849-.578 1.273a9.998 9.998 0 01-.852 1.255c-.32.411-.663.816-1.029 1.215l-3.822 4.145h7.153zm10.897-6.781v2.175c0 1.169-.105 2.156-.314 2.959-.209.804-.51 1.451-.901 1.941a3.45 3.45 0 01-1.421 1.068c-.549.215-1.17.323-1.862.323a5.344 5.344 0 01-1.519-.206 3.604 3.604 0 01-1.254-.656 3.992 3.992 0 01-.941-1.196c-.261-.49-.46-1.084-.597-1.783-.138-.699-.206-1.516-.206-2.45v-2.175c0-1.169.104-2.149.313-2.94.216-.79.52-1.424.912-1.901a3.318 3.318 0 011.411-1.038 5.246 5.246 0 011.861-.314 5.38 5.38 0 011.529.206c.47.131.888.343 1.254.637.366.287.676.673.931 1.156.261.477.461 1.062.598 1.754.137.692.206 1.506.206 2.44zm-1.823 2.469v-2.773c0-.64-.039-1.202-.118-1.685a5.237 5.237 0 00-.323-1.254 2.475 2.475 0 00-.549-.843 1.932 1.932 0 00-.754-.471 2.726 2.726 0 00-.951-.156c-.431 0-.813.081-1.146.245a2.059 2.059 0 00-.843.754c-.222.346-.392.8-.509 1.362-.118.562-.177 1.245-.177 2.048v2.773c0 .64.036 1.205.108 1.695a5.6 5.6 0 00.343 1.274c.15.353.333.644.549.872.215.229.464.399.744.51.288.104.605.157.951.157.444 0 .833-.085 1.166-.255.333-.17.611-.435.833-.794.229-.366.398-.833.509-1.401.111-.575.167-1.261.167-2.058zm10.112-8.544v14.345h-1.813v-12.082l-3.654 1.333v-1.637l5.183-1.959h.284zm7.624 7.554l-1.451-.372.716-7.104h7.319v1.676h-5.781l-.431 3.88c.261-.15.591-.291.99-.421a4.515 4.515 0 011.391-.196c.66 0 1.251.114 1.774.343.522.222.966.542 1.332.96.373.418.657.921.853 1.509.196.588.294 1.244.294 1.969 0 .686-.095 1.317-.284 1.892a4.274 4.274 0 01-.833 1.509 3.76 3.76 0 01-1.411.989c-.562.235-1.225.353-1.99.353-.574 0-1.12-.078-1.636-.235a4.244 4.244 0 01-1.372-.735 3.991 3.991 0 01-.98-1.235c-.248-.496-.405-1.078-.47-1.744h1.725c.078.536.235.986.47 1.352.235.366.542.644.921.833.385.183.833.275 1.342.275.432 0 .814-.076 1.147-.226.333-.15.614-.366.843-.647.228-.28.401-.62.519-1.019.124-.398.186-.846.186-1.342a4.07 4.07 0 00-.186-1.254 2.861 2.861 0 00-.559-1.01 2.442 2.442 0 00-.891-.666 2.868 2.868 0 00-1.215-.245c-.608 0-1.068.082-1.382.245a5.286 5.286 0 00-.95.666zm64.699 5.302v1.489h-9.338v-1.303l4.674-5.203c.574-.641 1.019-1.183 1.332-1.627.32-.451.542-.852.666-1.205a3.18 3.18 0 00.196-1.098c0-.47-.098-.895-.294-1.273a2.201 2.201 0 00-.842-.922c-.373-.228-.823-.343-1.352-.343-.634 0-1.163.125-1.588.373a2.298 2.298 0 00-.941 1.019c-.209.438-.313.941-.313 1.509h-1.813c0-.804.177-1.538.529-2.205a3.906 3.906 0 011.568-1.587c.693-.399 1.545-.598 2.558-.598.901 0 1.672.16 2.312.48.64.314 1.13.758 1.47 1.333.346.568.519 1.234.519 1.999 0 .418-.072.842-.215 1.274-.138.424-.33.849-.579 1.273a9.787 9.787 0 01-.852 1.255c-.32.411-.663.816-1.029 1.215l-3.821 4.145h7.153zm10.896-6.781v2.175c0 1.169-.105 2.156-.314 2.959-.209.804-.509 1.451-.901 1.941a3.45 3.45 0 01-1.421 1.068c-.549.215-1.169.323-1.862.323a5.349 5.349 0 01-1.519-.206 3.621 3.621 0 01-1.254-.656 3.974 3.974 0 01-.94-1.196c-.262-.49-.461-1.084-.598-1.783-.137-.699-.206-1.516-.206-2.45v-2.175c0-1.169.105-2.149.314-2.94.215-.79.519-1.424.911-1.901a3.318 3.318 0 011.411-1.038 5.251 5.251 0 011.862-.314c.555 0 1.064.069 1.528.206.471.131.889.343 1.254.637.366.287.677.673.931 1.156.262.477.461 1.062.598 1.754.137.692.206 1.506.206 2.44zm-1.823 2.469v-2.773c0-.64-.039-1.202-.117-1.685a5.282 5.282 0 00-.324-1.254 2.459 2.459 0 00-.548-.843 1.936 1.936 0 00-.755-.471 2.724 2.724 0 00-.95-.156c-.431 0-.814.081-1.147.245a2.05 2.05 0 00-.842.754c-.223.346-.392.8-.51 1.362s-.176 1.245-.176 2.048v2.773c0 .64.036 1.205.107 1.695.079.49.193.915.343 1.274.151.353.333.644.549.872.216.229.464.399.745.51.287.104.604.157.95.157.444 0 .833-.085 1.166-.255.333-.17.611-.435.833-.794.229-.366.399-.833.51-1.401.111-.575.166-1.261.166-2.058zm10.113-8.544v14.345h-1.813v-12.082l-3.655 1.333v-1.637l5.183-1.959h.285zm12.287.058h.157v1.539h-.157c-.96 0-1.764.157-2.41.47-.647.307-1.16.722-1.539 1.245a5.107 5.107 0 00-.823 1.744 8.028 8.028 0 00-.245 1.969v2.097c0 .634.075 1.196.226 1.686.15.483.356.891.617 1.224.261.334.555.585.882.755.333.17.679.255 1.038.255a2.56 2.56 0 001.117-.235c.327-.164.601-.389.824-.677.228-.293.401-.64.519-1.038.117-.399.176-.836.176-1.313 0-.425-.052-.833-.157-1.225a3.238 3.238 0 00-.48-1.058 2.29 2.29 0 00-.813-.735c-.32-.183-.702-.275-1.146-.275-.503 0-.974.125-1.411.373a3.189 3.189 0 00-1.068.96c-.275.392-.432.82-.471 1.284l-.96-.01c.091-.732.261-1.356.509-1.872.255-.522.569-.947.941-1.274.379-.333.8-.574 1.264-.725.47-.156.967-.235 1.49-.235.712 0 1.326.134 1.842.402s.94.627 1.274 1.078c.333.444.578.947.734 1.509.164.555.245 1.127.245 1.715 0 .672-.094 1.303-.284 1.891a4.455 4.455 0 01-.852 1.548c-.373.444-.833.79-1.382 1.039-.549.248-1.185.372-1.911.372-.77 0-1.443-.157-2.018-.47a4.326 4.326 0 01-1.431-1.274 5.793 5.793 0 01-.852-1.764 6.953 6.953 0 01-.284-1.97v-.852c0-1.006.101-1.992.303-2.959a7.88 7.88 0 011.049-2.626c.503-.784 1.199-1.408 2.087-1.872.888-.464 2.022-.696 3.4-.696zm60.036 12.798v1.489h-9.338v-1.303l4.674-5.203c.575-.641 1.019-1.183 1.332-1.627.321-.451.543-.852.667-1.205.13-.359.196-.725.196-1.098 0-.47-.098-.895-.294-1.273a2.21 2.21 0 00-.843-.922c-.372-.228-.823-.343-1.352-.343-.634 0-1.163.125-1.588.373a2.29 2.29 0 00-.94 1.019c-.209.438-.314.941-.314 1.509h-1.813c0-.804.177-1.538.53-2.205a3.897 3.897 0 011.567-1.587c.693-.399 1.545-.598 2.558-.598.901 0 1.672.16 2.312.48.641.314 1.13.758 1.47 1.333.346.568.519 1.234.519 1.999 0 .418-.071.842-.215 1.274-.137.424-.33.849-.578 1.273a9.901 9.901 0 01-.853 1.255c-.32.411-.663.816-1.029 1.215l-3.821 4.145h7.153zm10.896-6.781v2.175c0 1.169-.104 2.156-.313 2.959-.209.804-.51 1.451-.902 1.941a3.443 3.443 0 01-1.421 1.068c-.548.215-1.169.323-1.861.323a5.344 5.344 0 01-1.519-.206 3.617 3.617 0 01-1.255-.656 3.99 3.99 0 01-.94-1.196c-.261-.49-.461-1.084-.598-1.783-.137-.699-.206-1.516-.206-2.45v-2.175c0-1.169.105-2.149.314-2.94.215-.79.519-1.424.911-1.901a3.318 3.318 0 011.411-1.038 5.251 5.251 0 011.862-.314c.555 0 1.065.069 1.529.206.47.131.888.343 1.254.637.366.287.676.673.931 1.156.261.477.46 1.062.597 1.754.138.692.206 1.506.206 2.44zm-1.822 2.469v-2.773c0-.64-.04-1.202-.118-1.685a5.333 5.333 0 00-.323-1.254 2.475 2.475 0 00-.549-.843 1.936 1.936 0 00-.755-.471 2.72 2.72 0 00-.95-.156c-.431 0-.813.081-1.147.245a2.05 2.05 0 00-.842.754c-.222.346-.392.8-.51 1.362-.117.562-.176 1.245-.176 2.048v2.773c0 .64.036 1.205.108 1.695.078.49.192.915.343 1.274.15.353.333.644.548.872.216.229.464.399.745.51.287.104.604.157.951.157.444 0 .832-.085 1.166-.255.333-.17.61-.435.832-.794.229-.366.399-.833.51-1.401.111-.575.167-1.261.167-2.058zm10.112-8.544v14.345h-1.813v-12.082l-3.655 1.333v-1.637l5.184-1.959h.284zm14.551.078v1.019l-5.909 13.248h-1.91l5.898-12.778h-7.721v-1.489h9.642zm57.773 12.778v1.489h-9.338v-1.303l4.674-5.203c.574-.641 1.019-1.183 1.332-1.627.32-.451.542-.852.666-1.205a3.18 3.18 0 00.196-1.098c0-.47-.098-.895-.293-1.273a2.21 2.21 0 00-.843-.922c-.373-.228-.823-.343-1.352-.343-.634 0-1.163.125-1.588.373a2.29 2.29 0 00-.94 1.019c-.21.438-.314.941-.314 1.509h-1.813c0-.804.177-1.538.529-2.205a3.906 3.906 0 011.568-1.587c.693-.399 1.545-.598 2.558-.598.901 0 1.672.16 2.312.48.64.314 1.13.758 1.47 1.333.346.568.519 1.234.519 1.999 0 .418-.072.842-.215 1.274a6.52 6.52 0 01-.578 1.273 9.901 9.901 0 01-.853 1.255c-.32.411-.663.816-1.029 1.215l-3.821 4.145h7.153zm10.896-6.781v2.175c0 1.169-.105 2.156-.314 2.959-.209.804-.509 1.451-.901 1.941a3.45 3.45 0 01-1.421 1.068c-.549.215-1.169.323-1.862.323a5.349 5.349 0 01-1.519-.206 3.621 3.621 0 01-1.254-.656 3.974 3.974 0 01-.94-1.196c-.262-.49-.461-1.084-.598-1.783-.137-.699-.206-1.516-.206-2.45v-2.175c0-1.169.105-2.149.314-2.94.215-.79.519-1.424.911-1.901a3.318 3.318 0 011.411-1.038 5.251 5.251 0 011.862-.314c.555 0 1.064.069 1.528.206a3.46 3.46 0 011.255.637c.365.287.676.673.93 1.156.262.477.461 1.062.598 1.754.137.692.206 1.506.206 2.44zm-1.823 2.469v-2.773c0-.64-.039-1.202-.117-1.685a5.282 5.282 0 00-.324-1.254 2.459 2.459 0 00-.548-.843 1.936 1.936 0 00-.755-.471 2.724 2.724 0 00-.95-.156c-.431 0-.814.081-1.147.245a2.05 2.05 0 00-.842.754c-.223.346-.392.8-.51 1.362s-.176 1.245-.176 2.048v2.773c0 .64.036 1.205.107 1.695.079.49.193.915.343 1.274.151.353.334.644.549.872.216.229.464.399.745.51.287.104.604.157.95.157.444 0 .833-.085 1.166-.255.333-.17.611-.435.833-.794.229-.366.399-.833.51-1.401.111-.575.166-1.261.166-2.058zm10.113-8.544v14.345h-1.813v-12.082l-3.655 1.333v-1.637l5.183-1.959h.285zm14.325 10.484c0 .869-.202 1.607-.607 2.215a3.809 3.809 0 01-1.627 1.372c-.679.313-1.447.47-2.303.47-.855 0-1.626-.157-2.312-.47a3.809 3.809 0 01-1.627-1.372c-.398-.608-.597-1.346-.597-2.215 0-.568.107-1.087.323-1.558.222-.477.532-.891.931-1.244a4.263 4.263 0 011.431-.813 5.47 5.47 0 011.832-.294c.875 0 1.656.169 2.342.509.686.333 1.225.794 1.617 1.382.398.588.597 1.261.597 2.018zm-1.822-.039c0-.529-.115-.996-.343-1.401a2.419 2.419 0 00-.961-.96c-.411-.229-.888-.343-1.43-.343-.555 0-1.036.114-1.441.343a2.388 2.388 0 00-.93.96c-.223.405-.334.872-.334 1.401 0 .549.108 1.019.324 1.411.222.386.535.683.94.892.412.202.899.304 1.46.304.562 0 1.046-.102 1.451-.304.405-.209.715-.506.931-.892.222-.392.333-.862.333-1.411zm1.489-6.653c0 .692-.183 1.316-.549 1.871a3.796 3.796 0 01-1.499 1.313c-.633.32-1.352.48-2.156.48-.816 0-1.544-.16-2.185-.48a3.733 3.733 0 01-1.489-1.313 3.372 3.372 0 01-.539-1.871c0-.83.18-1.535.539-2.117a3.579 3.579 0 011.499-1.332c.634-.307 1.356-.461 2.166-.461.816 0 1.541.154 2.175.461.634.307 1.13.751 1.489 1.332.366.582.549 1.287.549 2.117zm-1.813.029c0-.477-.101-.898-.303-1.264a2.231 2.231 0 00-.843-.862c-.359-.216-.777-.324-1.254-.324s-.895.102-1.255.304a2.11 2.11 0 00-.832.843c-.196.366-.294.8-.294 1.303 0 .49.098.918.294 1.284.202.366.483.65.842.852.36.203.778.304 1.254.304.477 0 .892-.101 1.245-.304.359-.202.64-.486.843-.852.202-.366.303-.794.303-1.284zm60.143 9.035v1.489h-9.338v-1.303l4.674-5.203c.574-.641 1.019-1.183 1.332-1.627.32-.451.542-.852.667-1.205.13-.359.196-.725.196-1.098 0-.47-.098-.895-.294-1.273a2.21 2.21 0 00-.843-.922c-.372-.228-.823-.343-1.352-.343-.634 0-1.163.125-1.588.373a2.29 2.29 0 00-.94 1.019c-.209.438-.314.941-.314 1.509h-1.813c0-.804.177-1.538.529-2.205a3.906 3.906 0 011.568-1.587c.693-.399 1.545-.598 2.558-.598.901 0 1.672.16 2.312.48.64.314 1.13.758 1.47 1.333.346.568.519 1.234.519 1.999 0 .418-.072.842-.215 1.274-.137.424-.33.849-.578 1.273a9.901 9.901 0 01-.853 1.255c-.32.411-.663.816-1.029 1.215l-3.821 4.145h7.153zm10.896-6.781v2.175c0 1.169-.105 2.156-.314 2.959-.209.804-.509 1.451-.901 1.941a3.45 3.45 0 01-1.421 1.068c-.549.215-1.169.323-1.862.323a5.337 5.337 0 01-1.518-.206 3.617 3.617 0 01-1.255-.656 3.974 3.974 0 01-.94-1.196c-.262-.49-.461-1.084-.598-1.783-.137-.699-.206-1.516-.206-2.45v-2.175c0-1.169.105-2.149.314-2.94.215-.79.519-1.424.911-1.901a3.318 3.318 0 011.411-1.038 5.251 5.251 0 011.862-.314c.555 0 1.065.069 1.528.206a3.46 3.46 0 011.255.637c.365.287.676.673.93 1.156.262.477.461 1.062.598 1.754.137.692.206 1.506.206 2.44zm-1.823 2.469v-2.773c0-.64-.039-1.202-.117-1.685a5.282 5.282 0 00-.324-1.254 2.459 2.459 0 00-.548-.843 1.936 1.936 0 00-.755-.471 2.724 2.724 0 00-.95-.156c-.431 0-.814.081-1.147.245a2.05 2.05 0 00-.842.754c-.222.346-.392.8-.51 1.362s-.176 1.245-.176 2.048v2.773c0 .64.036 1.205.107 1.695.079.49.193.915.343 1.274.151.353.334.644.549.872.216.229.464.399.745.51.287.104.604.157.95.157.445 0 .833-.085 1.166-.255a2.1 2.1 0 00.833-.794c.229-.366.399-.833.51-1.401.111-.575.166-1.261.166-2.058zm10.113-8.544v14.345h-1.813v-12.082l-3.655 1.333v-1.637l5.183-1.959h.285zm7.133 12.826h.186c1.045 0 1.895-.147 2.548-.441.653-.294 1.156-.689 1.509-1.185a4.44 4.44 0 00.725-1.676 9.417 9.417 0 00.196-1.93v-2.185c0-.647-.075-1.222-.225-1.725-.144-.503-.347-.924-.608-1.264a2.687 2.687 0 00-.872-.774 2.15 2.15 0 00-1.039-.265 2.44 2.44 0 00-1.126.255 2.35 2.35 0 00-.833.696c-.222.3-.392.653-.51 1.058a4.751 4.751 0 00-.176 1.323c0 .424.052.836.156 1.234.105.399.265.758.481 1.078.215.32.483.575.803.765.327.183.709.274 1.147.274.405 0 .783-.078 1.136-.235a3.278 3.278 0 001.617-1.607c.17-.353.268-.722.294-1.107h.862a4.24 4.24 0 01-.323 1.607 4.925 4.925 0 01-.882 1.43 4.477 4.477 0 01-1.333 1.039 3.664 3.664 0 01-1.665.382c-.706 0-1.317-.137-1.833-.412a3.708 3.708 0 01-1.274-1.097 5.02 5.02 0 01-.734-1.529 6.445 6.445 0 01-.236-1.724c0-.68.095-1.316.285-1.911.189-.594.47-1.117.842-1.568a3.852 3.852 0 011.382-1.068c.555-.255 1.195-.382 1.92-.382.817 0 1.513.163 2.087.49a4.038 4.038 0 011.402 1.313c.366.549.633 1.166.803 1.852.17.686.255 1.391.255 2.117v.656c0 .738-.049 1.489-.147 2.254a8.953 8.953 0 01-.539 2.175 5.722 5.722 0 01-1.146 1.862c-.503.542-1.16.973-1.97 1.293-.803.314-1.796.471-2.979.471h-.186v-1.539zm65.189.03v1.489h-9.338v-1.303l4.674-5.203c.575-.641 1.019-1.183 1.333-1.627.32-.451.542-.852.666-1.205.13-.359.196-.725.196-1.098 0-.47-.098-.895-.294-1.273a2.204 2.204 0 00-.843-.922c-.372-.228-.823-.343-1.352-.343-.634 0-1.163.125-1.587.373a2.286 2.286 0 00-.941 1.019c-.209.438-.314.941-.314 1.509h-1.812c0-.804.176-1.538.529-2.205a3.897 3.897 0 011.567-1.587c.693-.399 1.545-.598 2.558-.598.901 0 1.672.16 2.312.48.641.314 1.131.758 1.47 1.333.346.568.52 1.234.52 1.999 0 .418-.072.842-.216 1.274-.137.424-.33.849-.578 1.273a9.901 9.901 0 01-.853 1.255c-.32.411-.663.816-1.028 1.215l-3.822 4.145h7.153zm10.896-6.781v2.175c0 1.169-.104 2.156-.313 2.959-.209.804-.51 1.451-.902 1.941a3.443 3.443 0 01-1.421 1.068c-.548.215-1.169.323-1.861.323a5.344 5.344 0 01-1.519-.206 3.604 3.604 0 01-1.254-.656 3.976 3.976 0 01-.941-1.196c-.261-.49-.461-1.084-.598-1.783-.137-.699-.206-1.516-.206-2.45v-2.175c0-1.169.105-2.149.314-2.94.216-.79.519-1.424.911-1.901a3.324 3.324 0 011.411-1.038 5.255 5.255 0 011.862-.314c.555 0 1.065.069 1.529.206.47.131.888.343 1.254.637.366.287.676.673.931 1.156.261.477.46 1.062.597 1.754.138.692.206 1.506.206 2.44zm-1.822 2.469v-2.773c0-.64-.04-1.202-.118-1.685a5.333 5.333 0 00-.323-1.254 2.475 2.475 0 00-.549-.843 1.94 1.94 0 00-.754-.471 2.726 2.726 0 00-.951-.156c-.431 0-.813.081-1.146.245a2.053 2.053 0 00-.843.754c-.222.346-.392.8-.51 1.362-.117.562-.176 1.245-.176 2.048v2.773c0 .64.036 1.205.108 1.695.078.49.192.915.343 1.274.15.353.333.644.548.872.216.229.464.399.745.51.288.104.604.157.951.157.444 0 .833-.085 1.166-.255.333-.17.61-.435.833-.794.228-.366.398-.833.509-1.401.111-.575.167-1.261.167-2.058zm13.502 4.312v1.489h-9.338v-1.303l4.674-5.203c.575-.641 1.019-1.183 1.333-1.627.32-.451.542-.852.666-1.205a3.18 3.18 0 00.196-1.098c0-.47-.098-.895-.294-1.273a2.197 2.197 0 00-.843-.922c-.372-.228-.823-.343-1.352-.343-.634 0-1.163.125-1.587.373a2.292 2.292 0 00-.941 1.019c-.209.438-.313.941-.313 1.509h-1.813c0-.804.176-1.538.529-2.205a3.9 3.9 0 011.568-1.587c.692-.399 1.545-.598 2.557-.598.902 0 1.672.16 2.313.48.64.314 1.13.758 1.469 1.333.347.568.52 1.234.52 1.999 0 .418-.072.842-.216 1.274-.137.424-.33.849-.578 1.273a9.998 9.998 0 01-.852 1.255c-.32.411-.663.816-1.029 1.215l-3.822 4.145h7.153zm10.896-6.781v2.175c0 1.169-.104 2.156-.313 2.959-.209.804-.51 1.451-.902 1.941a3.446 3.446 0 01-1.42 1.068c-.549.215-1.17.323-1.862.323a5.344 5.344 0 01-1.519-.206 3.604 3.604 0 01-1.254-.656 3.976 3.976 0 01-.941-1.196c-.261-.49-.46-1.084-.598-1.783-.137-.699-.205-1.516-.205-2.45v-2.175c0-1.169.104-2.149.313-2.94.216-.79.52-1.424.911-1.901a3.324 3.324 0 011.411-1.038 5.255 5.255 0 011.862-.314c.555 0 1.065.069 1.529.206.47.131.888.343 1.254.637.366.287.676.673.931 1.156.261.477.46 1.062.598 1.754.137.692.205 1.506.205 2.44zm-1.822 2.469v-2.773c0-.64-.039-1.202-.118-1.685a5.285 5.285 0 00-.323-1.254 2.475 2.475 0 00-.549-.843 1.932 1.932 0 00-.754-.471 2.726 2.726 0 00-.951-.156c-.431 0-.813.081-1.146.245a2.059 2.059 0 00-.843.754c-.222.346-.392.8-.509 1.362-.118.562-.177 1.245-.177 2.048v2.773c0 .64.036 1.205.108 1.695a5.6 5.6 0 00.343 1.274c.15.353.333.644.549.872.215.229.463.399.744.51.288.104.605.157.951.157.444 0 .833-.085 1.166-.255.333-.17.611-.435.833-.794.228-.366.398-.833.509-1.401.111-.575.167-1.261.167-2.058zm39.066 4.312v1.489h-9.34v-1.303l4.67-5.203a19.39 19.39 0 001.34-1.627c.32-.451.54-.852.66-1.205.13-.359.2-.725.2-1.098 0-.47-.1-.895-.3-1.273a2.216 2.216 0 00-.84-.922c-.37-.228-.82-.343-1.35-.343-.64 0-1.16.125-1.59.373-.42.242-.73.581-.94 1.019-.21.438-.31.941-.31 1.509h-1.82c0-.804.18-1.538.53-2.205.36-.666.88-1.195 1.57-1.587.69-.399 1.55-.598 2.56-.598.9 0 1.67.16 2.31.48.64.314 1.13.758 1.47 1.333.35.568.52 1.234.52 1.999 0 .418-.07.842-.22 1.274-.13.424-.33.849-.57 1.273-.25.425-.53.843-.86 1.255-.32.411-.66.816-1.02 1.215l-3.83 4.145h7.16zm10.89-6.781v2.175c0 1.169-.1 2.156-.31 2.959-.21.804-.51 1.451-.9 1.941-.39.489-.87.845-1.42 1.068-.55.215-1.17.323-1.86.323-.55 0-1.06-.069-1.52-.206a3.562 3.562 0 01-1.26-.656 4.053 4.053 0 01-.94-1.196c-.26-.49-.46-1.084-.6-1.783-.13-.699-.2-1.516-.2-2.45v-2.175c0-1.169.1-2.149.31-2.94.22-.79.52-1.424.91-1.901.39-.483.87-.829 1.41-1.038a5.3 5.3 0 011.87-.314c.55 0 1.06.069 1.52.206.47.131.89.343 1.26.637.36.287.67.673.93 1.156.26.477.46 1.062.6 1.754.13.692.2 1.506.2 2.44zm-1.82 2.469v-2.773c0-.64-.04-1.202-.12-1.685a5.39 5.39 0 00-.32-1.254 2.448 2.448 0 00-.55-.843 1.932 1.932 0 00-.75-.471c-.28-.104-.6-.156-.95-.156-.44 0-.82.081-1.15.245-.33.156-.61.408-.84.754-.23.346-.4.8-.51 1.362-.12.562-.18 1.245-.18 2.048v2.773c0 .64.04 1.205.11 1.695.08.49.19.915.34 1.274.15.353.33.644.55.872.22.229.46.399.74.51.29.104.61.157.96.157.44 0 .83-.085 1.16-.255.33-.17.61-.435.83-.794.23-.366.4-.833.51-1.401.11-.575.17-1.261.17-2.058zm13.5 4.312v1.489h-9.34v-1.303l4.68-5.203c.57-.641 1.02-1.183 1.33-1.627.32-.451.54-.852.67-1.205.13-.359.19-.725.19-1.098 0-.47-.09-.895-.29-1.273a2.216 2.216 0 00-.84-.922c-.38-.228-.83-.343-1.36-.343-.63 0-1.16.125-1.58.373-.42.242-.73.581-.94 1.019-.21.438-.32.941-.32 1.509h-1.81c0-.804.18-1.538.53-2.205.35-.666.87-1.195 1.57-1.587.69-.399 1.54-.598 2.55-.598.91 0 1.68.16 2.32.48.64.314 1.13.758 1.47 1.333.34.568.52 1.234.52 1.999 0 .418-.08.842-.22 1.274-.14.424-.33.849-.58 1.273-.24.425-.52.843-.85 1.255-.32.411-.66.816-1.03 1.215l-3.82 4.145h7.15zm7.9-12.856v14.345h-1.81v-12.082l-3.66 1.333v-1.637l5.19-1.959h.28zm-937.96-20.013v2.175c0 1.169-.105 2.156-.314 2.959-.209.804-.51 1.451-.901 1.941a3.45 3.45 0 01-1.421 1.068c-.549.215-1.17.323-1.862.323a5.344 5.344 0 01-1.519-.206 3.604 3.604 0 01-1.254-.656 3.992 3.992 0 01-.941-1.196c-.261-.49-.46-1.084-.597-1.783-.138-.699-.206-1.516-.206-2.45v-2.175c0-1.169.104-2.149.313-2.94.216-.79.52-1.424.912-1.901a3.318 3.318 0 011.411-1.038 5.246 5.246 0 011.861-.314 5.38 5.38 0 011.529.206c.47.131.888.343 1.254.637.366.287.676.673.931 1.156.261.477.461 1.062.598 1.754.137.692.206 1.506.206 2.44zm-1.823 2.469v-2.773c0-.64-.039-1.202-.118-1.685a5.259 5.259 0 00-.323-1.255 2.48 2.48 0 00-.549-.842 1.932 1.932 0 00-.754-.471 2.726 2.726 0 00-.951-.156c-.431 0-.813.081-1.146.245a2.059 2.059 0 00-.843.754c-.222.346-.392.8-.509 1.362-.118.562-.177 1.245-.177 2.048v2.773c0 .64.036 1.205.108 1.695.079.49.193.915.343 1.274.15.353.333.644.549.872.215.229.464.399.745.51.287.104.604.157.95.157.444 0 .833-.085 1.166-.255.333-.17.611-.435.833-.794.229-.366.398-.833.509-1.401.112-.575.167-1.261.167-2.058zM53.983 501.726l-1.45-.372.715-7.104h7.32v1.676h-5.781l-.431 3.88c.261-.15.59-.291.99-.421a4.52 4.52 0 011.39-.196c.66 0 1.252.114 1.774.343.523.222.967.542 1.333.96.372.418.656.921.852 1.509.197.588.294 1.244.294 1.969a6.02 6.02 0 01-.284 1.892 4.267 4.267 0 01-.833 1.509 3.752 3.752 0 01-1.41.989c-.562.235-1.226.353-1.99.353-.575 0-1.12-.078-1.636-.235a4.238 4.238 0 01-1.372-.735 3.98 3.98 0 01-.98-1.235c-.248-.496-.405-1.078-.47-1.744h1.724c.079.536.236.986.47 1.352a2.3 2.3 0 00.922.833c.385.183.833.275 1.342.275.431 0 .813-.076 1.147-.226a2.27 2.27 0 00.842-.647c.229-.28.402-.62.52-1.019.124-.398.186-.846.186-1.342a4.07 4.07 0 00-.186-1.254 2.874 2.874 0 00-.559-1.01 2.452 2.452 0 00-.891-.666 2.867 2.867 0 00-1.215-.245c-.608 0-1.069.082-1.382.245a5.31 5.31 0 00-.95.666zm17.952-1.479v2.175c0 1.169-.105 2.156-.314 2.959-.209.804-.51 1.451-.901 1.941a3.446 3.446 0 01-1.421 1.068c-.549.215-1.17.323-1.862.323a5.343 5.343 0 01-1.519-.206 3.61 3.61 0 01-1.254-.656 3.983 3.983 0 01-.94-1.196c-.262-.49-.461-1.084-.598-1.783-.138-.699-.206-1.516-.206-2.45v-2.175c0-1.169.104-2.149.313-2.94.216-.79.52-1.424.912-1.901a3.32 3.32 0 011.41-1.038 5.252 5.252 0 011.862-.314 5.38 5.38 0 011.529.206c.47.131.888.343 1.254.637.366.287.676.673.931 1.156.261.477.46 1.062.598 1.754.137.692.206 1.506.206 2.44zm-1.823 2.469v-2.773c0-.64-.04-1.202-.118-1.685a5.289 5.289 0 00-.323-1.254 2.469 2.469 0 00-.549-.843 1.935 1.935 0 00-.754-.471 2.723 2.723 0 00-.95-.156c-.432 0-.814.081-1.147.245a2.056 2.056 0 00-.843.754c-.222.346-.392.8-.51 1.362-.117.562-.176 1.245-.176 2.048v2.773c0 .64.036 1.205.108 1.695.079.49.193.915.343 1.274.15.353.333.644.549.872.215.229.464.399.745.51.287.104.604.157.95.157.444 0 .833-.085 1.166-.255.333-.17.61-.435.833-.794.229-.366.398-.833.51-1.401.11-.575.166-1.261.166-2.058zm13.11-2.469v2.175c0 1.169-.104 2.156-.313 2.959-.209.804-.51 1.451-.901 1.941a3.446 3.446 0 01-1.421 1.068c-.549.215-1.17.323-1.862.323a5.343 5.343 0 01-1.519-.206 3.61 3.61 0 01-1.254-.656 3.983 3.983 0 01-.94-1.196c-.262-.49-.461-1.084-.598-1.783-.138-.699-.206-1.516-.206-2.45v-2.175c0-1.169.104-2.149.313-2.94.216-.79.52-1.424.912-1.901a3.32 3.32 0 011.41-1.038 5.252 5.252 0 011.862-.314 5.38 5.38 0 011.53.206c.47.131.888.343 1.253.637.366.287.676.673.931 1.156.261.477.46 1.062.598 1.754.137.692.206 1.506.206 2.44zm-1.822 2.469v-2.773c0-.64-.04-1.202-.118-1.685a5.289 5.289 0 00-.323-1.254 2.469 2.469 0 00-.549-.843 1.935 1.935 0 00-.754-.471 2.723 2.723 0 00-.95-.156c-.432 0-.814.081-1.147.245a2.056 2.056 0 00-.843.754c-.222.346-.392.8-.51 1.362-.117.562-.176 1.245-.176 2.048v2.773c0 .64.036 1.205.108 1.695.079.49.193.915.343 1.274.15.353.333.644.549.872.216.229.464.399.745.51.287.104.604.157.95.157.444 0 .833-.085 1.166-.255.333-.17.61-.435.833-.794.229-.366.398-.833.51-1.401.11-.575.166-1.261.166-2.058zm13.11-2.469v2.175c0 1.169-.104 2.156-.313 2.959-.209.804-.51 1.451-.901 1.941a3.446 3.446 0 01-1.421 1.068c-.549.215-1.17.323-1.862.323a5.343 5.343 0 01-1.519-.206 3.61 3.61 0 01-1.254-.656 3.983 3.983 0 01-.94-1.196c-.262-.49-.461-1.084-.598-1.783-.137-.699-.206-1.516-.206-2.45v-2.175c0-1.169.105-2.149.314-2.94.215-.79.519-1.424.91-1.901a3.32 3.32 0 011.412-1.038 5.252 5.252 0 011.862-.314 5.38 5.38 0 011.528.206c.47.131.889.343 1.254.637.366.287.677.673.931 1.156.262.477.46 1.062.598 1.754.137.692.206 1.506.206 2.44zm-1.822 2.469v-2.773c0-.64-.039-1.202-.117-1.685a5.289 5.289 0 00-.324-1.254 2.467 2.467 0 00-.549-.843 1.934 1.934 0 00-.754-.471 2.722 2.722 0 00-.95-.156c-.432 0-.814.081-1.147.245a2.056 2.056 0 00-.843.754c-.222.346-.392.8-.51 1.362-.117.562-.175 1.245-.175 2.048v2.773c0 .64.035 1.205.107 1.695.079.49.193.915.343 1.274.15.353.333.644.549.872.216.229.464.399.745.51.287.104.604.157.95.157.444 0 .833-.085 1.166-.255.333-.17.611-.435.833-.794.229-.366.399-.833.51-1.401.11-.575.166-1.261.166-2.058zm13.111-2.469v2.175c0 1.169-.105 2.156-.314 2.959-.209.804-.509 1.451-.901 1.941a3.45 3.45 0 01-1.421 1.068c-.549.215-1.169.323-1.862.323a5.343 5.343 0 01-1.519-.206 3.61 3.61 0 01-1.254-.656 3.983 3.983 0 01-.94-1.196c-.262-.49-.461-1.084-.598-1.783-.137-.699-.206-1.516-.206-2.45v-2.175c0-1.169.105-2.149.314-2.94.215-.79.519-1.424.91-1.901a3.32 3.32 0 011.412-1.038 5.253 5.253 0 011.862-.314c.555 0 1.064.069 1.528.206.471.131.889.343 1.254.637.366.287.677.673.931 1.156.262.477.461 1.062.598 1.754.137.692.206 1.506.206 2.44zm-1.823 2.469v-2.773c0-.64-.039-1.202-.117-1.685a5.282 5.282 0 00-.324-1.254 2.459 2.459 0 00-.548-.843 1.936 1.936 0 00-.755-.471 2.724 2.724 0 00-.95-.156c-.431 0-.814.081-1.147.245a2.056 2.056 0 00-.843.754c-.222.346-.391.8-.509 1.362s-.176 1.245-.176 2.048v2.773c0 .64.036 1.205.107 1.695.079.49.193.915.343 1.274.15.353.334.644.55.872.215.229.463.399.744.51.287.104.604.157.95.157.444 0 .833-.085 1.166-.255.333-.17.611-.435.833-.794.229-.366.399-.833.51-1.401.111-.575.166-1.261.166-2.058zM47.415 381.792v14.345h-1.813v-12.081l-3.655 1.332v-1.636l5.183-1.96h.285zm14.286 6.075v2.176c0 1.169-.104 2.155-.313 2.959-.21.803-.51 1.45-.902 1.94s-.865.846-1.42 1.068c-.55.216-1.17.323-1.862.323a5.343 5.343 0 01-1.52-.205 3.613 3.613 0 01-1.253-.657 3.978 3.978 0 01-.941-1.195c-.261-.49-.46-1.085-.598-1.784-.137-.699-.206-1.515-.206-2.449v-2.176c0-1.169.105-2.149.314-2.939.215-.791.52-1.424.911-1.901.392-.484.862-.83 1.411-1.039.555-.209 1.176-.313 1.862-.313a5.38 5.38 0 011.529.205c.47.131.888.343 1.254.637.366.288.676.673.93 1.157.262.476.461 1.061.598 1.753.138.693.206 1.506.206 2.44zm-1.822 2.47v-2.773c0-.641-.04-1.202-.118-1.686a5.289 5.289 0 00-.323-1.254 2.488 2.488 0 00-.55-.843 1.943 1.943 0 00-.754-.47 2.7 2.7 0 00-.95-.157c-.431 0-.813.082-1.146.245a2.058 2.058 0 00-.843.755c-.222.346-.392.8-.51 1.362-.117.561-.176 1.244-.176 2.048v2.773c0 .64.036 1.205.108 1.695.078.49.192.914.343 1.274.15.352.333.643.548.872.216.228.464.398.745.509.288.105.604.157.95.157.445 0 .833-.085 1.167-.255.333-.17.61-.434.833-.793.228-.366.398-.833.509-1.402.111-.575.167-1.26.167-2.057zm13.11-2.47v2.176c0 1.169-.104 2.155-.313 2.959-.21.803-.51 1.45-.902 1.94s-.865.846-1.42 1.068c-.55.216-1.17.323-1.862.323a5.343 5.343 0 01-1.52-.205 3.613 3.613 0 01-1.253-.657 3.978 3.978 0 01-.941-1.195c-.261-.49-.46-1.085-.598-1.784-.137-.699-.206-1.515-.206-2.449v-2.176c0-1.169.105-2.149.314-2.939.216-.791.52-1.424.911-1.901.392-.484.863-.83 1.411-1.039.556-.209 1.176-.313 1.862-.313a5.38 5.38 0 011.529.205c.47.131.888.343 1.254.637.366.288.676.673.93 1.157.262.476.461 1.061.599 1.753.137.693.205 1.506.205 2.44zm-1.822 2.47v-2.773c0-.641-.04-1.202-.118-1.686a5.289 5.289 0 00-.323-1.254 2.488 2.488 0 00-.549-.843 1.943 1.943 0 00-.755-.47 2.7 2.7 0 00-.95-.157c-.431 0-.813.082-1.146.245a2.058 2.058 0 00-.843.755c-.222.346-.392.8-.51 1.362-.117.561-.176 1.244-.176 2.048v2.773c0 .64.036 1.205.108 1.695.078.49.192.914.343 1.274.15.352.333.643.548.872.216.228.464.398.745.509.288.105.604.157.95.157.445 0 .834-.085 1.167-.255.333-.17.61-.434.833-.793.228-.366.398-.833.51-1.402.11-.575.166-1.26.166-2.057zm13.11-2.47v2.176c0 1.169-.104 2.155-.313 2.959-.21.803-.51 1.45-.902 1.94s-.865.846-1.42 1.068c-.55.216-1.17.323-1.862.323a5.343 5.343 0 01-1.519-.205 3.613 3.613 0 01-1.254-.657 3.978 3.978 0 01-.94-1.195c-.262-.49-.461-1.085-.599-1.784-.137-.699-.205-1.515-.205-2.449v-2.176c0-1.169.104-2.149.313-2.939.216-.791.52-1.424.911-1.901.392-.484.863-.83 1.411-1.039.556-.209 1.176-.313 1.862-.313a5.38 5.38 0 011.529.205c.47.131.888.343 1.254.637.366.288.676.673.93 1.157.262.476.461 1.061.599 1.753.137.693.205 1.506.205 2.44zm-1.822 2.47v-2.773c0-.641-.04-1.202-.118-1.686a5.289 5.289 0 00-.323-1.254 2.49 2.49 0 00-.549-.843 1.943 1.943 0 00-.754-.47 2.7 2.7 0 00-.95-.157c-.432 0-.814.082-1.147.245a2.058 2.058 0 00-.843.755c-.222.346-.392.8-.51 1.362-.117.561-.176 1.244-.176 2.048v2.773c0 .64.036 1.205.108 1.695.078.49.193.914.343 1.274.15.352.333.643.549.872.215.228.463.398.744.509.288.105.605.157.95.157.445 0 .834-.085 1.167-.255.333-.17.61-.434.833-.793.228-.366.398-.833.51-1.402.11-.575.166-1.26.166-2.057zm13.11-2.47v2.176c0 1.169-.104 2.155-.313 2.959-.21.803-.51 1.45-.902 1.94-.391.49-.865.846-1.42 1.068-.55.216-1.17.323-1.862.323a5.343 5.343 0 01-1.519-.205 3.613 3.613 0 01-1.254-.657 3.978 3.978 0 01-.94-1.195c-.262-.49-.461-1.085-.599-1.784-.137-.699-.205-1.515-.205-2.449v-2.176c0-1.169.104-2.149.313-2.939.216-.791.52-1.424.911-1.901.392-.484.863-.83 1.411-1.039.556-.209 1.176-.313 1.862-.313.555 0 1.065.068 1.529.205.47.131.888.343 1.254.637.366.288.676.673.931 1.157.261.476.46 1.061.598 1.753.137.693.206 1.506.206 2.44zm-1.822 2.47v-2.773c0-.641-.04-1.202-.118-1.686a5.289 5.289 0 00-.323-1.254 2.49 2.49 0 00-.549-.843 1.943 1.943 0 00-.754-.47 2.7 2.7 0 00-.95-.157c-.432 0-.814.082-1.147.245a2.058 2.058 0 00-.843.755c-.222.346-.392.8-.51 1.362-.117.561-.176 1.244-.176 2.048v2.773c0 .64.036 1.205.108 1.695.078.49.193.914.343 1.274.15.352.333.643.549.872.215.228.463.398.744.509.288.105.605.157.95.157.445 0 .834-.085 1.167-.255.333-.17.61-.434.833-.793.228-.366.398-.833.51-1.402.11-.575.166-1.26.166-2.057zm13.111-2.47v2.176c0 1.169-.105 2.155-.314 2.959-.209.803-.51 1.45-.901 1.94-.392.49-.866.846-1.421 1.068-.549.216-1.17.323-1.862.323a5.345 5.345 0 01-1.519-.205 3.61 3.61 0 01-1.254-.657 3.978 3.978 0 01-.94-1.195c-.262-.49-.461-1.085-.599-1.784-.137-.699-.205-1.515-.205-2.449v-2.176c0-1.169.104-2.149.313-2.939.216-.791.52-1.424.912-1.901.392-.484.862-.83 1.411-1.039.555-.209 1.175-.313 1.861-.313a5.38 5.38 0 011.529.205c.47.131.888.343 1.254.637.366.288.676.673.931 1.157.261.476.461 1.061.598 1.753.137.693.206 1.506.206 2.44zm-1.823 2.47v-2.773c0-.641-.039-1.202-.118-1.686a5.237 5.237 0 00-.323-1.254 2.495 2.495 0 00-.549-.843 1.941 1.941 0 00-.754-.47 2.702 2.702 0 00-.951-.157c-.431 0-.813.082-1.146.245a2.061 2.061 0 00-.843.755c-.222.346-.392.8-.51 1.362-.117.561-.176 1.244-.176 2.048v2.773c0 .64.036 1.205.108 1.695.078.49.193.914.343 1.274.15.352.333.643.549.872.215.228.464.398.744.509.288.105.605.157.951.157.444 0 .833-.085 1.166-.255.333-.17.611-.434.833-.793.229-.366.398-.833.509-1.402.111-.575.167-1.26.167-2.057zM47.415 269.413v14.345h-1.813v-12.082l-3.655 1.333v-1.636l5.183-1.96h.285zm7.623 7.555l-1.45-.373.715-7.104h7.32v1.676h-5.781l-.432 3.88c.262-.15.592-.291.99-.421a4.52 4.52 0 011.392-.196c.66 0 1.25.114 1.773.343.523.222.967.542 1.333.96.372.418.656.921.852 1.509.196.588.294 1.244.294 1.969a6.02 6.02 0 01-.284 1.892 4.267 4.267 0 01-.833 1.509 3.752 3.752 0 01-1.41.989c-.563.235-1.226.353-1.99.353-.575 0-1.12-.078-1.636-.235a4.2 4.2 0 01-1.372-.735 3.979 3.979 0 01-.98-1.235c-.248-.496-.405-1.078-.47-1.744h1.724c.078.536.235.987.47 1.352a2.3 2.3 0 00.922.833c.385.183.832.275 1.342.275a2.75 2.75 0 001.146-.226c.334-.15.614-.366.843-.646a2.89 2.89 0 00.52-1.02c.123-.398.186-.845.186-1.342a4.07 4.07 0 00-.187-1.254 2.861 2.861 0 00-.558-1.009 2.444 2.444 0 00-.892-.667 2.867 2.867 0 00-1.215-.245c-.607 0-1.068.082-1.381.245a5.318 5.318 0 00-.95.667zm17.951-1.48v2.175c0 1.17-.104 2.156-.313 2.959-.21.804-.51 1.451-.902 1.941s-.865.846-1.42 1.068c-.55.215-1.17.323-1.862.323a5.343 5.343 0 01-1.52-.206 3.61 3.61 0 01-1.253-.656 3.983 3.983 0 01-.941-1.196c-.261-.49-.46-1.084-.598-1.783-.137-.699-.206-1.516-.206-2.45v-2.175c0-1.169.105-2.149.314-2.94.216-.79.52-1.424.911-1.901a3.32 3.32 0 011.411-1.038 5.252 5.252 0 011.862-.314 5.38 5.38 0 011.529.206c.47.131.888.343 1.254.637.366.287.676.673.93 1.156.262.477.461 1.062.599 1.754.137.693.205 1.506.205 2.44zm-1.822 2.469v-2.773c0-.64-.04-1.202-.118-1.685a5.289 5.289 0 00-.323-1.254 2.469 2.469 0 00-.549-.843 1.931 1.931 0 00-.755-.47 2.7 2.7 0 00-.95-.157c-.431 0-.813.081-1.146.245a2.063 2.063 0 00-.843.754c-.222.346-.392.8-.51 1.362-.117.562-.176 1.245-.176 2.048v2.773c0 .64.036 1.205.108 1.695.078.49.192.915.343 1.274.15.353.333.644.548.872.216.229.464.399.745.51.288.104.604.157.95.157.445 0 .834-.085 1.167-.255.333-.17.61-.435.833-.794.228-.366.398-.833.51-1.401.11-.575.166-1.261.166-2.058zm13.11-2.469v2.175c0 1.17-.104 2.156-.313 2.959-.21.804-.51 1.451-.902 1.941s-.865.846-1.42 1.068c-.55.215-1.17.323-1.862.323a5.343 5.343 0 01-1.519-.206 3.61 3.61 0 01-1.254-.656 3.983 3.983 0 01-.94-1.196c-.262-.49-.461-1.084-.599-1.783-.137-.699-.205-1.516-.205-2.45v-2.175c0-1.169.104-2.149.313-2.94.216-.79.52-1.424.911-1.901a3.32 3.32 0 011.411-1.038 5.252 5.252 0 011.862-.314 5.38 5.38 0 011.529.206c.47.131.888.343 1.254.637.366.287.676.673.93 1.156.262.477.461 1.062.599 1.754.137.693.205 1.506.205 2.44zm-1.822 2.469v-2.773c0-.64-.04-1.202-.118-1.685a5.289 5.289 0 00-.323-1.254 2.47 2.47 0 00-.549-.843 1.931 1.931 0 00-.754-.47 2.7 2.7 0 00-.95-.157c-.432 0-.814.081-1.147.245a2.063 2.063 0 00-.843.754c-.222.346-.392.8-.51 1.362-.117.562-.176 1.245-.176 2.048v2.773c0 .64.036 1.205.108 1.695a5.6 5.6 0 00.343 1.274c.15.353.333.644.549.872.215.229.463.399.744.51.288.104.605.157.95.157.445 0 .834-.085 1.167-.255.333-.17.61-.435.833-.794.228-.366.398-.833.51-1.401.11-.575.166-1.261.166-2.058zm13.11-2.469v2.175c0 1.17-.104 2.156-.313 2.959-.21.804-.51 1.451-.902 1.941-.391.49-.865.846-1.42 1.068-.55.215-1.17.323-1.862.323a5.343 5.343 0 01-1.519-.206 3.61 3.61 0 01-1.254-.656 3.983 3.983 0 01-.94-1.196c-.262-.49-.461-1.084-.599-1.783-.137-.699-.205-1.516-.205-2.45v-2.175c0-1.169.104-2.149.313-2.94.216-.79.52-1.424.911-1.901a3.32 3.32 0 011.411-1.038 5.251 5.251 0 011.862-.314 5.38 5.38 0 011.529.206c.47.131.888.343 1.254.637.366.287.676.673.931 1.156.261.477.46 1.062.598 1.754.137.693.206 1.506.206 2.44zm-1.822 2.469v-2.773c0-.64-.04-1.202-.118-1.685a5.289 5.289 0 00-.323-1.254 2.47 2.47 0 00-.549-.843 1.931 1.931 0 00-.754-.47 2.7 2.7 0 00-.95-.157c-.432 0-.814.081-1.147.245a2.063 2.063 0 00-.843.754c-.222.346-.392.8-.51 1.362-.117.562-.176 1.245-.176 2.048v2.773c0 .64.036 1.205.108 1.695a5.6 5.6 0 00.343 1.274c.15.353.333.644.549.872.215.229.463.399.744.51.288.104.605.157.95.157.445 0 .834-.085 1.167-.255.333-.17.61-.435.833-.794.228-.366.398-.833.51-1.401.11-.575.166-1.261.166-2.058zm13.111-2.469v2.175c0 1.17-.105 2.156-.314 2.959-.209.804-.51 1.451-.901 1.941-.392.49-.866.846-1.421 1.068-.549.215-1.17.323-1.862.323a5.344 5.344 0 01-1.519-.206 3.608 3.608 0 01-1.254-.656 3.983 3.983 0 01-.94-1.196c-.262-.49-.461-1.084-.599-1.783-.137-.699-.205-1.516-.205-2.45v-2.175c0-1.169.104-2.149.313-2.94.216-.79.52-1.424.912-1.901a3.318 3.318 0 011.411-1.038 5.246 5.246 0 011.861-.314 5.38 5.38 0 011.529.206c.47.131.888.343 1.254.637.366.287.676.673.931 1.156.261.477.461 1.062.598 1.754.137.693.206 1.506.206 2.44zm-1.823 2.469v-2.773c0-.64-.039-1.202-.118-1.685a5.237 5.237 0 00-.323-1.254 2.475 2.475 0 00-.549-.843 1.93 1.93 0 00-.754-.47 2.702 2.702 0 00-.951-.157c-.431 0-.813.081-1.146.245a2.066 2.066 0 00-.843.754c-.222.346-.392.8-.51 1.362-.117.562-.176 1.245-.176 2.048v2.773c0 .64.036 1.205.108 1.695a5.6 5.6 0 00.343 1.274c.15.353.333.644.549.872.215.229.464.399.744.51.288.104.605.157.951.157.444 0 .833-.085 1.166-.255.333-.17.611-.435.833-.794.229-.366.398-.833.509-1.401.111-.575.167-1.261.167-2.058zM50.805 169.889v1.49h-9.338v-1.304l4.674-5.203c.575-.64 1.019-1.182 1.333-1.626.32-.451.542-.853.666-1.205.13-.36.196-.726.196-1.098 0-.47-.098-.895-.294-1.274a2.207 2.207 0 00-.843-.921c-.372-.228-.823-.343-1.352-.343-.634 0-1.163.124-1.587.373a2.286 2.286 0 00-.941 1.019c-.21.437-.314.94-.314 1.509h-1.813c0-.804.177-1.539.53-2.205a3.895 3.895 0 011.567-1.587c.693-.399 1.545-.598 2.558-.598.901 0 1.672.16 2.312.48.64.313 1.13.758 1.47 1.333.346.568.52 1.234.52 1.998 0 .419-.072.843-.216 1.274-.137.425-.33.85-.578 1.274a9.827 9.827 0 01-.853 1.254c-.32.412-.663.817-1.029 1.215l-3.821 4.145h7.153zm10.896-6.78v2.175c0 1.169-.104 2.156-.313 2.959-.21.804-.51 1.45-.902 1.94s-.865.846-1.42 1.068c-.55.216-1.17.324-1.862.324a5.343 5.343 0 01-1.52-.206 3.596 3.596 0 01-1.253-.657 3.978 3.978 0 01-.941-1.195c-.261-.49-.46-1.084-.598-1.783-.137-.699-.206-1.516-.206-2.45v-2.175c0-1.17.105-2.15.314-2.94.215-.79.52-1.424.911-1.901a3.32 3.32 0 011.411-1.039c.555-.209 1.176-.313 1.862-.313a5.35 5.35 0 011.529.206c.47.13.888.343 1.254.636.366.288.676.673.93 1.157.262.477.461 1.061.598 1.754.138.692.206 1.505.206 2.44zm-1.822 2.469v-2.773c0-.64-.04-1.202-.118-1.686a5.289 5.289 0 00-.323-1.254 2.474 2.474 0 00-.55-.842 1.934 1.934 0 00-.754-.471 2.723 2.723 0 00-.95-.157c-.431 0-.813.082-1.146.245a2.065 2.065 0 00-.843.755c-.222.346-.392.8-.51 1.362-.117.562-.176 1.244-.176 2.048v2.773c0 .64.036 1.205.108 1.695.078.49.192.915.343 1.274.15.353.333.643.548.872.216.229.464.398.745.509.288.105.604.157.95.157.445 0 .833-.085 1.167-.255.333-.169.61-.434.833-.793.228-.366.398-.833.509-1.401.111-.575.167-1.261.167-2.058zm13.11-2.469v2.175c0 1.169-.104 2.156-.313 2.959-.21.804-.51 1.45-.902 1.94s-.865.846-1.42 1.068c-.55.216-1.17.324-1.862.324a5.343 5.343 0 01-1.52-.206 3.596 3.596 0 01-1.253-.657 3.978 3.978 0 01-.941-1.195c-.261-.49-.46-1.084-.598-1.783-.137-.699-.206-1.516-.206-2.45v-2.175c0-1.17.105-2.15.314-2.94.216-.79.52-1.424.911-1.901.392-.483.863-.83 1.411-1.039.556-.209 1.176-.313 1.862-.313a5.35 5.35 0 011.529.206c.47.13.888.343 1.254.636.366.288.676.673.93 1.157.262.477.461 1.061.599 1.754.137.692.205 1.505.205 2.44zm-1.822 2.469v-2.773c0-.64-.04-1.202-.118-1.686a5.289 5.289 0 00-.323-1.254 2.474 2.474 0 00-.549-.842 1.934 1.934 0 00-.755-.471 2.723 2.723 0 00-.95-.157c-.431 0-.813.082-1.146.245a2.065 2.065 0 00-.843.755c-.222.346-.392.8-.51 1.362-.117.562-.176 1.244-.176 2.048v2.773c0 .64.036 1.205.108 1.695.078.49.192.915.343 1.274.15.353.333.643.548.872.216.229.464.398.745.509.288.105.604.157.95.157.445 0 .834-.085 1.167-.255.333-.169.61-.434.833-.793.228-.366.398-.833.51-1.401.11-.575.166-1.261.166-2.058zm13.11-2.469v2.175c0 1.169-.104 2.156-.313 2.959-.21.804-.51 1.45-.902 1.94s-.865.846-1.42 1.068c-.55.216-1.17.324-1.862.324a5.343 5.343 0 01-1.519-.206 3.596 3.596 0 01-1.254-.657 3.978 3.978 0 01-.94-1.195c-.262-.49-.461-1.084-.599-1.783-.137-.699-.205-1.516-.205-2.45v-2.175c0-1.17.104-2.15.313-2.94.216-.79.52-1.424.911-1.901.392-.483.863-.83 1.411-1.039.556-.209 1.176-.313 1.862-.313a5.35 5.35 0 011.529.206c.47.13.888.343 1.254.636.366.288.676.673.93 1.157.262.477.461 1.061.599 1.754.137.692.205 1.505.205 2.44zm-1.822 2.469v-2.773c0-.64-.04-1.202-.118-1.686a5.289 5.289 0 00-.323-1.254 2.475 2.475 0 00-.549-.842 1.934 1.934 0 00-.754-.471 2.723 2.723 0 00-.95-.157c-.432 0-.814.082-1.147.245a2.065 2.065 0 00-.843.755c-.222.346-.392.8-.51 1.362-.117.562-.176 1.244-.176 2.048v2.773c0 .64.036 1.205.108 1.695a5.6 5.6 0 00.343 1.274c.15.353.333.643.549.872.215.229.463.398.744.509.288.105.605.157.95.157.445 0 .834-.085 1.167-.255.333-.169.61-.434.833-.793.228-.366.398-.833.51-1.401.11-.575.166-1.261.166-2.058zm13.11-2.469v2.175c0 1.169-.104 2.156-.313 2.959-.21.804-.51 1.45-.902 1.94-.391.49-.865.846-1.42 1.068-.55.216-1.17.324-1.862.324a5.343 5.343 0 01-1.519-.206 3.596 3.596 0 01-1.254-.657 3.978 3.978 0 01-.94-1.195c-.262-.49-.461-1.084-.599-1.783-.137-.699-.205-1.516-.205-2.45v-2.175c0-1.17.104-2.15.313-2.94.216-.79.52-1.424.911-1.901.392-.483.863-.83 1.411-1.039.556-.209 1.176-.313 1.862-.313a5.35 5.35 0 011.529.206c.47.13.888.343 1.254.636.366.288.676.673.931 1.157.261.477.46 1.061.598 1.754.137.692.206 1.505.206 2.44zm-1.822 2.469v-2.773c0-.64-.04-1.202-.118-1.686a5.289 5.289 0 00-.323-1.254 2.475 2.475 0 00-.549-.842 1.934 1.934 0 00-.754-.471 2.723 2.723 0 00-.95-.157c-.432 0-.814.082-1.147.245a2.065 2.065 0 00-.843.755c-.222.346-.392.8-.51 1.362-.117.562-.176 1.244-.176 2.048v2.773c0 .64.036 1.205.108 1.695a5.6 5.6 0 00.343 1.274c.15.353.333.643.549.872.215.229.463.398.744.509.288.105.605.157.95.157.445 0 .834-.085 1.167-.255.333-.169.61-.434.833-.793.228-.366.398-.833.51-1.401.11-.575.166-1.261.166-2.058zm13.111-2.469v2.175c0 1.169-.105 2.156-.314 2.959-.209.804-.51 1.45-.901 1.94-.392.49-.866.846-1.421 1.068-.549.216-1.17.324-1.862.324a5.344 5.344 0 01-1.519-.206 3.593 3.593 0 01-1.254-.657 3.978 3.978 0 01-.94-1.195c-.262-.49-.461-1.084-.599-1.783-.137-.699-.205-1.516-.205-2.45v-2.175c0-1.17.104-2.15.313-2.94.216-.79.52-1.424.912-1.901a3.32 3.32 0 011.411-1.039c.555-.209 1.175-.313 1.861-.313.556 0 1.065.068 1.529.206.47.13.888.343 1.254.636.366.288.676.673.931 1.157.261.477.461 1.061.598 1.754.137.692.206 1.505.206 2.44zm-1.823 2.469v-2.773c0-.64-.039-1.202-.118-1.686a5.237 5.237 0 00-.323-1.254 2.48 2.48 0 00-.549-.842 1.932 1.932 0 00-.754-.471 2.725 2.725 0 00-.951-.157c-.431 0-.813.082-1.146.245a2.069 2.069 0 00-.843.755c-.222.346-.392.8-.51 1.362-.117.562-.176 1.244-.176 2.048v2.773c0 .64.036 1.205.108 1.695a5.6 5.6 0 00.343 1.274c.15.353.333.643.549.872.215.229.464.398.744.509.288.105.605.157.951.157.444 0 .833-.085 1.166-.255.333-.169.611-.434.833-.793.229-.366.398-.833.509-1.401.111-.575.167-1.261.167-2.058zM50.805 57.51V59h-9.338v-1.303l4.674-5.203a18.757 18.757 0 001.333-1.627c.32-.45.542-.852.666-1.205.13-.36.196-.725.196-1.098 0-.47-.098-.895-.294-1.273a2.202 2.202 0 00-.843-.921c-.372-.23-.823-.343-1.352-.343-.634 0-1.163.124-1.587.372a2.292 2.292 0 00-.941 1.019c-.21.438-.314.94-.314 1.509h-1.813c0-.804.177-1.538.53-2.205a3.9 3.9 0 011.567-1.587c.693-.399 1.545-.598 2.558-.598.901 0 1.672.16 2.312.48.64.314 1.13.758 1.47 1.333.346.568.52 1.234.52 1.999 0 .418-.072.843-.216 1.274a6.46 6.46 0 01-.578 1.274 9.893 9.893 0 01-.853 1.254c-.32.411-.663.816-1.029 1.215l-3.821 4.145h7.153zm4.233-5.3l-1.45-.373.715-7.104h7.32v1.676h-5.781l-.432 3.88c.262-.15.592-.29.99-.421a4.521 4.521 0 011.392-.196c.66 0 1.25.114 1.773.343.523.222.967.542 1.333.96.372.418.656.92.852 1.509.196.588.294 1.244.294 1.97 0 .685-.095 1.316-.284 1.89a4.253 4.253 0 01-.833 1.51 3.748 3.748 0 01-1.41.99c-.563.234-1.226.352-1.99.352a5.6 5.6 0 01-1.636-.235 4.213 4.213 0 01-1.372-.735 3.98 3.98 0 01-.98-1.235c-.248-.496-.405-1.078-.47-1.744h1.724c.078.536.235.986.47 1.352.236.366.543.644.922.833.385.183.832.275 1.342.275.431 0 .813-.076 1.146-.226a2.28 2.28 0 00.843-.647c.229-.28.402-.62.52-1.019a4.54 4.54 0 00.186-1.342c0-.45-.063-.869-.187-1.254a2.871 2.871 0 00-.558-1.01 2.446 2.446 0 00-.892-.666 2.863 2.863 0 00-1.215-.245c-.607 0-1.068.082-1.381.245a5.281 5.281 0 00-.95.666zm17.951-1.48v2.175c0 1.17-.104 2.156-.313 2.96-.21.803-.51 1.45-.902 1.94a3.43 3.43 0 01-1.42 1.068c-.55.215-1.17.323-1.862.323a5.336 5.336 0 01-1.52-.206 3.606 3.606 0 01-1.253-.656 3.98 3.98 0 01-.941-1.196c-.261-.49-.46-1.084-.598-1.783-.137-.7-.206-1.516-.206-2.45V50.73c0-1.17.105-2.15.314-2.94.216-.79.52-1.424.911-1.9.392-.484.863-.83 1.411-1.04a5.278 5.278 0 011.862-.313c.555 0 1.065.069 1.529.206.47.13.888.343 1.254.637.366.287.676.673.93 1.156.262.477.461 1.062.599 1.754.137.693.205 1.506.205 2.44zm-1.822 2.47v-2.774c0-.64-.04-1.202-.118-1.685a5.295 5.295 0 00-.323-1.255 2.481 2.481 0 00-.549-.842 1.938 1.938 0 00-.755-.47 2.711 2.711 0 00-.95-.157c-.431 0-.813.081-1.146.245a2.061 2.061 0 00-.843.754c-.222.346-.392.8-.51 1.362-.117.562-.176 1.245-.176 2.048V53.2c0 .64.036 1.205.108 1.695.078.49.192.915.343 1.274.15.353.333.644.548.872.216.229.464.399.745.51.288.104.604.157.95.157.445 0 .834-.085 1.167-.255.333-.17.61-.435.833-.794.228-.366.398-.833.51-1.401.11-.575.166-1.26.166-2.058zm13.11-2.47v2.175c0 1.17-.104 2.156-.313 2.96-.21.803-.51 1.45-.902 1.94a3.43 3.43 0 01-1.42 1.068c-.55.215-1.17.323-1.862.323a5.336 5.336 0 01-1.519-.206 3.606 3.606 0 01-1.254-.656 3.98 3.98 0 01-.94-1.196c-.262-.49-.461-1.084-.599-1.783-.137-.7-.205-1.516-.205-2.45V50.73c0-1.17.104-2.15.313-2.94.216-.79.52-1.424.911-1.9.392-.484.863-.83 1.411-1.04a5.278 5.278 0 011.862-.313c.555 0 1.065.069 1.529.206.47.13.888.343 1.254.637.366.287.676.673.93 1.156.262.477.461 1.062.599 1.754.137.693.205 1.506.205 2.44zm-1.822 2.47v-2.774c0-.64-.04-1.202-.118-1.685a5.295 5.295 0 00-.323-1.255 2.482 2.482 0 00-.549-.842 1.938 1.938 0 00-.754-.47 2.711 2.711 0 00-.95-.157c-.432 0-.814.081-1.147.245a2.061 2.061 0 00-.843.754c-.222.346-.392.8-.51 1.362-.117.562-.176 1.245-.176 2.048V53.2c0 .64.036 1.205.108 1.695a5.6 5.6 0 00.343 1.274c.15.353.333.644.549.872.215.229.463.399.744.51.288.104.605.157.95.157.445 0 .834-.085 1.167-.255.333-.17.61-.435.833-.794.228-.366.398-.833.51-1.401.11-.575.166-1.26.166-2.058zm13.11-2.47v2.175c0 1.17-.104 2.156-.313 2.96-.21.803-.51 1.45-.902 1.94a3.43 3.43 0 01-1.42 1.068c-.55.215-1.17.323-1.862.323a5.336 5.336 0 01-1.519-.206 3.606 3.606 0 01-1.254-.656 3.98 3.98 0 01-.94-1.196c-.262-.49-.461-1.084-.599-1.783-.137-.7-.205-1.516-.205-2.45V50.73c0-1.17.104-2.15.313-2.94.216-.79.52-1.424.911-1.9.392-.484.863-.83 1.411-1.04a5.278 5.278 0 011.862-.313c.555 0 1.065.069 1.529.206.47.13.888.343 1.254.637.366.287.676.673.931 1.156.261.477.46 1.062.598 1.754.137.693.206 1.506.206 2.44zm-1.822 2.47v-2.774c0-.64-.04-1.202-.118-1.685a5.295 5.295 0 00-.323-1.255 2.482 2.482 0 00-.549-.842 1.938 1.938 0 00-.754-.47 2.711 2.711 0 00-.95-.157c-.432 0-.814.081-1.147.245a2.061 2.061 0 00-.843.754c-.222.346-.392.8-.51 1.362-.117.562-.176 1.245-.176 2.048V53.2c0 .64.036 1.205.108 1.695a5.6 5.6 0 00.343 1.274c.15.353.333.644.549.872.215.229.463.399.744.51.288.104.605.157.95.157.445 0 .834-.085 1.167-.255.333-.17.61-.435.833-.794.228-.366.398-.833.51-1.401.11-.575.166-1.26.166-2.058zm13.111-2.47v2.175c0 1.17-.105 2.156-.314 2.96-.209.803-.51 1.45-.901 1.94-.392.49-.866.846-1.421 1.068-.549.215-1.17.323-1.862.323a5.337 5.337 0 01-1.519-.206 3.604 3.604 0 01-1.254-.656 3.98 3.98 0 01-.94-1.196c-.262-.49-.461-1.084-.599-1.783-.137-.7-.205-1.516-.205-2.45V50.73c0-1.17.104-2.15.313-2.94.216-.79.52-1.424.912-1.9.392-.484.862-.83 1.411-1.04a5.268 5.268 0 011.861-.313 5.38 5.38 0 011.529.206c.47.13.888.343 1.254.637.366.287.676.673.931 1.156.261.477.461 1.062.598 1.754.137.693.206 1.506.206 2.44zm-1.823 2.47v-2.774c0-.64-.039-1.202-.118-1.685a5.244 5.244 0 00-.323-1.255 2.487 2.487 0 00-.549-.842 1.936 1.936 0 00-.754-.47 2.714 2.714 0 00-.951-.157 2.57 2.57 0 00-1.146.245 2.064 2.064 0 00-.843.754c-.222.346-.392.8-.51 1.362-.117.562-.176 1.245-.176 2.048V53.2c0 .64.036 1.205.108 1.695a5.6 5.6 0 00.343 1.274c.15.353.333.644.549.872.215.229.464.399.744.51.288.104.605.157.951.157.444 0 .833-.085 1.166-.255.333-.17.611-.435.833-.794.229-.366.398-.833.509-1.401.111-.575.167-1.26.167-2.058z" fill="#5E5E5E"/><path d="M139.233 611.634s54.905-8.027 91.509-13.18c36.603-5.152 54.905-4.174 91.509-12.584 36.603-8.409 54.905-10.951 91.508-29.463 36.604-18.511 54.906-41.018 91.509-63.094 36.604-22.075 54.906-29.773 91.509-47.282 36.604-17.508 54.905-20.836 91.509-40.26s54.905-56.86 91.509-56.86c36.603 0 54.905 7.957 91.509 21.257 36.603 13.301 54.905 45.246 91.509 45.246 36.603 0 91.507-261.949 91.507-261.949" stroke="#60B3A3" stroke-width="4.014"/><path d="M139.233 619.957a8.024 8.024 0 01-8.027-8.025 8.023 8.023 0 018.023-8.029 8.027 8.027 0 01.012 16.054h-.008zm90.304-14.047a8.027 8.027 0 11-.014-16.054 8.027 8.027 0 01.022 16.054h-.008zm92.313-12.041a8.024 8.024 0 01-8.027-8.025 8.023 8.023 0 018.023-8.029 8.027 8.027 0 01.012 16.054h-.008zm90.305-30.101a8.027 8.027 0 11-.014-16.054 8.027 8.027 0 01.022 16.054h-.008zm92.312-62.211a8.029 8.029 0 01-5.679-13.701 8.028 8.028 0 0111.36 11.345 8.026 8.026 0 01-5.673 2.356h-.008zm92.31-48.162a8.029 8.029 0 01-5.679-13.701 8.024 8.024 0 0111.351-.005 8.029 8.029 0 01.009 11.35 8.026 8.026 0 01-5.673 2.356h-.008zm90.305-40.136a8.026 8.026 0 11-.017-16.052 8.026 8.026 0 01.025 16.052h-.008zm92.312-56.189a8.029 8.029 0 01-5.679-13.701 8.027 8.027 0 115.687 13.701h-.008zm90.305 22.074a8.024 8.024 0 01-8.027-8.025 8.023 8.023 0 018.023-8.029 8.027 8.027 0 01.012 16.054h-.008zm92.311 44.149a8.028 8.028 0 11.009 0h-.009zm92.31-260.88c-2.13 0-4.17-.845-5.67-2.35a8.055 8.055 0 01-2.36-5.675c0-2.129.85-4.17 2.35-5.676a8.046 8.046 0 015.68-2.353 8 8 0 015.67 2.347 8.01 8.01 0 012.36 5.674 8.01 8.01 0 01-2.35 5.677 8.012 8.012 0 01-5.67 2.356h-.01z" fill="#60B3A3"/><rect x=".5" y=".5" width="1119" height="709" rx="19.5" stroke="#60B3A3"/></svg>