<svg width="32" height="32" viewBox="0 0 32 32" fill="none" xmlns="http://www.w3.org/2000/svg"><path fill-rule="evenodd" clip-rule="evenodd" d="M5.551 2.425c-.218.428-.218.988-.218 2.108v22.934c0 1.12 0 1.68.218 2.108a2 2 0 00.874.874c.428.218.988.218 2.108.218h14.934c1.12 0 1.68 0 2.108-.218a2 2 0 00.874-.874c.218-.428.218-.988.218-2.108v-16.8h-6.134c-1.12 0-1.68 0-2.108-.218a2 2 0 01-.874-.874c-.218-.428-.218-.988-.218-2.108V1.333h-8.8c-1.12 0-1.68 0-2.108.218a2 2 0 00-.874.874zM10.667 15.1a.9.9 0 000 1.8h10.666a.9.9 0 000-1.8H10.667zm-.9 5.567a.9.9 0 01.9-.9h10.666a.9.9 0 010 1.8H10.667a.9.9 0 01-.9-.9zm.9 3.766a.9.9 0 100 1.8H16a.9.9 0 000-1.8h-5.333z" fill="#60B3A3"/><path opacity=".5" d="M17.333 7.467V1.333l9.334 9.334h-6.134c-1.12 0-1.68 0-2.108-.218a2 2 0 01-.874-.874c-.218-.428-.218-.988-.218-2.108z" fill="#60B3A3"/></svg>