<svg width="14" height="28" viewBox="0 0 14 28" fill="none" xmlns="http://www.w3.org/2000/svg">
<path d="M1.74063 0.820055L13.1865 13.1858C13.3875 13.403 13.5 13.6944 13.5 13.9977C13.5 14.301 13.3875 14.5923 13.1865 14.8095L1.74063 27.1799C1.64698 27.2812 1.53502 27.3617 1.41135 27.4167C1.28768 27.4717 1.1548 27.5 1.02057 27.5C0.886333 27.5 0.753457 27.4717 0.629785 27.4167C0.506113 27.3617 0.394153 27.2812 0.30051 27.1799C0.107856 26.9722 0 26.6934 0 26.403C0 26.1126 0.107856 25.8338 0.30051 25.6261L11.0638 13.9977L0.30051 2.37159C0.108517 2.16398 0.0010785 1.88563 0.0010785 1.59582C0.0010785 1.30602 0.108517 1.02767 0.30051 0.820055C0.394153 0.718766 0.506113 0.638261 0.629785 0.583291C0.753457 0.528321 0.886333 0.5 1.02057 0.5C1.1548 0.5 1.28768 0.528321 1.41135 0.583291C1.53502 0.638261 1.64698 0.718766 1.74063 0.820055Z" fill="#60B3A3"/>
</svg>
