<svg width="20" height="20" viewBox="0 0 20 20" fill="none" xmlns="http://www.w3.org/2000/svg"><path d="M14.117 13.68l-.619.928c-.123.185-.287.343-.502.4-.705.187-2.576.27-5.425-2.579C4.72 9.58 4.805 7.71 4.99 7.004c.058-.215.216-.379.4-.502l.929-.619c.69-.46.877-1.394.417-2.085L4.984 1.17A1.503 1.503 0 003.141.622l-.79.339A2.763 2.763 0 00.968 2.264c-.244.488-.433 1.003-.46 1.548C.429 5.53.806 9.764 5.522 14.48c4.715 4.715 8.949 5.092 10.667 5.011.545-.026 1.06-.215 1.548-.459a2.763 2.763 0 001.303-1.383l.34-.79a1.503 1.503 0 00-.549-1.843l-2.628-1.753a1.503 1.503 0 00-2.085.417z" fill="#60B3A3"/></svg>