<svg width="20" height="20" viewBox="0 0 20 20" fill="none" xmlns="http://www.w3.org/2000/svg">
<path d="M14.1169 13.6803L13.4983 14.6082C13.3748 14.7934 13.2115 14.9514 12.9963 15.0083C12.2914 15.1946 10.4199 15.2787 7.5706 12.4294C4.72133 9.58015 4.80542 7.70865 4.99169 7.00372C5.04855 6.78851 5.20659 6.62521 5.3918 6.50174L6.3197 5.88314C7.01054 5.42258 7.19722 4.48919 6.73666 3.79834L4.98417 1.16961C4.58217 0.566613 3.8072 0.336235 3.14108 0.621714L2.35053 0.960522C1.74997 1.2179 1.26009 1.67982 0.967888 2.26422C0.723764 2.75247 0.53455 3.26662 0.508914 3.8119C0.428123 5.53027 0.804918 9.76384 5.52055 14.4795C10.2362 19.1951 14.4697 19.5719 16.1881 19.4911C16.7334 19.4654 17.2475 19.2762 17.7358 19.0321C18.3202 18.7399 18.7821 18.25 19.0395 17.6495L19.3783 16.8589C19.6638 16.1928 19.4334 15.4178 18.8304 15.0158L16.2017 13.2633C15.5108 12.8028 14.5774 12.9895 14.1169 13.6803Z" fill="#60B3A3"/>
</svg>
