<svg width="22" height="16" viewBox="0 0 22 16" fill="none" xmlns="http://www.w3.org/2000/svg">
<path fill-rule="evenodd" clip-rule="evenodd" d="M19.5458 0H2.45416C1.37491 0 0.5 0.874909 0.5 1.95416C0.5 2.60754 0.826544 3.2177 1.37019 3.58013L2.55525 4.37016L9.3359 8.8906C9.46186 8.97457 9.59259 9.04805 9.7269 9.11103C10.667 9.5519 11.7824 9.47842 12.6641 8.8906L19.4448 4.37016L20.6298 3.58013C21.1735 3.2177 21.5 2.60754 21.5 1.95416C21.5 0.874909 20.6251 0 19.5458 0ZM1 7C1 6.79122 1.02133 6.58741 1.06192 6.39065C1.17644 5.83563 1.83417 5.69222 2.30571 6.00658L8.50385 10.1387C10.0154 11.1464 11.9846 11.1464 13.4962 10.1387L19.6943 6.00658C20.1658 5.69222 20.8236 5.83563 20.9381 6.39065C20.9787 6.58741 21 6.79122 21 7V14C21 15.1046 20.1046 16 19 16H3C1.89543 16 1 15.1046 1 14V7Z" fill="#60B3A3"/>
</svg>
