<svg width="32" height="32" viewBox="0 0 32 32" fill="none" xmlns="http://www.w3.org/2000/svg">
<path fill-rule="evenodd" clip-rule="evenodd" d="M5.55124 2.42527C5.33325 2.85309 5.33325 3.41315 5.33325 4.53325V27.4666C5.33325 28.5867 5.33325 29.1467 5.55124 29.5746C5.74299 29.9509 6.04895 30.2568 6.42527 30.4486C6.85309 30.6666 7.41315 30.6666 8.53326 30.6666H23.4666C24.5867 30.6666 25.1467 30.6666 25.5746 30.4486C25.9509 30.2568 26.2568 29.9509 26.4486 29.5746C26.6666 29.1467 26.6666 28.5867 26.6666 27.4666V10.6666H20.5333C19.4131 10.6666 18.8531 10.6666 18.4253 10.4486C18.0489 10.2569 17.743 9.95089 17.5512 9.57457C17.3333 9.14674 17.3333 8.58669 17.3333 7.46659V1.33325H8.53325C7.41315 1.33325 6.85309 1.33325 6.42527 1.55124C6.04895 1.74299 5.74299 2.04895 5.55124 2.42527ZM10.6666 15.0999C10.1695 15.0999 9.76659 15.5029 9.76659 15.9999C9.76659 16.497 10.1695 16.8999 10.6666 16.8999H21.3333C21.8303 16.8999 22.2333 16.497 22.2333 15.9999C22.2333 15.5029 21.8303 15.0999 21.3333 15.0999H10.6666ZM9.76659 20.6666C9.76659 20.1695 10.1695 19.7666 10.6666 19.7666H21.3333C21.8303 19.7666 22.2333 20.1695 22.2333 20.6666C22.2333 21.1636 21.8303 21.5666 21.3333 21.5666H10.6666C10.1695 21.5666 9.76659 21.1636 9.76659 20.6666ZM10.6666 24.4333C10.1695 24.4333 9.76659 24.8362 9.76659 25.3333C9.76659 25.8303 10.1695 26.2333 10.6666 26.2333H15.9999C16.497 26.2333 16.8999 25.8303 16.8999 25.3333C16.8999 24.8362 16.497 24.4333 15.9999 24.4333H10.6666Z" fill="#60B3A3"/>
<path opacity="0.5" d="M17.3333 7.46659V1.33325L26.6666 10.6666H20.5333C19.4131 10.6666 18.8531 10.6666 18.4253 10.4486C18.0489 10.2569 17.743 9.95089 17.5512 9.57457C17.3333 9.14674 17.3333 8.58669 17.3333 7.46659Z" fill="#60B3A3"/>
</svg>
