<svg width="40" height="40" viewBox="0 0 40 40" fill="none" xmlns="http://www.w3.org/2000/svg">
<path fill-rule="evenodd" clip-rule="evenodd" d="M28.4853 11.5146C28.6728 11.7021 28.7782 11.9565 28.7782 12.2217C28.7782 12.4869 28.6728 12.7413 28.4853 12.9288L21.4142 19.9999L28.4853 27.0709C28.6728 27.2585 28.7782 27.5128 28.7782 27.778C28.7782 28.0433 28.6728 28.2976 28.4853 28.4851C28.2977 28.6727 28.0434 28.778 27.7782 28.778C27.513 28.778 27.2586 28.6727 27.0711 28.4851L20 21.4141L12.9289 28.4851C12.7414 28.6727 12.487 28.778 12.2218 28.778C11.9566 28.778 11.7023 28.6727 11.5147 28.4851C11.3272 28.2976 11.2218 28.0433 11.2218 27.778C11.2218 27.5128 11.3272 27.2585 11.5147 27.0709L18.5858 19.9999L11.5147 12.9288C11.3272 12.7413 11.2218 12.4869 11.2218 12.2217C11.2218 11.9565 11.3272 11.7021 11.5147 11.5146C11.7023 11.327 11.9566 11.2217 12.2218 11.2217C12.487 11.2217 12.7414 11.327 12.9289 11.5146L20 18.5856L27.0711 11.5146C27.2586 11.327 27.513 11.2217 27.7782 11.2217C28.0434 11.2217 28.2977 11.327 28.4853 11.5146Z" fill="#60B3A3"/>
</svg>
