<svg width="40" height="40" viewBox="0 0 40 40" fill="none" xmlns="http://www.w3.org/2000/svg">
<path fill-rule="evenodd" clip-rule="evenodd" d="M20 7.99976C20.2652 7.99976 20.5196 8.10511 20.7071 8.29265C20.8946 8.48019 21 8.73454 21 8.99976V18.9998H31C31.2652 18.9998 31.5196 19.1051 31.7071 19.2926C31.8946 19.4802 32 19.7345 32 19.9998C32 20.265 31.8946 20.5193 31.7071 20.7069C31.5196 20.8944 31.2652 20.9998 31 20.9998H21V30.9998C21 31.265 20.8946 31.5193 20.7071 31.7069C20.5196 31.8944 20.2652 31.9998 20 31.9998C19.7348 31.9998 19.4804 31.8944 19.2929 31.7069C19.1054 31.5193 19 31.265 19 30.9998V20.9998H9C8.73478 20.9998 8.48043 20.8944 8.29289 20.7069C8.10536 20.5193 8 20.265 8 19.9998C8 19.7345 8.10536 19.4802 8.29289 19.2926C8.48043 19.1051 8.73478 18.9998 9 18.9998H19V8.99976C19 8.73454 19.1054 8.48019 19.2929 8.29265C19.4804 8.10511 19.7348 7.99976 20 7.99976Z" fill="#60B3A3"/>
</svg>
