<svg width="272" height="246" viewBox="0 0 272 246" fill="none" xmlns="http://www.w3.org/2000/svg"><path d="M8.602 15.445V17h-6.04v-1.555h6.04zm-5.485-9.82V17h-1.96V5.625h1.96zm4.696 4.75v1.531h-5.25v-1.531h5.25zm.75-4.75v1.563h-6V5.625h6zm5.562 7.758h-2.703l-.016-1.328h2.219c.365 0 .664-.037.898-.11.24-.073.417-.182.532-.328a.879.879 0 00.172-.547.986.986 0 00-.102-.46.788.788 0 00-.313-.329 1.366 1.366 0 00-.515-.187 3.569 3.569 0 00-.711-.063h-1.54V17h-1.882V8.547h3.422a6.92 6.92 0 011.46.14c.438.094.81.237 1.118.43.307.193.542.438.703.735.167.291.25.635.25 1.03 0 .261-.057.506-.172.735-.11.23-.273.432-.492.61a2.752 2.752 0 01-.805.437c-.317.11-.682.177-1.093.203l-.43.516zm0 3.617h-3.25l.75-1.484h2.5c.333 0 .61-.042.828-.125a.976.976 0 00.485-.36.992.992 0 00.164-.57c0-.224-.053-.417-.157-.578a.96.96 0 00-.484-.367c-.214-.089-.492-.133-.836-.133h-2.148l.015-1.328h2.555l.539.515c.536.037.982.151 1.336.344.354.193.62.435.797.727a1.8 1.8 0 01.265.953c0 .396-.075.745-.226 1.047a1.946 1.946 0 01-.656.757 3.21 3.21 0 01-1.055.454c-.417.099-.89.148-1.422.148zm10.61-8.453v1.5h-3.688V17h-1.883V8.547h5.57zm4.663 8.61c-.625 0-1.19-.102-1.695-.305a3.743 3.743 0 01-1.281-.868 3.844 3.844 0 01-.805-1.304 4.569 4.569 0 01-.281-1.617v-.313c0-.662.096-1.26.289-1.797.193-.536.46-.995.805-1.375a3.46 3.46 0 011.218-.883 3.79 3.79 0 011.524-.304c.604 0 1.133.101 1.586.304.453.203.828.49 1.125.86.302.364.526.8.672 1.304.15.506.226 1.063.226 1.672v.805H26.25v-1.352h4.672v-.148a2.644 2.644 0 00-.203-.953 1.62 1.62 0 00-.555-.719c-.25-.182-.583-.273-1-.273-.312 0-.591.067-.836.203-.24.13-.44.32-.601.57a3 3 0 00-.375.906 5.09 5.09 0 00-.125 1.18v.313c0 .37.049.713.148 1.03.104.313.255.587.453.821.198.234.438.42.719.555.281.13.601.195.96.195.454 0 .858-.091 1.212-.273.354-.183.661-.44.922-.774l.992.961c-.183.266-.42.521-.711.766-.292.24-.649.435-1.07.586-.417.15-.901.226-1.454.226zm10.625-5.079v1.485h-4.375v-1.485h4.375zm-3.828-3.531V17h-1.883V8.547h1.883zm5.188 0V17H39.5V8.547h1.883zm3.953 5.703l3.32-5.703h1.883V17h-1.883v-5.71L45.336 17h-1.883V8.547h1.883v5.703zm9.14 0l3.32-5.703h1.884V17h-1.883v-5.71L54.477 17h-1.883V8.547h1.883v5.703zm2.82-8.953h1.4c0 .432-.105.815-.313 1.148a2.082 2.082 0 01-.875.774c-.375.187-.823.281-1.344.281-.786 0-1.409-.203-1.867-.61-.453-.41-.68-.942-.68-1.593h1.399c0 .292.086.55.257.773.177.22.474.328.891.328.411 0 .703-.109.875-.328.172-.224.258-.481.258-.773zM70.274 7.14L66.875 17H64.82l4.282-11.375h1.312l-.14 1.516zM73.117 17l-3.406-9.86-.148-1.515h1.32L75.18 17h-2.063zm-.164-4.219v1.555h-6.187V12.78h6.187zm8.945-.703v1.485h-4.375v-1.485h4.375zM78.07 8.547V17h-1.882V8.547h1.882zm5.188 0V17h-1.883V8.547h1.883zm6.773 6.758v-4.032c0-.302-.054-.562-.164-.78a1.15 1.15 0 00-.5-.509c-.219-.12-.495-.18-.828-.18-.307 0-.573.053-.797.157a1.288 1.288 0 00-.523.422 1.018 1.018 0 00-.188.601h-1.875c0-.333.081-.656.242-.968a2.59 2.59 0 01.704-.836 3.511 3.511 0 011.101-.578 4.57 4.57 0 011.438-.211c.635 0 1.197.106 1.687.32.495.213.883.536 1.164.969.287.427.43.963.43 1.61v3.757c0 .385.026.732.078 1.039.057.302.138.565.242.789V17h-1.93a3.332 3.332 0 01-.21-.773 6.313 6.313 0 01-.07-.922zm.274-3.446l.015 1.164h-1.35c-.35 0-.656.034-.922.102a1.893 1.893 0 00-.664.281 1.22 1.22 0 00-.399.453 1.326 1.326 0 00-.132.602c0 .224.052.43.156.617.104.182.255.326.453.43.203.104.448.156.734.156.386 0 .722-.078 1.008-.234.292-.162.521-.357.688-.586.166-.235.255-.456.265-.664l.61.836a2.93 2.93 0 01-.32.687c-.152.245-.35.48-.594.703a2.956 2.956 0 01-2.023.75c-.553 0-1.045-.11-1.477-.328a2.625 2.625 0 01-1.016-.898 2.33 2.33 0 01-.367-1.29c0-.447.083-.843.25-1.187.172-.349.422-.64.75-.875a3.63 3.63 0 011.219-.531 6.52 6.52 0 011.64-.188h1.477zm7.382-3.312V17h-1.89V8.547h1.89zm2.774 0v1.484h-7.39V8.547h7.39zm.601 4.32v-.18c0-.609.089-1.174.266-1.695.177-.526.432-.982.766-1.367.338-.39.75-.693 1.234-.906.49-.219 1.042-.328 1.656-.328.62 0 1.172.109 1.657.328.489.213.903.515 1.242.906.338.385.596.841.773 1.367.177.521.266 1.086.266 1.695v.18c0 .61-.089 1.175-.266 1.695a4.069 4.069 0 01-.773 1.368c-.339.385-.75.687-1.235.906-.484.213-1.033.32-1.648.32-.62 0-1.174-.107-1.664-.32a3.58 3.58 0 01-1.234-.906 4.049 4.049 0 01-.774-1.367 5.237 5.237 0 01-.266-1.696zm1.883-.18v.18c0 .38.039.74.117 1.078.079.339.201.636.368.89.166.256.38.457.64.602.261.146.571.22.93.22.349 0 .651-.074.906-.22.261-.145.474-.346.641-.601a2.73 2.73 0 00.367-.89c.083-.34.125-.699.125-1.079v-.18c0-.374-.042-.729-.125-1.062a2.724 2.724 0 00-.375-.898 1.79 1.79 0 00-.641-.61 1.77 1.77 0 00-.914-.226c-.354 0-.661.075-.922.226a1.807 1.807 0 00-.632.61c-.167.26-.289.56-.368.898a4.652 4.652 0 00-.117 1.063zm13.11-4.14v1.5h-4.125v-1.5h4.125zm1.476 0V17h-1.883V8.547h1.883zm-6.062 0h1.859l-.226 4.18a11.58 11.58 0 01-.188 1.64 5.455 5.455 0 01-.359 1.211 2.565 2.565 0 01-.555.813 2.053 2.053 0 01-.766.46 3.048 3.048 0 01-.984.149h-.586l-.008-1.547.297-.023a1.15 1.15 0 00.5-.149c.141-.088.261-.213.359-.375a2.02 2.02 0 00.25-.625c.068-.255.12-.557.157-.906.041-.349.073-.755.093-1.219l.157-3.61zm9.461 2.687h2.492c.729 0 1.349.123 1.859.368.511.244.899.585 1.164 1.023.271.432.407.927.407 1.484 0 .412-.076.795-.227 1.149a2.554 2.554 0 01-.672.914 3.13 3.13 0 01-1.078.61 4.437 4.437 0 01-1.453.218h-3.742V8.547h1.89v6.96h1.852c.375 0 .674-.064.898-.194.224-.13.386-.3.485-.508a1.533 1.533 0 000-1.344 1.199 1.199 0 00-.485-.524c-.224-.135-.523-.203-.898-.203h-2.492v-1.5zm11.156 5.922c-.625 0-1.19-.101-1.695-.304a3.755 3.755 0 01-1.282-.868 3.834 3.834 0 01-.804-1.304 4.558 4.558 0 01-.282-1.617v-.313c0-.662.097-1.26.289-1.797a4.08 4.08 0 01.805-1.375c.344-.385.75-.68 1.219-.883a3.788 3.788 0 011.523-.304c.605 0 1.133.101 1.586.304.453.203.828.49 1.125.86.302.364.526.8.672 1.304.151.506.227 1.063.227 1.672v.805h-6.531v-1.352h4.671v-.148a2.635 2.635 0 00-.203-.953 1.62 1.62 0 00-.554-.719c-.25-.182-.584-.273-1-.273-.313 0-.592.067-.836.203-.24.13-.44.32-.602.57-.161.25-.286.552-.375.906a5.111 5.111 0 00-.125 1.18v.313c0 .37.05.713.148 1.03.105.313.256.587.454.821.198.234.437.42.718.555.282.13.602.195.961.195.453 0 .857-.091 1.211-.273.354-.183.662-.44.922-.774l.992.961a3.847 3.847 0 01-.711.766c-.291.24-.648.435-1.07.586-.417.15-.901.226-1.453.226zm8.961-3.773h-2.703l-.016-1.328h2.219c.364 0 .664-.037.898-.11.24-.073.417-.182.532-.328a.882.882 0 00.171-.547.983.983 0 00-.101-.46.79.79 0 00-.313-.329 1.362 1.362 0 00-.515-.187 3.568 3.568 0 00-.711-.063h-1.539V17h-1.883V8.547h3.422c.541 0 1.028.047 1.461.14.437.094.81.237 1.117.43.307.193.542.438.703.735.167.291.25.635.25 1.03 0 .261-.057.506-.172.735a1.75 1.75 0 01-.492.61 2.754 2.754 0 01-.805.437 4.17 4.17 0 01-1.093.203l-.43.516zm0 3.617h-3.25l.75-1.484h2.5c.333 0 .609-.042.828-.125a.973.973 0 00.484-.36.987.987 0 00.164-.57c0-.224-.052-.417-.156-.578a.957.957 0 00-.484-.367c-.214-.089-.492-.133-.836-.133h-2.149l.016-1.328h2.555l.539.515c.536.037.982.151 1.336.344.354.193.62.435.797.727a1.8 1.8 0 01.265.953c0 .396-.075.745-.226 1.047a1.947 1.947 0 01-.657.757 3.207 3.207 0 01-1.054.454 6.186 6.186 0 01-1.422.148zm6.93-2.75l3.32-5.703h1.883V17h-1.883v-5.71l-3.32 5.71h-1.883V8.547h1.883v5.703zm13.984-5.703V17h-1.883V8.547h1.883zm-.797 3.742v1.492c-.229.1-.487.19-.773.274a8.718 8.718 0 01-.891.195c-.312.047-.628.07-.945.07-.745 0-1.388-.114-1.93-.343a2.629 2.629 0 01-1.242-1.055c-.287-.48-.43-1.086-.43-1.82V8.539h1.875v2.563c0 .421.063.757.188 1.007.13.25.323.43.578.54.255.109.575.164.961.164.323 0 .627-.021.914-.063.286-.047.57-.11.851-.188.282-.078.563-.169.844-.273zm15.961 3.156V17h-8.383v-1.555h8.383zm-7.898 0v4.352h-1.875l-.071-4.352h1.946zm9.414 0l-.118 4.344h-1.843v-4.344h1.961zm-2.891-9.82v1.563h-5.25V5.625h5.25zm1.5 0V17h-1.953V5.625h1.953zm-7.141 0h1.961l-.273 4.61a15.496 15.496 0 01-.227 1.968 11.647 11.647 0 01-.398 1.57 7.363 7.363 0 01-.516 1.22 5.342 5.342 0 01-.617.905A4.758 4.758 0 01168.703 17h-1.047v-1.555h.508c.141-.13.297-.317.469-.562.172-.25.338-.576.5-.977.166-.406.312-.909.437-1.508.125-.598.211-1.32.258-2.164l.281-4.609zm9.907 10.438a1 1 0 01.296-.735c.198-.203.467-.305.805-.305.344 0 .612.102.805.305a.997.997 0 01.297.735.997.997 0 01-.297.734c-.193.198-.461.297-.805.297-.338 0-.607-.1-.805-.297a1 1 0 01-.296-.735z" fill="#222"/><path opacity=".5" d="M5.77 38.603v1.313H2.543V46H.896v-7.397H5.77zm1.025 6.577c0-.255.087-.47.26-.643.173-.178.408-.267.704-.267.3 0 .535.09.704.267.173.173.26.388.26.643s-.087.47-.26.642c-.169.173-.403.26-.704.26-.296 0-.531-.087-.704-.26a.873.873 0 01-.26-.642zm8.176-9.133h1.531l2.878 7.677 2.871-7.677h1.531L19.982 46h-1.217l-3.794-9.953zm-.698 0h1.457l.252 6.644V46h-1.709v-9.953zm8.75 0h1.463V46H22.77v-3.309l.253-6.644zm3.022 6.337v-.157c0-.534.077-1.028.232-1.484.155-.46.379-.859.67-1.196a3.024 3.024 0 011.08-.793 3.516 3.516 0 011.45-.287c.542 0 1.025.096 1.449.287.428.187.79.451 1.087.793.296.337.522.736.677 1.196.154.456.232.95.232 1.484v.157c0 .533-.078 1.027-.232 1.483a3.557 3.557 0 01-.677 1.197 3.136 3.136 0 01-1.08.792 3.54 3.54 0 01-1.443.28 3.607 3.607 0 01-1.456-.28 3.136 3.136 0 01-1.08-.793 3.551 3.551 0 01-.677-1.196 4.582 4.582 0 01-.232-1.483zm1.647-.157v.157c0 .333.035.647.103.943a2.4 2.4 0 00.321.78c.146.223.333.398.56.526.229.127.5.191.814.191.306 0 .57-.064.793-.191.228-.128.415-.303.56-.527.147-.223.254-.483.322-.779.073-.296.11-.61.11-.943v-.157c0-.329-.037-.638-.11-.93a2.387 2.387 0 00-.328-.786 1.57 1.57 0 00-.56-.534 1.543 1.543 0 00-.8-.198c-.31 0-.58.066-.807.198a1.587 1.587 0 00-.554.534 2.47 2.47 0 00-.321.786 4.067 4.067 0 00-.103.93zm9.632 2.597c.27 0 .51-.052.725-.157.219-.11.394-.26.526-.451.137-.192.212-.413.226-.663h1.551a2.31 2.31 0 01-.423 1.305 2.94 2.94 0 01-1.087.937 3.27 3.27 0 01-1.497.342c-.565 0-1.058-.096-1.477-.287a2.92 2.92 0 01-1.046-.807 3.549 3.549 0 01-.629-1.183 4.878 4.878 0 01-.205-1.435v-.24c0-.51.069-.988.205-1.435.142-.451.351-.848.63-1.19a2.854 2.854 0 011.045-.8c.42-.195.91-.293 1.47-.293.592 0 1.112.118 1.559.355.446.233.797.558 1.052.978.26.415.394.898.404 1.449H38.8a1.652 1.652 0 00-.205-.738 1.355 1.355 0 00-.506-.534 1.443 1.443 0 00-.773-.198c-.332 0-.608.069-.827.205a1.38 1.38 0 00-.513.547 2.667 2.667 0 00-.266.773c-.05.282-.075.576-.075.881v.24c0 .305.025.601.075.889.05.287.137.544.26.772.127.223.3.403.52.54.218.132.496.198.833.198zm6.07-6.22V46h-1.647v-7.397h1.648zm4.827 0l-3.33 4.45h-1.88l-.218-1.49h1.374l1.996-2.96h2.058zM46.293 46l-2.228-3.227 1.298-.936L48.46 46h-2.167zm6.658-3.165h-2.365l-.014-1.162h1.942c.319 0 .58-.032.786-.096.21-.064.364-.16.465-.287a.77.77 0 00.15-.478c0-.155-.03-.29-.089-.404a.69.69 0 00-.273-.287 1.194 1.194 0 00-.451-.164 3.13 3.13 0 00-.622-.055h-1.347V46h-1.648v-7.397h2.995c.474 0 .9.041 1.278.124.383.082.709.207.977.376.27.168.474.382.616.642.145.255.218.556.218.903 0 .227-.05.441-.15.642-.096.2-.24.378-.43.533a2.406 2.406 0 01-.705.383 3.651 3.651 0 01-.957.178l-.376.451zm0 3.165h-2.844l.657-1.299h2.187c.292 0 .533-.036.725-.11a.854.854 0 00.424-.314.868.868 0 00.143-.499.912.912 0 00-.137-.505.838.838 0 00-.423-.322c-.187-.077-.431-.116-.732-.116h-1.88l.014-1.162h2.235l.472.451c.47.032.859.132 1.169.3.31.17.542.381.697.636.155.256.233.534.233.834 0 .347-.066.652-.199.916a1.702 1.702 0 01-.574.664 2.8 2.8 0 01-.923.396c-.364.087-.779.13-1.244.13zm8.531-1.483v-3.528c0-.264-.047-.492-.143-.683a1.006 1.006 0 00-.438-.445c-.191-.104-.433-.157-.724-.157-.27 0-.502.046-.697.137a1.127 1.127 0 00-.458.369.89.89 0 00-.165.526h-1.64c0-.291.07-.574.212-.847.141-.274.346-.518.615-.732.269-.214.59-.383.964-.506a4.008 4.008 0 011.258-.184c.556 0 1.048.093 1.476.28.433.187.773.47 1.019.848.25.373.376.843.376 1.408v3.288c0 .337.023.64.068.91.05.264.12.494.212.69V46h-1.689a2.917 2.917 0 01-.184-.677 5.528 5.528 0 01-.062-.806zm.24-3.015l.013 1.018h-1.182c-.306 0-.575.03-.807.09a1.657 1.657 0 00-.581.245 1.08 1.08 0 00-.349.397 1.16 1.16 0 00-.116.526c0 .196.046.376.137.54.091.16.223.285.396.376.178.091.392.137.643.137.337 0 .631-.068.882-.205.255-.141.456-.312.601-.513.146-.205.224-.398.233-.58l.533.73a2.502 2.502 0 01-.28.602c-.132.214-.306.42-.52.615a2.584 2.584 0 01-1.77.656c-.483 0-.914-.095-1.292-.286a2.297 2.297 0 01-.889-.787 2.039 2.039 0 01-.321-1.128c0-.391.073-.738.219-1.038.15-.306.369-.561.656-.766.291-.205.647-.36 1.066-.465.42-.11.898-.164 1.436-.164h1.292z" fill="#5E5E5E"/><path d="M1.797 72.625h1.46l3.727 9.273 3.72-9.273h1.468L7.547 84h-1.14l-4.61-11.375zm-.477 0h1.29l.21 6.938V84h-1.5V72.625zm10.032 0h1.289V84h-1.5v-4.438l.21-6.937zm4.906 5.828h2.539c.682 0 1.258.12 1.726.36.47.234.823.56 1.063.976.245.412.367.88.367 1.406 0 .39-.068.758-.203 1.102a2.473 2.473 0 01-.61.89 2.814 2.814 0 01-.992.602c-.39.14-.84.211-1.351.211h-3.594v-8.453h1.445v7.266h2.149c.416 0 .75-.076 1-.227.25-.151.43-.346.539-.586a1.786 1.786 0 000-1.5 1.403 1.403 0 00-.54-.61c-.25-.166-.582-.25-1-.25h-2.538v-1.187zm8.703-2.906V84h-1.445v-8.453h1.445zm9.883 7.422c.343 0 .661-.07.953-.211.292-.14.531-.334.719-.578a1.61 1.61 0 00.32-.852h1.375c-.026.5-.195.966-.508 1.399-.307.427-.71.773-1.21 1.039-.5.26-1.05.39-1.65.39-.635 0-1.19-.112-1.663-.336a3.297 3.297 0 01-1.172-.922 4.119 4.119 0 01-.696-1.343 5.672 5.672 0 01-.226-1.618v-.328c0-.567.076-1.104.227-1.609.156-.51.388-.96.695-1.352.312-.39.703-.697 1.172-.921.474-.224 1.028-.336 1.664-.336.661 0 1.24.135 1.734.406.495.266.883.63 1.164 1.094.287.458.443.979.469 1.562h-1.375a2.083 2.083 0 00-.297-.945 1.852 1.852 0 00-.687-.672 1.922 1.922 0 00-1.008-.258c-.443 0-.815.089-1.117.266a1.957 1.957 0 00-.711.703 3.286 3.286 0 00-.375.976c-.073.355-.11.717-.11 1.086v.329c0 .37.037.734.11 1.093.073.36.195.685.367.977.177.291.414.526.71.703.303.172.678.258 1.126.258zm13.82-.89l2.875-6.532h1.39L49.165 84h-1l-3.75-8.453h1.39l2.86 6.531zm-3.281-6.532V84h-1.446v-8.453h1.446zM51.898 84v-8.453h1.454V84h-1.454zm6.157-.875l2.351-7.578h1.547l-3.39 9.758a5.37 5.37 0 01-.313.672 3.218 3.218 0 01-.484.695 2.307 2.307 0 01-.72.531c-.275.14-.606.211-.991.211a2.62 2.62 0 01-.438-.047 4.277 4.277 0 01-.375-.078l-.008-1.172c.042.005.107.01.196.016a2.324 2.324 0 001.031-.117c.23-.084.422-.227.578-.43.161-.198.3-.471.414-.82l.602-1.641zm-1.727-7.578l2.195 6.562.375 1.524-1.039.531-3.109-8.617h1.578zm9.492 4.773l-3.203-4.773h1.742l2.188 3.5h1.687l-.21 1.273H65.82zm.79-.148L64.155 84h-1.828l3.367-4.875.914 1.047zm2.367-4.625V84H67.53v-8.453h1.446zm4.93 0l-3.204 4.773H68.5l-.227-1.273h1.696l2.187-3.5h1.75zM72.358 84l-2.46-3.828.93-1.047L74.187 84h-1.829zm6.516.156a4.159 4.159 0 01-1.602-.297 3.632 3.632 0 01-1.226-.851 3.787 3.787 0 01-.781-1.297 4.756 4.756 0 01-.274-1.64v-.329c0-.687.102-1.3.305-1.836.203-.541.479-1 .828-1.375a3.548 3.548 0 011.188-.851 3.41 3.41 0 011.374-.29c.605 0 1.126.105 1.563.313.443.209.805.5 1.086.875.281.37.49.807.625 1.313.135.5.203 1.046.203 1.64v.649h-6.312V79h4.867v-.11a3.607 3.607 0 00-.235-1.093 1.966 1.966 0 00-.625-.875c-.286-.23-.677-.344-1.171-.344a1.967 1.967 0 00-1.618.82 3.07 3.07 0 00-.46.993c-.11.39-.165.84-.165 1.351v.328c0 .401.055.779.164 1.133.115.35.279.656.493.922.218.266.481.474.789.625.312.151.666.227 1.062.227.51 0 .943-.105 1.297-.313.354-.208.664-.487.93-.836l.875.695c-.183.276-.414.54-.696.79a3.32 3.32 0 01-1.039.609c-.406.156-.888.234-1.445.234zm9.836-2.078l2.875-6.531h1.39L89.212 84h-1l-3.75-8.453h1.39l2.86 6.531zm-3.281-6.531V84h-1.446v-8.453h1.446zM91.945 84v-8.453h1.453V84h-1.453zm11.133-1.031c.344 0 .662-.07.953-.211.292-.14.531-.334.719-.578.188-.25.294-.534.32-.852h1.375a2.58 2.58 0 01-.507 1.399 3.474 3.474 0 01-1.211 1.039c-.5.26-1.05.39-1.649.39-.635 0-1.19-.112-1.664-.336a3.3 3.3 0 01-1.172-.922 4.12 4.12 0 01-.695-1.343 5.669 5.669 0 01-.227-1.618v-.328c0-.567.076-1.104.227-1.609.156-.51.388-.96.695-1.352a3.3 3.3 0 011.172-.921c.474-.224 1.029-.336 1.664-.336.662 0 1.24.135 1.734.406.495.266.883.63 1.165 1.094.286.458.442.979.468 1.562h-1.375a2.08 2.08 0 00-.297-.945 1.843 1.843 0 00-.687-.672 1.923 1.923 0 00-1.008-.258c-.443 0-.815.089-1.117.266a1.955 1.955 0 00-.711.703 3.275 3.275 0 00-.375.976 5.366 5.366 0 00-.109 1.086v.329c0 .37.036.734.109 1.093.073.36.195.685.367.977.177.291.414.526.711.703.302.172.677.258 1.125.258zm4.61-3.102v-.18c0-.609.088-1.174.265-1.695.177-.526.432-.982.766-1.367.333-.39.737-.693 1.211-.906a3.757 3.757 0 011.593-.328c.594 0 1.128.109 1.602.328.479.213.885.515 1.219.906.338.385.596.841.773 1.367.177.521.266 1.086.266 1.695v.18c0 .61-.089 1.175-.266 1.695a4.069 4.069 0 01-.773 1.368 3.55 3.55 0 01-1.211.906c-.469.213-1 .32-1.594.32a3.86 3.86 0 01-1.601-.32 3.619 3.619 0 01-1.219-.906 4.117 4.117 0 01-.766-1.368 5.237 5.237 0 01-.265-1.695zm1.445-.18v.18c0 .422.049.82.148 1.195.099.37.248.698.446.985.203.286.455.513.757.68a2.21 2.21 0 001.055.242c.396 0 .742-.081 1.039-.242.302-.167.552-.394.75-.68.198-.287.346-.615.445-.984.105-.376.157-.774.157-1.196v-.18a4.3 4.3 0 00-.157-1.18 3.041 3.041 0 00-.453-.991 2.156 2.156 0 00-.75-.688 2.105 2.105 0 00-1.047-.25c-.395 0-.744.084-1.046.25a2.247 2.247 0 00-.75.688 3.138 3.138 0 00-.446.992c-.099.37-.148.763-.148 1.18zm11.336-4.14V84h-1.453v-8.453h1.453zm2.836 0v1.172h-7.071v-1.172h7.071zm2.867 1.625V87.25h-1.453V75.547h1.328l.125 1.625zm5.695 2.531v.164c0 .615-.073 1.185-.219 1.711a4.2 4.2 0 01-.64 1.36 2.91 2.91 0 01-1.024.898c-.406.213-.872.32-1.398.32-.537 0-1.01-.088-1.422-.265a2.814 2.814 0 01-1.047-.774 3.962 3.962 0 01-.687-1.219 7.008 7.008 0 01-.344-1.601v-.875c.062-.625.18-1.185.352-1.68.171-.495.398-.916.679-1.265a2.797 2.797 0 011.039-.805c.406-.188.875-.281 1.406-.281.532 0 1.003.104 1.415.312.411.203.757.495 1.039.875.281.38.492.836.632 1.367.146.526.219 1.112.219 1.758zm-1.453.164v-.164c0-.422-.044-.818-.133-1.187a2.98 2.98 0 00-.414-.985 1.965 1.965 0 00-.703-.672c-.286-.166-.628-.25-1.023-.25a2.25 2.25 0 00-.953.188 2.052 2.052 0 00-.68.508 2.688 2.688 0 00-.461.718 4.086 4.086 0 00-.258.829v2.023c.104.365.25.708.438 1.031.187.318.437.576.75.774.312.192.705.289 1.179.289.391 0 .727-.081 1.008-.242.287-.167.521-.394.703-.68.188-.287.326-.615.414-.984.089-.376.133-.774.133-1.196zm5.578 3.258l2.352-7.578h1.547l-3.391 9.758a5.376 5.376 0 01-.312.672 3.253 3.253 0 01-.485.695 2.3 2.3 0 01-.719.531c-.276.14-.606.211-.992.211-.114 0-.26-.016-.437-.047a4.293 4.293 0 01-.375-.078l-.008-1.172c.042.005.107.01.195.016a2.321 2.321 0 001.031-.117c.23-.084.422-.227.579-.43.161-.198.299-.471.414-.82l.601-1.641zm-1.726-7.578l2.195 6.562.375 1.524-1.039.531-3.109-8.617h1.578zm8.015 0h1.446l-.125 3.164c-.032.802-.123 1.495-.274 2.078a6.122 6.122 0 01-.578 1.492 4.455 4.455 0 01-.789 1.024 5.161 5.161 0 01-.891.695h-.718l.039-1.18.297-.007c.171-.204.338-.412.5-.626a4.38 4.38 0 00.445-.773 5.38 5.38 0 00.336-1.102c.093-.437.153-.97.179-1.601l.133-3.164zm.36 0h5.086V84h-1.446v-7.117h-3.64v-1.336zm-2.618 7.266h8.789v3.68h-1.445V84h-5.898v2.492h-1.453l.007-3.68zm16.125-3.602v1.172h-4.468V79.21h4.468zm-4.164-3.664V84h-1.445v-8.453h1.445zm5.336 0V84h-1.453v-8.453h1.453zm3.891 6.164l3.898-6.164h1.453V84h-1.453v-6.164L161.211 84h-1.438v-8.453h1.438v6.164zm14.047-6.164V84h-1.446v-8.453h1.446zm-.492 3.883v1.187c-.292.11-.589.209-.891.297a8.184 8.184 0 01-.945.203c-.328.047-.685.07-1.071.07-.666 0-1.244-.114-1.734-.343a2.525 2.525 0 01-1.133-1.055c-.265-.474-.398-1.07-.398-1.789v-2.469h1.445V78c0 .469.07.849.211 1.14.141.292.346.508.617.65.271.134.602.202.992.202.375 0 .727-.023 1.055-.07.333-.052.651-.12.953-.203.307-.084.607-.18.899-.29zm7.804 3.125v-4.352c0-.333-.067-.622-.203-.867a1.327 1.327 0 00-.594-.578c-.265-.136-.593-.203-.984-.203-.365 0-.685.062-.961.187a1.667 1.667 0 00-.64.492 1.073 1.073 0 00-.227.657h-1.445c0-.303.078-.602.234-.899a2.62 2.62 0 01.672-.805 3.362 3.362 0 011.062-.578 4.192 4.192 0 011.391-.218c.615 0 1.156.104 1.625.312.474.209.844.524 1.109.945.271.417.407.94.407 1.57v3.938c0 .281.023.581.07.899.052.317.128.59.226.82V84h-1.507a2.666 2.666 0 01-.172-.664 5.313 5.313 0 01-.063-.781zm.25-3.68l.016 1.016h-1.461c-.411 0-.779.033-1.102.101a2.527 2.527 0 00-.812.29c-.219.13-.385.294-.5.491-.115.193-.172.42-.172.68 0 .266.06.508.18.727.12.218.299.393.539.523.245.125.544.188.898.188.443 0 .834-.094 1.172-.282.339-.187.607-.416.805-.687.203-.271.312-.534.328-.79l.617.696c-.036.219-.135.461-.297.727a3.518 3.518 0 01-1.601 1.367 3.108 3.108 0 01-1.235.234c-.573 0-1.075-.112-1.507-.336a2.567 2.567 0 01-1-.898 2.373 2.373 0 01-.352-1.274c0-.453.088-.851.266-1.195.177-.349.432-.638.765-.867a3.652 3.652 0 011.203-.531c.469-.12.992-.18 1.571-.18h1.679zm6.977 5.281a4.158 4.158 0 01-1.602-.297 3.622 3.622 0 01-1.226-.851 3.776 3.776 0 01-.781-1.297 4.74 4.74 0 01-.274-1.64v-.329c0-.687.102-1.3.305-1.836.203-.541.479-1 .828-1.375a3.553 3.553 0 011.187-.851c.443-.193.901-.29 1.375-.29.605 0 1.125.105 1.563.313.443.209.805.5 1.086.875.281.37.489.807.625 1.313.135.5.203 1.046.203 1.64v.649h-6.313V79h4.868v-.11a3.592 3.592 0 00-.235-1.093 1.96 1.96 0 00-.625-.875c-.286-.23-.677-.344-1.172-.344a1.966 1.966 0 00-1.617.82 3.08 3.08 0 00-.461.993c-.109.39-.164.84-.164 1.351v.328c0 .401.055.779.164 1.133.115.35.279.656.492.922.219.266.482.474.789.625.313.151.667.227 1.063.227.51 0 .943-.105 1.297-.313a3.22 3.22 0 00.93-.836l.875.695c-.183.276-.415.54-.696.79a3.31 3.31 0 01-1.039.609c-.406.156-.888.234-1.445.234zm9.836-2.078l2.875-6.531h1.39L200.133 84h-1l-3.75-8.453h1.39l2.86 6.531zm-3.281-6.531V84h-1.446v-8.453h1.446zM202.867 84v-8.453h1.453V84h-1.453zM214 82.969c.344 0 .661-.07.953-.211.292-.14.531-.334.719-.578.187-.25.294-.534.32-.852h1.375c-.026.5-.195.966-.508 1.399a3.465 3.465 0 01-1.211 1.039c-.5.26-1.049.39-1.648.39-.635 0-1.19-.112-1.664-.336a3.3 3.3 0 01-1.172-.922 4.118 4.118 0 01-.695-1.343 5.672 5.672 0 01-.227-1.618v-.328c0-.567.076-1.104.227-1.609.156-.51.388-.96.695-1.352a3.3 3.3 0 011.172-.921c.474-.224 1.029-.336 1.664-.336.661 0 1.24.135 1.734.406.495.266.883.63 1.164 1.094.287.458.443.979.469 1.562h-1.375a2.08 2.08 0 00-.297-.945 1.85 1.85 0 00-.687-.672 1.925 1.925 0 00-1.008-.258c-.443 0-.815.089-1.117.266a1.955 1.955 0 00-.711.703 3.275 3.275 0 00-.375.976 5.366 5.366 0 00-.109 1.086v.329c0 .37.036.734.109 1.093.073.36.195.685.367.977.177.291.414.526.711.703.302.172.677.258 1.125.258zM2.672 98.547V107H1.227v-8.453h1.445zm5.547 0L4.21 103.39H2.187l-.218-1.266h1.656l2.836-3.578h1.758zM6.664 107l-3.11-3.828.93-1.047L8.5 107H6.664zm2.54-4.133v-.179c0-.61.088-1.175.265-1.696.177-.526.432-.982.765-1.367.334-.39.737-.693 1.211-.906a3.759 3.759 0 011.594-.328c.594 0 1.128.109 1.602.328.479.213.885.515 1.218.906.339.385.597.841.774 1.367a5.24 5.24 0 01.265 1.696v.179c0 .61-.088 1.175-.265 1.695a4.063 4.063 0 01-.774 1.368 3.552 3.552 0 01-1.21.906c-.47.213-1 .32-1.594.32a3.866 3.866 0 01-1.602-.32 3.632 3.632 0 01-1.219-.906 4.135 4.135 0 01-.765-1.368 5.227 5.227 0 01-.266-1.695zm1.444-.179v.179c0 .422.05.821.149 1.195.099.37.247.698.445.985.203.286.456.513.758.68a2.21 2.21 0 001.055.242c.396 0 .742-.081 1.039-.242.302-.167.552-.394.75-.68.198-.287.346-.615.445-.985.104-.374.156-.773.156-1.195v-.179c0-.417-.052-.81-.156-1.18a3.032 3.032 0 00-.453-.992 2.151 2.151 0 00-.75-.688 2.104 2.104 0 00-1.047-.25c-.396 0-.745.084-1.047.25a2.246 2.246 0 00-.75.688 3.13 3.13 0 00-.445.992c-.1.37-.149.763-.149 1.18zm12.922 2.39l2.875-6.531h1.39L24.07 107h-1l-3.75-8.453h1.39l2.86 6.531zm-3.28-6.531V107h-1.446v-8.453h1.445zM26.804 107v-8.453h1.453V107h-1.453zm9.414-8.453v1.195h-4.274v-1.195h4.274zm-4.063 0V107H30.71v-8.453h1.445zm5.344 0V107h-1.453v-8.453H37.5zm7.305 7.008v-4.352a1.77 1.77 0 00-.203-.867 1.33 1.33 0 00-.594-.578c-.266-.136-.594-.203-.985-.203a2.31 2.31 0 00-.96.187 1.672 1.672 0 00-.641.492 1.08 1.08 0 00-.227.657H39.75c0-.302.078-.602.234-.899.157-.297.38-.565.672-.805a3.358 3.358 0 011.063-.578c.416-.145.88-.218 1.39-.218.615 0 1.157.104 1.625.312.474.209.844.524 1.11.945.27.417.406.941.406 1.571v3.937c0 .282.023.581.07.899.052.317.128.591.227.82V107h-1.508a2.702 2.702 0 01-.172-.664 5.351 5.351 0 01-.062-.781zm.25-3.68l.015 1.016h-1.46c-.412 0-.78.033-1.102.101a2.537 2.537 0 00-.813.289 1.38 1.38 0 00-.5.492c-.114.193-.172.42-.172.68 0 .266.06.508.18.727.12.218.3.393.54.523.244.125.543.188.898.188.442 0 .833-.094 1.172-.282a2.43 2.43 0 00.804-.687c.203-.271.313-.534.328-.789l.617.695c-.036.219-.135.461-.296.727a3.503 3.503 0 01-1.602 1.367 3.11 3.11 0 01-1.234.234c-.573 0-1.076-.112-1.508-.336a2.577 2.577 0 01-1-.898 2.379 2.379 0 01-.352-1.274c0-.453.089-.851.266-1.195a2.3 2.3 0 01.766-.867 3.628 3.628 0 011.203-.531 6.33 6.33 0 011.57-.18h1.68zm9.203.336v1.172h-4.469v-1.172h4.469zm-4.164-3.664V107h-1.446v-8.453h1.446zm5.336 0V107h-1.453v-8.453h1.453zm3.89 6.164l3.899-6.164h1.453V107h-1.453v-6.164L59.32 107h-1.437v-8.453h1.437v6.164zm11.18 2.445a4.157 4.157 0 01-1.602-.297 3.636 3.636 0 01-1.226-.851 3.792 3.792 0 01-.781-1.297 4.757 4.757 0 01-.274-1.641v-.328c0-.687.102-1.299.305-1.836.203-.541.479-1 .828-1.375a3.548 3.548 0 011.188-.851 3.41 3.41 0 011.374-.29c.605 0 1.126.105 1.563.313.443.209.805.5 1.086.875.281.37.49.807.625 1.313.135.5.203 1.047.203 1.64v.649h-6.312V102h4.867v-.109a3.608 3.608 0 00-.235-1.094 1.968 1.968 0 00-.625-.875c-.286-.23-.677-.344-1.171-.344a1.967 1.967 0 00-1.618.82 3.072 3.072 0 00-.46.993c-.11.39-.165.841-.165 1.351v.328c0 .401.055.779.164 1.133.115.349.279.656.493.922.218.266.481.474.789.625.312.151.666.227 1.062.227.51 0 .943-.105 1.297-.313.354-.208.664-.487.93-.836l.875.695a4.047 4.047 0 01-.696.789c-.28.25-.627.454-1.039.61-.406.156-.888.234-1.445.234zm6.54-2.445l3.897-6.164h1.454V107h-1.454v-6.164L77.04 107h-1.437v-8.453h1.437v6.164zm3.108-9.227h1.172c0 .407-.093.769-.28 1.086a1.933 1.933 0 01-.806.735c-.349.177-.763.265-1.242.265-.724 0-1.297-.192-1.719-.578-.416-.39-.625-.893-.625-1.508h1.172c0 .308.089.579.266.813.177.234.48.351.906.351.417 0 .714-.117.89-.351a1.31 1.31 0 00.266-.813zm11.633 4.125l-2.039 3.141-1.375-.008v-.101l2.305-3.032h1.11zm-2.039 3.071l2.04 3.148h-1.11l-2.305-3.039v-.101l1.375-.008zm4.625-3.07l-2.039 3.14-1.375-.008v-.101l2.305-3.032h1.11zm-2.039 3.07l2.04 3.148h-1.11l-2.305-3.039v-.101l1.375-.008zm10.953.703h1.5a4.78 4.78 0 01-.617 1.929 3.605 3.605 0 01-1.414 1.352c-.609.328-1.37.492-2.281.492a4.328 4.328 0 01-1.82-.375 4.048 4.048 0 01-1.399-1.062 4.974 4.974 0 01-.906-1.664c-.209-.651-.313-1.375-.313-2.172v-1.133c0-.797.104-1.518.313-2.164a4.885 4.885 0 01.914-1.672c.4-.463.883-.82 1.445-1.07.563-.25 1.195-.375 1.899-.375.859 0 1.586.161 2.179.484a3.468 3.468 0 011.383 1.344c.333.568.539 1.226.617 1.976h-1.5c-.073-.53-.208-.986-.406-1.367a2.11 2.11 0 00-.844-.89c-.364-.209-.841-.313-1.429-.313-.506 0-.951.096-1.336.29-.38.192-.7.465-.961.82a3.818 3.818 0 00-.578 1.273 6.474 6.474 0 00-.196 1.648v1.149c0 .557.057 1.081.172 1.57.12.49.3.919.54 1.289.239.37.544.662.913.875.37.209.807.313 1.313.313.64 0 1.151-.102 1.531-.305a1.99 1.99 0 00.859-.875c.198-.38.339-.836.422-1.367zm8.321 2.172v-4.352c0-.333-.068-.622-.204-.867a1.33 1.33 0 00-.593-.578c-.266-.136-.594-.203-.985-.203-.364 0-.685.062-.961.187-.27.125-.484.289-.64.492a1.082 1.082 0 00-.227.657h-1.445c0-.302.078-.602.234-.899.157-.297.38-.565.672-.805a3.356 3.356 0 011.063-.578c.416-.145.88-.218 1.39-.218.615 0 1.156.104 1.625.312.474.209.844.524 1.11.945.27.417.406.941.406 1.571v3.937c0 .282.023.581.07.899.052.317.128.591.227.82V107h-1.508a2.715 2.715 0 01-.172-.664 5.306 5.306 0 01-.062-.781zm.25-3.68l.015 1.016h-1.461c-.411 0-.778.033-1.101.101a2.54 2.54 0 00-.813.289 1.38 1.38 0 00-.5.492c-.114.193-.172.42-.172.68 0 .266.06.508.18.727.12.218.299.393.539.523.245.125.544.188.899.188a2.37 2.37 0 001.171-.282c.339-.187.607-.416.805-.687.203-.271.313-.534.328-.789l.617.695c-.036.219-.135.461-.297.727a3.506 3.506 0 01-1.601 1.367 3.11 3.11 0 01-1.234.234c-.573 0-1.076-.112-1.508-.336a2.574 2.574 0 01-1-.898 2.374 2.374 0 01-.352-1.274c0-.453.089-.851.266-1.195.177-.349.432-.638.765-.867a3.637 3.637 0 011.204-.531 6.33 6.33 0 011.57-.18h1.68zm8.328 3.203l2.875-6.531h1.39L120.68 107h-1l-3.75-8.453h1.39l2.86 6.531zm-3.282-6.531V107h-1.445v-8.453h1.445zm6.516 8.453v-8.453h1.453V107h-1.453zm8.641-1.922l2.875-6.531h1.39L132.555 107h-1l-3.75-8.453h1.39l2.86 6.531zm-3.282-6.531V107h-1.445v-8.453h1.445zm6.516 8.453v-8.453h1.453V107h-1.453zm5.344-2.289l3.898-6.164h1.453V107h-1.453v-6.164L140.633 107h-1.438v-8.453h1.438v6.164zm11.117-6.164V107h-1.453v-8.453h1.453zm2.836 0v1.172h-7.07v-1.172h7.07zm1.125 7.258l2.039-3.141 1.375.008v.101l-2.305 3.032h-1.109zm0-6.22h1.109l2.305 3.04v.102l-1.375.007-2.039-3.148zm2.727 6.22l2.039-3.141 1.375.008v.101l-2.305 3.032h-1.109zm0-6.22h1.109l2.305 3.04v.102l-1.375.007-2.039-3.148zm15.414-1.038V107h-1.446v-8.453h1.446zm-.493 3.883v1.187c-.291.11-.588.209-.89.297a8.199 8.199 0 01-.946.203 7.553 7.553 0 01-1.07.071c-.667 0-1.245-.115-1.734-.344a2.527 2.527 0 01-1.133-1.055c-.266-.474-.398-1.07-.398-1.789v-2.469h1.445V101c0 .469.07.849.211 1.141.14.291.346.507.617.648.271.135.601.203.992.203.375 0 .727-.023 1.055-.07.333-.052.651-.12.953-.203.307-.084.607-.18.898-.289zm6.329 4.726a4.157 4.157 0 01-1.602-.297 3.64 3.64 0 01-1.227-.851 3.796 3.796 0 01-.781-1.297 4.764 4.764 0 01-.273-1.641v-.328c0-.687.101-1.299.304-1.836.203-.541.48-1 .829-1.375a3.533 3.533 0 011.187-.851c.443-.193.901-.29 1.375-.29.604 0 1.125.105 1.562.313.443.209.805.5 1.086.875.282.37.49.807.625 1.313.136.5.204 1.047.204 1.64v.649h-6.313V102h4.867v-.109a3.622 3.622 0 00-.234-1.094 1.97 1.97 0 00-.625-.875c-.287-.23-.677-.344-1.172-.344a1.966 1.966 0 00-1.617.82 3.061 3.061 0 00-.461.993c-.11.39-.164.841-.164 1.351v.328c0 .401.054.779.164 1.133.114.349.279.656.492.922.219.266.482.474.789.625.313.151.667.227 1.063.227.51 0 .942-.105 1.296-.313.355-.208.665-.487.93-.836l.875.695a4.041 4.041 0 01-.695.789c-.281.25-.628.454-1.039.61-.406.156-.888.234-1.445.234zm8.328-8.61V107h-1.454v-8.453h1.454zm2.836 0v1.173h-7.071v-1.172h7.071zm2.609 2.907H196c.682 0 1.258.12 1.727.359.468.235.822.56 1.062.977.245.412.367.88.367 1.406 0 .391-.067.758-.203 1.102a2.478 2.478 0 01-.609.891 2.828 2.828 0 01-.992.601A3.978 3.978 0 01196 107h-3.594v-8.453h1.446v7.265H196c.417 0 .75-.075 1-.226.25-.151.43-.346.539-.586a1.795 1.795 0 000-1.5 1.396 1.396 0 00-.539-.609c-.25-.167-.583-.25-1-.25h-2.539v-1.188zm8.703-2.906V107h-1.445v-8.453h1.445zm3.977 1.625v10.078h-1.453V98.547h1.328l.125 1.625zm5.695 2.531v.164c0 .615-.073 1.185-.219 1.711a4.222 4.222 0 01-.64 1.36 2.926 2.926 0 01-1.024.898c-.406.213-.872.32-1.398.32-.537 0-1.011-.088-1.422-.265a2.793 2.793 0 01-1.047-.774 3.938 3.938 0 01-.688-1.219 7.056 7.056 0 01-.343-1.601v-.875a7.323 7.323 0 01.351-1.68c.172-.495.399-.916.68-1.265a2.789 2.789 0 011.039-.805c.406-.188.875-.281 1.406-.281.531 0 1.003.104 1.414.312a2.84 2.84 0 011.039.875c.282.38.493.836.633 1.367.146.526.219 1.112.219 1.758zm-1.453.164v-.164c0-.422-.044-.818-.133-1.187a3.022 3.022 0 00-.414-.985 1.978 1.978 0 00-.703-.672c-.287-.166-.628-.25-1.024-.25-.364 0-.682.063-.953.188a2.054 2.054 0 00-.679.508 2.667 2.667 0 00-.461.718 4.09 4.09 0 00-.258.829v2.023c.104.365.25.708.437 1.031.188.318.438.576.75.774.313.192.706.289 1.18.289.391 0 .727-.081 1.008-.242a2.05 2.05 0 00.703-.68c.187-.287.325-.615.414-.985.089-.374.133-.773.133-1.195zm6.805 4.289a4.157 4.157 0 01-1.602-.297 3.64 3.64 0 01-1.227-.851 3.796 3.796 0 01-.781-1.297 4.764 4.764 0 01-.273-1.641v-.328c0-.687.101-1.299.304-1.836.203-.541.48-1 .829-1.375a3.533 3.533 0 011.187-.851c.443-.193.901-.29 1.375-.29.604 0 1.125.105 1.562.313.443.209.805.5 1.086.875.282.37.49.807.625 1.313.136.5.204 1.047.204 1.64v.649h-6.313V102h4.867v-.109a3.622 3.622 0 00-.234-1.094 1.97 1.97 0 00-.625-.875c-.287-.23-.677-.344-1.172-.344a1.966 1.966 0 00-1.617.82 3.061 3.061 0 00-.461.993c-.11.39-.164.841-.164 1.351v.328c0 .401.054.779.164 1.133.114.349.279.656.492.922.219.266.482.474.789.625.313.151.667.227 1.063.227.51 0 .942-.105 1.296-.313.355-.208.665-.487.93-.836l.875.695a4.041 4.041 0 01-.695.789c-.281.25-.628.454-1.039.61-.406.156-.888.234-1.445.234zm14.406-8.61v1.196h-3.906V107h-1.446v-8.453h5.352zm.718 4.321v-.179c0-.61.089-1.175.266-1.696.177-.526.432-.982.766-1.367.333-.39.737-.693 1.211-.906a3.757 3.757 0 011.593-.328c.594 0 1.128.109 1.602.328.479.213.885.515 1.219.906.338.385.596.841.773 1.367a5.24 5.24 0 01.266 1.696v.179c0 .61-.089 1.175-.266 1.695a4.069 4.069 0 01-.773 1.368 3.558 3.558 0 01-1.211.906c-.469.213-1 .32-1.594.32a3.867 3.867 0 01-1.602-.32 3.633 3.633 0 01-1.218-.906 4.123 4.123 0 01-.766-1.368 5.229 5.229 0 01-.266-1.695zm1.446-.179v.179c0 .422.049.821.148 1.195.099.37.248.698.446.985.203.286.455.513.757.68a2.21 2.21 0 001.055.242c.396 0 .742-.081 1.039-.242.302-.167.552-.394.75-.68.198-.287.346-.615.445-.985.105-.374.157-.773.157-1.195v-.179c0-.417-.052-.81-.157-1.18a3.036 3.036 0 00-.453-.992 2.153 2.153 0 00-.75-.688 2.105 2.105 0 00-1.047-.25c-.395 0-.744.084-1.046.25a2.244 2.244 0 00-.75.688 3.131 3.131 0 00-.446.992c-.099.37-.148.763-.148 1.18zm9.023-4.141h1.446l-.125 3.164c-.032.802-.123 1.495-.274 2.078a6.12 6.12 0 01-.578 1.492 4.441 4.441 0 01-.789 1.024 5.184 5.184 0 01-.891.695h-.718l.039-1.18.297-.008c.171-.203.338-.411.5-.624a4.39 4.39 0 00.445-.774c.135-.302.247-.669.336-1.102.093-.437.153-.971.179-1.601l.133-3.164zm.36 0h5.086V107h-1.446v-7.117h-3.64v-1.336zm-2.618 7.265h8.789v3.68h-1.445V107h-5.898v2.492h-1.453l.007-3.68zm15.375-.257v-4.352c0-.333-.067-.622-.203-.867a1.33 1.33 0 00-.593-.578c-.266-.136-.594-.203-.985-.203-.364 0-.685.062-.961.187a1.668 1.668 0 00-.64.492 1.082 1.082 0 00-.227.657h-1.445c0-.302.078-.602.234-.899a2.62 2.62 0 01.672-.805 3.362 3.362 0 011.062-.578 4.192 4.192 0 011.391-.218c.615 0 1.156.104 1.625.312.474.209.844.524 1.11.945.27.417.406.941.406 1.571v3.937c0 .282.023.581.07.899.052.317.128.591.227.82V107h-1.508a2.715 2.715 0 01-.172-.664 5.314 5.314 0 01-.063-.781zm.25-3.68l.016 1.016h-1.461a5.37 5.37 0 00-1.101.101 2.54 2.54 0 00-.813.289 1.38 1.38 0 00-.5.492c-.115.193-.172.42-.172.68 0 .266.06.508.18.727.12.218.299.393.539.523.245.125.544.188.898.188.443 0 .834-.094 1.172-.282.339-.187.607-.416.805-.687.203-.271.312-.534.328-.789l.617.695c-.036.219-.135.461-.297.727a3.506 3.506 0 01-1.601 1.367 3.112 3.112 0 01-1.235.234c-.572 0-1.075-.112-1.507-.336a2.574 2.574 0 01-1-.898 2.374 2.374 0 01-.352-1.274c0-.453.089-.851.266-1.195.177-.349.432-.638.765-.867a3.641 3.641 0 011.203-.531c.469-.12.993-.18 1.571-.18h1.679zm3.493 4.359c0-.244.075-.45.226-.617.156-.172.38-.258.672-.258.292 0 .513.086.664.258a.871.871 0 01.235.617c0 .24-.079.443-.235.61-.151.166-.372.25-.664.25-.292 0-.516-.084-.672-.25a.876.876 0 01-.226-.61zM2.891 127.391l5.601-8.766H10V130H8.492v-8.773L2.891 130h-1.5v-11.375h1.5v8.766zm19.336-2.18v1.172h-4.47v-1.172h4.47zm-4.165-3.664V130h-1.445v-8.453h1.445zm5.336 0V130h-1.453v-8.453h1.453zm5.836 8.609a4.157 4.157 0 01-1.601-.297 3.637 3.637 0 01-1.227-.851 3.793 3.793 0 01-.781-1.297 4.757 4.757 0 01-.273-1.641v-.328c0-.687.101-1.299.304-1.836.203-.541.48-1 .828-1.375a3.535 3.535 0 011.188-.851 3.406 3.406 0 011.375-.289c.604 0 1.125.104 1.562.312.443.208.805.5 1.086.875.282.37.49.807.625 1.313.136.5.203 1.047.203 1.64v.649h-6.312V125h4.867v-.109a3.605 3.605 0 00-.234-1.094 1.968 1.968 0 00-.625-.875c-.287-.229-.677-.344-1.172-.344a1.963 1.963 0 00-1.617.82 3.07 3.07 0 00-.461.993c-.11.39-.164.841-.164 1.351v.328c0 .401.054.779.164 1.133.114.349.278.656.492.922.219.266.482.474.789.625.313.151.667.227 1.063.227.51 0 .942-.105 1.296-.313.354-.208.664-.487.93-.836l.875.695a4.047 4.047 0 01-.695.789c-.282.25-.628.454-1.04.61-.406.156-.887.234-1.445.234zm10.391-6.984v10.078h-1.453v-11.703H39.5l.125 1.625zm5.695 2.531v.164c0 .615-.073 1.185-.218 1.711-.146.521-.36.974-.641 1.36a2.921 2.921 0 01-1.023.898c-.407.213-.873.32-1.399.32-.536 0-1.01-.088-1.422-.265a2.8 2.8 0 01-1.047-.774 3.947 3.947 0 01-.687-1.219 7.044 7.044 0 01-.344-1.601v-.875a7.36 7.36 0 01.352-1.68 4.18 4.18 0 01.68-1.265 2.78 2.78 0 011.038-.805c.407-.188.875-.281 1.407-.281.53 0 1.002.104 1.414.312.411.203.758.495 1.039.875a4 4 0 01.633 1.367 6.61 6.61 0 01.218 1.758zm-1.453.164v-.164c0-.422-.044-.818-.133-1.187a3.003 3.003 0 00-.414-.985 1.982 1.982 0 00-.703-.672c-.286-.166-.627-.25-1.023-.25a2.25 2.25 0 00-.953.188 2.055 2.055 0 00-.68.508 2.699 2.699 0 00-.461.718c-.115.266-.2.542-.258.829v2.023c.104.365.25.708.438 1.031.187.318.437.576.75.774.312.192.705.289 1.18.289.39 0 .726-.081 1.007-.242a2.05 2.05 0 00.703-.68c.188-.287.326-.615.414-.985.089-.374.133-.773.133-1.195zm8.281 2.688v-4.352c0-.333-.067-.622-.203-.867a1.327 1.327 0 00-.593-.578c-.266-.136-.594-.203-.985-.203a2.31 2.31 0 00-.96.187 1.665 1.665 0 00-.641.492 1.081 1.081 0 00-.227.657h-1.445c0-.302.078-.602.234-.899a2.61 2.61 0 01.672-.804 3.363 3.363 0 011.063-.579 4.21 4.21 0 011.39-.218c.615 0 1.156.104 1.625.312a2.44 2.44 0 011.11.945c.27.417.406.941.406 1.571v3.937c0 .282.023.581.07.899.052.317.128.591.227.82V130h-1.508a2.706 2.706 0 01-.172-.664 5.365 5.365 0 01-.063-.781zm.25-3.68l.016 1.016h-1.46c-.412 0-.78.033-1.102.101a2.535 2.535 0 00-.813.289 1.38 1.38 0 00-.5.492c-.114.193-.172.42-.172.68 0 .266.06.508.18.727.12.218.3.393.539.523.245.125.544.188.898.188.443 0 .834-.094 1.172-.282a2.43 2.43 0 00.805-.687c.203-.271.312-.534.328-.789l.617.695c-.036.219-.135.461-.297.727a3.503 3.503 0 01-1.602 1.367 3.11 3.11 0 01-1.234.234c-.573 0-1.075-.112-1.507-.336a2.577 2.577 0 01-1-.898 2.379 2.379 0 01-.352-1.274c0-.453.089-.851.266-1.195.177-.349.432-.638.765-.867a3.629 3.629 0 011.203-.531c.47-.12.993-.18 1.57-.18h1.68zm6.625 1.086H57.47v-.891h1.437c.401 0 .719-.049.953-.148.235-.104.401-.248.5-.43.1-.182.149-.396.149-.64a1.19 1.19 0 00-.172-.618 1.167 1.167 0 00-.531-.476c-.245-.125-.573-.188-.985-.188-.333 0-.635.06-.906.18-.27.115-.487.273-.648.477a1.052 1.052 0 00-.235.671h-1.445c0-.515.146-.958.437-1.328.297-.375.69-.664 1.18-.867a4.22 4.22 0 011.617-.305c.49 0 .927.055 1.313.164.39.105.721.261.992.469.27.203.477.459.617.766.146.302.219.654.219 1.055 0 .286-.068.557-.203.812a2.12 2.12 0 01-.586.68 2.927 2.927 0 01-.93.453c-.36.109-.765.164-1.219.164zm-1.554-.547h1.554c.506 0 .951.05 1.336.148.386.094.709.235.97.422.26.188.455.42.585.696.136.271.203.583.203.937 0 .396-.08.753-.242 1.071-.156.312-.38.578-.672.796-.292.219-.64.386-1.047.5a4.84 4.84 0 01-1.336.172 4.64 4.64 0 01-1.593-.281 2.976 2.976 0 01-1.274-.867c-.333-.396-.5-.899-.5-1.508h1.445c0 .255.081.497.243.727.161.229.385.414.672.554.291.141.627.211 1.007.211.407 0 .745-.062 1.016-.187.27-.125.474-.292.61-.5.14-.209.21-.435.21-.68 0-.318-.062-.573-.187-.766-.125-.192-.318-.333-.578-.421-.256-.094-.584-.141-.985-.141H57.47v-.883zm8.898 3.711l2.352-7.578h1.547l-3.391 9.758a5.417 5.417 0 01-.313.672 3.241 3.241 0 01-.484.695 2.295 2.295 0 01-.719.531c-.276.141-.606.211-.992.211-.114 0-.26-.016-.437-.047a4.104 4.104 0 01-.375-.078l-.008-1.172c.042.005.107.011.195.016a2.338 2.338 0 001.031-.117c.23-.084.422-.227.579-.43.161-.198.299-.471.414-.82l.601-1.641zm-1.726-7.578l2.195 6.562.375 1.524-1.04.531-3.109-8.617h1.579zm16.632 3.664v1.172h-4.468v-1.172h4.468zm-4.164-3.664V130h-1.445v-8.453h1.445zm5.336 0V130h-1.453v-8.453h1.453zm5.836 8.609a4.157 4.157 0 01-1.601-.297 3.636 3.636 0 01-1.227-.851 3.793 3.793 0 01-.781-1.297 4.757 4.757 0 01-.274-1.641v-.328c0-.687.102-1.299.305-1.836.203-.541.48-1 .828-1.375a3.536 3.536 0 011.188-.851 3.406 3.406 0 011.375-.289c.604 0 1.125.104 1.562.312.443.208.805.5 1.086.875.281.37.49.807.625 1.313.136.5.203 1.047.203 1.64v.649h-6.312V125h4.867v-.109a3.605 3.605 0 00-.234-1.094 1.966 1.966 0 00-.625-.875c-.287-.229-.678-.344-1.172-.344a1.963 1.963 0 00-1.617.82 3.07 3.07 0 00-.461.993c-.11.39-.164.841-.164 1.351v.328c0 .401.054.779.164 1.133.114.349.278.656.492.922.219.266.482.474.789.625.312.151.666.227 1.062.227.51 0 .943-.105 1.297-.313.354-.208.664-.487.93-.836l.875.695a4.043 4.043 0 01-.695.789c-.282.25-.628.454-1.04.61-.406.156-.888.234-1.445.234zm14.578-8.609v1.195h-4.273v-1.195h4.273zm-4.062 0V130h-1.445v-8.453h1.445zm5.344 0V130h-1.453v-8.453h1.453zm1.937 4.32v-.179c0-.61.089-1.175.266-1.696.177-.526.432-.982.765-1.367a3.41 3.41 0 011.211-.906 3.758 3.758 0 011.594-.328c.594 0 1.128.109 1.602.328.479.213.885.515 1.218.906.339.385.597.841.774 1.367a5.24 5.24 0 01.265 1.696v.179c0 .61-.088 1.175-.265 1.695a4.054 4.054 0 01-.774 1.368 3.548 3.548 0 01-1.211.906c-.468.213-1 .32-1.593.32a3.867 3.867 0 01-1.602-.32 3.637 3.637 0 01-1.219-.906 4.139 4.139 0 01-.765-1.368 5.229 5.229 0 01-.266-1.695zm1.445-.179v.179c0 .422.05.821.149 1.195.099.37.247.698.445.985.203.286.456.513.758.68a2.21 2.21 0 001.055.242c.396 0 .742-.081 1.039-.242.302-.167.552-.394.75-.68.198-.287.346-.615.445-.985.104-.374.156-.773.156-1.195v-.179c0-.417-.052-.81-.156-1.18a3.036 3.036 0 00-.453-.992 2.156 2.156 0 00-.75-.688c-.297-.167-.646-.25-1.047-.25-.396 0-.745.083-1.047.25a2.247 2.247 0 00-.75.688 3.13 3.13 0 00-.445.992c-.099.37-.149.763-.149 1.18zm10.454.632l-3.204-4.773h1.743l2.187 3.5h1.688l-.211 1.273h-2.203zm.789-.148L116.312 130h-1.828l3.368-4.875.914 1.047zm2.367-4.625V130h-1.445v-8.453h1.445zm4.929 0l-3.203 4.773h-2.203l-.226-1.273h1.695l2.187-3.5h1.75zM124.516 130l-2.461-3.828.929-1.047 3.36 4.875h-1.828zm8.148-1.445v-4.352a1.77 1.77 0 00-.203-.867 1.325 1.325 0 00-.594-.578c-.265-.136-.594-.203-.984-.203-.365 0-.685.062-.961.187a1.68 1.68 0 00-.641.492 1.08 1.08 0 00-.226.657h-1.446c0-.302.079-.602.235-.899a2.61 2.61 0 01.672-.804 3.356 3.356 0 011.062-.579c.417-.145.88-.218 1.391-.218.614 0 1.156.104 1.625.312.474.208.844.524 1.109.945.271.417.406.941.406 1.571v3.937c0 .282.024.581.071.899.052.317.127.591.226.82V130h-1.508a2.72 2.72 0 01-.171-.664 5.314 5.314 0 01-.063-.781zm.25-3.68l.016 1.016h-1.461a5.38 5.38 0 00-1.102.101 2.526 2.526 0 00-.812.289c-.219.13-.386.295-.5.492-.115.193-.172.42-.172.68 0 .266.06.508.179.727.12.218.3.393.54.523.244.125.544.188.898.188.443 0 .833-.094 1.172-.282.338-.187.607-.416.805-.687.203-.271.312-.534.328-.789l.617.695a2.122 2.122 0 01-.297.727 3.512 3.512 0 01-1.602 1.367 3.107 3.107 0 01-1.234.234c-.573 0-1.075-.112-1.508-.336a2.58 2.58 0 01-1-.898 2.382 2.382 0 01-.351-1.274c0-.453.088-.851.265-1.195.177-.349.433-.638.766-.867a3.623 3.623 0 011.203-.531c.469-.12.992-.18 1.57-.18h1.68zm9.117-3.328v1.195h-4.086v-1.195h4.086zm1.274 0V130h-1.446v-8.453h1.446zm-5.711 0h1.453l-.219 4.078a14.86 14.86 0 01-.18 1.672 5.664 5.664 0 01-.328 1.234 2.574 2.574 0 01-.515.844 1.891 1.891 0 01-.735.477 3.031 3.031 0 01-.992.148h-.453v-1.273l.313-.024c.223-.015.414-.068.57-.156.161-.089.297-.219.406-.391.109-.177.198-.403.266-.679.073-.276.127-.605.164-.985.041-.38.073-.823.094-1.328l.156-3.617zm11.547 8.609a4.157 4.157 0 01-1.602-.297 3.64 3.64 0 01-1.227-.851 3.811 3.811 0 01-.781-1.297 4.764 4.764 0 01-.273-1.641v-.328c0-.687.101-1.299.304-1.836.204-.541.48-1 .829-1.375a3.532 3.532 0 011.187-.851 3.407 3.407 0 011.375-.289c.604 0 1.125.104 1.563.312.442.208.804.5 1.086.875.281.37.489.807.625 1.313.135.5.203 1.047.203 1.64v.649h-6.313V125h4.867v-.109a3.592 3.592 0 00-.234-1.094 1.968 1.968 0 00-.625-.875c-.286-.229-.677-.344-1.172-.344a1.962 1.962 0 00-1.617.82 3.061 3.061 0 00-.461.993c-.109.39-.164.841-.164 1.351v.328c0 .401.055.779.164 1.133.115.349.279.656.492.922.219.266.482.474.789.625.313.151.667.227 1.063.227.51 0 .942-.105 1.297-.313.354-.208.664-.487.929-.836l.875.695a4.041 4.041 0 01-.695.789c-.281.25-.628.454-1.039.61-.406.156-.888.234-1.445.234zm10.625-8.609v1.195h-4.086v-1.195h4.086zm1.273 0V130h-1.445v-8.453h1.445zm-5.711 0h1.453l-.219 4.078c-.036.63-.096 1.187-.179 1.672a5.72 5.72 0 01-.328 1.234 2.593 2.593 0 01-.516.844 1.895 1.895 0 01-.734.477 3.038 3.038 0 01-.993.148h-.453v-1.273l.313-.024a1.33 1.33 0 00.57-.156c.162-.089.297-.219.406-.391.11-.177.198-.403.266-.679.073-.276.128-.605.164-.985.042-.38.073-.823.094-1.328l.156-3.617zm9.602 6.164l3.898-6.164h1.453V130h-1.453v-6.164L164.93 130h-1.438v-8.453h1.438v6.164zm11.258-1.844v-.179c0-.61.088-1.175.265-1.696.177-.526.432-.982.766-1.367a3.401 3.401 0 011.211-.906 3.754 3.754 0 011.593-.328c.594 0 1.128.109 1.602.328.479.213.885.515 1.219.906.338.385.596.841.773 1.367a5.24 5.24 0 01.266 1.696v.179c0 .61-.089 1.175-.266 1.695a4.069 4.069 0 01-.773 1.368 3.558 3.558 0 01-1.211.906c-.469.213-1 .32-1.594.32a3.86 3.86 0 01-1.601-.32 3.627 3.627 0 01-1.219-.906 4.123 4.123 0 01-.766-1.368 5.229 5.229 0 01-.265-1.695zm1.445-.179v.179c0 .422.049.821.148 1.195.099.37.248.698.446.985.203.286.455.513.757.68a2.21 2.21 0 001.055.242c.396 0 .742-.081 1.039-.242.302-.167.552-.394.75-.68.198-.287.346-.615.445-.985.105-.374.157-.773.157-1.195v-.179c0-.417-.052-.81-.157-1.18a3.036 3.036 0 00-.453-.992 2.156 2.156 0 00-.75-.688c-.297-.167-.646-.25-1.047-.25-.395 0-.744.083-1.046.25a2.247 2.247 0 00-.75.688 3.131 3.131 0 00-.446.992c-.099.37-.148.763-.148 1.18zm13.484-7.821h1.188c0 .511-.078.917-.235 1.219a1.694 1.694 0 01-.64.687 3.218 3.218 0 01-.907.368c-.333.083-.679.164-1.039.242a4.775 4.775 0 00-1.25.445c-.38.198-.708.479-.984.844-.271.364-.471.838-.602 1.422-.125.583-.158 1.304-.101 2.164v.719h-1.188v-.719c0-.964.092-1.805.274-2.524.187-.718.45-1.325.789-1.82a4.101 4.101 0 011.203-1.18 4.545 4.545 0 011.547-.601c.406-.078.755-.162 1.047-.25.291-.094.513-.219.664-.375.156-.156.234-.37.234-.641zm-1.711 4.164c.552 0 1.045.097 1.477.289.432.193.799.461 1.101.805.302.344.532.75.688 1.219.161.463.242.968.242 1.515v.172c0 .589-.086 1.136-.258 1.641-.166.5-.414.937-.742 1.312-.323.37-.719.659-1.187.868-.464.208-.993.312-1.586.312-.594 0-1.125-.104-1.594-.312a3.481 3.481 0 01-1.188-.868 3.891 3.891 0 01-.75-1.312 5.226 5.226 0 01-.25-1.641v-.172c0-.13.024-.257.071-.382.047-.125.104-.253.172-.383.072-.13.138-.268.195-.414a5.03 5.03 0 01.789-1.305 3.975 3.975 0 011.211-.969c.474-.25 1.01-.375 1.609-.375zm-.281 1.18c-.531 0-.969.122-1.313.367-.338.245-.591.57-.757.977-.167.401-.25.836-.25 1.304v.172c0 .396.047.771.14 1.125.094.354.235.67.422.946a2.1 2.1 0 00.727.64c.297.156.646.235 1.047.235.401 0 .747-.079 1.039-.235.291-.156.531-.37.718-.64.188-.276.329-.592.422-.946.094-.354.141-.729.141-1.125v-.172c0-.354-.047-.69-.141-1.007a2.485 2.485 0 00-.429-.844 1.944 1.944 0 00-.727-.578c-.292-.146-.638-.219-1.039-.219zm12.359-.633c-.317 0-.622.07-.914.211a1.96 1.96 0 00-.711.586 1.39 1.39 0 00-.273.852h-1.383c0-.506.156-.972.469-1.399a3.429 3.429 0 011.219-1.039 3.342 3.342 0 011.593-.398c.594 0 1.12.112 1.578.336.459.224.844.531 1.157.921.317.391.557.842.719 1.352a5.27 5.27 0 01.242 1.609v.329c0 .567-.084 1.106-.25 1.617a4.167 4.167 0 01-.719 1.351 3.34 3.34 0 01-1.156.922c-.453.224-.974.336-1.563.336-.63 0-1.195-.135-1.695-.406a3.12 3.12 0 01-1.172-1.094 2.952 2.952 0 01-.422-1.562h1.383c0 .349.083.666.25.953a1.9 1.9 0 001.656.922c.391 0 .727-.089 1.008-.266.286-.177.521-.412.703-.703a3.21 3.21 0 00.399-.977 4.64 4.64 0 00.132-1.093v-.329c0-.369-.044-.734-.132-1.093a3.21 3.21 0 00-.399-.977 2.019 2.019 0 00-.695-.695c-.281-.177-.623-.266-1.024-.266zm2.954 2.524v1.179h-3.899v-1.179h3.899zm5.515-3.555V130H208.5v-8.453h1.453zm2.836 0v1.172h-7.07v-1.172h7.07zm.711 4.32v-.179c0-.61.089-1.175.266-1.696.177-.526.432-.982.765-1.367a3.41 3.41 0 011.211-.906 3.755 3.755 0 011.594-.328c.594 0 1.128.109 1.602.328.479.213.885.515 1.218.906.339.385.597.841.774 1.367a5.24 5.24 0 01.265 1.696v.179c0 .61-.088 1.175-.265 1.695a4.054 4.054 0 01-.774 1.368 3.548 3.548 0 01-1.211.906c-.468.213-1 .32-1.593.32a3.867 3.867 0 01-1.602-.32 3.637 3.637 0 01-1.219-.906 4.139 4.139 0 01-.765-1.368 5.229 5.229 0 01-.266-1.695zm1.445-.179v.179c0 .422.05.821.149 1.195.099.37.247.698.445.985.203.286.456.513.758.68a2.21 2.21 0 001.055.242c.395 0 .742-.081 1.039-.242.302-.167.552-.394.75-.68.198-.287.346-.615.445-.985.104-.374.156-.773.156-1.195v-.179c0-.417-.052-.81-.156-1.18a3.036 3.036 0 00-.453-.992 2.156 2.156 0 00-.75-.688c-.297-.167-.646-.25-1.047-.25-.396 0-.745.083-1.047.25a2.247 2.247 0 00-.75.688 3.13 3.13 0 00-.445.992c-.099.37-.149.763-.149 1.18zm12.922 2.39l2.875-6.531h1.391L228.367 130h-1l-3.75-8.453h1.391l2.859 6.531zm-3.281-6.531V130h-1.445v-8.453h1.445zm6.516 8.453v-8.453h1.453V130h-1.453zm3.804-.766c0-.244.076-.45.227-.617.156-.172.38-.258.672-.258.291 0 .513.086.664.258a.87.87 0 01.234.617.86.86 0 01-.234.61c-.151.166-.373.25-.664.25-.292 0-.516-.084-.672-.25a.877.877 0 01-.227-.61zm12.438-4.554h-2.883l-.016-1.211h2.617c.433 0 .81-.073 1.133-.219.323-.146.573-.354.75-.625a1.74 1.74 0 00.274-.984c0-.417-.081-.756-.242-1.016-.157-.266-.399-.458-.727-.578-.323-.125-.734-.188-1.234-.188h-2.219V130h-1.508v-11.375h3.727c.583 0 1.104.06 1.562.18.458.114.846.297 1.164.547.323.244.568.557.735.937.166.38.25.836.25 1.367 0 .469-.12.893-.36 1.274a2.761 2.761 0 01-1 .922c-.422.239-.916.393-1.484.46l-.539.368zm-.071 5.32h-3.406l.852-1.227h2.554c.48 0 .886-.083 1.219-.25.339-.166.597-.401.774-.703.177-.307.265-.669.265-1.086 0-.422-.075-.786-.226-1.093a1.56 1.56 0 00-.711-.711c-.323-.167-.74-.25-1.25-.25h-2.149l.016-1.211h2.937l.321.437c.547.047 1.01.203 1.39.469.381.26.67.594.868 1 .203.406.304.854.304 1.344 0 .708-.156 1.307-.469 1.797a2.938 2.938 0 01-1.304 1.109c-.563.25-1.224.375-1.985.375zM6.734 144.547v1.195H2.461v-1.195h4.273zm-4.062 0V153H1.227v-8.453h1.445zm5.344 0V153H6.562v-8.453h1.454zm3.765 1.625v10.078h-1.453v-11.703h1.328l.125 1.625zm5.696 2.531v.164c0 .615-.073 1.185-.22 1.711a4.2 4.2 0 01-.64 1.36 2.923 2.923 0 01-1.023.898c-.406.213-.873.32-1.399.32-.536 0-1.01-.088-1.422-.265a2.8 2.8 0 01-1.046-.774 3.943 3.943 0 01-.688-1.219 7.044 7.044 0 01-.344-1.601v-.875c.063-.625.18-1.185.352-1.68.172-.495.398-.916.68-1.265a2.78 2.78 0 011.039-.805c.406-.188.875-.281 1.406-.281.531 0 1.002.104 1.414.312.411.203.758.495 1.039.875a4 4 0 01.633 1.367c.146.526.219 1.112.219 1.758zm-1.454.164v-.164c0-.422-.044-.818-.132-1.187a3 3 0 00-.414-.985 1.981 1.981 0 00-.704-.672c-.286-.166-.627-.25-1.023-.25-.365 0-.682.063-.953.188a2.054 2.054 0 00-.68.508 2.699 2.699 0 00-.46.718 4.14 4.14 0 00-.259.829v2.023c.105.365.25.708.438 1.031.187.318.437.576.75.774.312.192.706.289 1.18.289.39 0 .726-.081 1.007-.242.287-.167.521-.394.704-.68.187-.287.325-.615.414-.985a5.21 5.21 0 00.132-1.195zm2.915 0v-.179c0-.61.088-1.175.265-1.696.177-.526.432-.982.766-1.367a3.404 3.404 0 011.21-.906 3.755 3.755 0 011.594-.328c.594 0 1.128.109 1.602.328.48.213.885.515 1.219.906.338.385.596.841.773 1.367a5.24 5.24 0 01.266 1.696v.179c0 .61-.089 1.175-.266 1.695a4.063 4.063 0 01-.773 1.368 3.552 3.552 0 01-1.211.906c-.469.213-1 .32-1.594.32a3.866 3.866 0 01-1.602-.32 3.631 3.631 0 01-1.218-.906 4.135 4.135 0 01-.766-1.368 5.226 5.226 0 01-.265-1.695zm1.445-.179v.179c0 .422.05.821.148 1.195.1.37.248.698.446.985.203.286.455.513.757.68a2.21 2.21 0 001.055.242c.396 0 .742-.081 1.04-.242a2.19 2.19 0 00.75-.68c.197-.287.345-.615.444-.985.105-.374.157-.773.157-1.195v-.179c0-.417-.052-.81-.157-1.18a3.032 3.032 0 00-.453-.992 2.155 2.155 0 00-.75-.688c-.297-.167-.646-.25-1.047-.25-.395 0-.744.083-1.046.25a2.249 2.249 0 00-.75.688 3.13 3.13 0 00-.446.992c-.099.37-.148.763-.148 1.18zM28.57 153v-8.453h1.446v7.265h3.89v-7.265h1.453V153H28.57zm7.79-1.188l-.141 3.696h-1.29V153h-1.1v-1.188h2.53zm5.078 1.344a4.157 4.157 0 01-1.602-.297 3.636 3.636 0 01-1.227-.851 3.792 3.792 0 01-.78-1.297 4.757 4.757 0 01-.274-1.641v-.328c0-.687.101-1.299.304-1.836.203-.541.48-1 .828-1.375a3.536 3.536 0 011.188-.851 3.406 3.406 0 011.375-.289c.604 0 1.125.104 1.563.312.442.208.804.5 1.085.875.282.37.49.807.625 1.313.136.5.204 1.047.204 1.64v.649h-6.313V148h4.867v-.109a3.605 3.605 0 00-.234-1.094 1.967 1.967 0 00-.625-.875c-.287-.229-.677-.344-1.172-.344a1.962 1.962 0 00-1.617.82 3.07 3.07 0 00-.461.993c-.11.39-.164.841-.164 1.351v.328c0 .401.054.779.164 1.133.114.349.279.656.492.922.219.266.482.474.79.625.312.151.666.227 1.062.227.51 0 .942-.105 1.297-.313.354-.208.664-.487.93-.836l.874.695a4.047 4.047 0 01-.695.789 3.31 3.31 0 01-1.04.61c-.405.156-.887.234-1.444.234zm8.359-1.187c.344 0 .661-.071.953-.211.292-.141.531-.334.719-.578.187-.25.294-.534.32-.852h1.375c-.026.5-.195.966-.508 1.399a3.47 3.47 0 01-1.21 1.039c-.5.26-1.05.39-1.65.39-.635 0-1.19-.112-1.663-.336a3.295 3.295 0 01-1.172-.922 4.112 4.112 0 01-.695-1.343 5.677 5.677 0 01-.227-1.617v-.329c0-.567.076-1.104.227-1.609.156-.51.388-.961.695-1.352.312-.39.703-.697 1.172-.921.474-.224 1.028-.336 1.664-.336.661 0 1.24.135 1.734.406.495.265.883.63 1.164 1.094.287.458.443.979.47 1.562h-1.376a2.08 2.08 0 00-.297-.945 1.856 1.856 0 00-.687-.672 1.92 1.92 0 00-1.008-.258c-.443 0-.815.089-1.117.266a1.956 1.956 0 00-.711.703 3.285 3.285 0 00-.375.976c-.073.355-.11.717-.11 1.086v.329c0 .369.037.734.11 1.093.073.36.195.685.367.977.177.291.414.526.71.703.303.172.678.258 1.126.258zm8.375 0c.344 0 .661-.071.953-.211.292-.141.531-.334.719-.578.187-.25.294-.534.32-.852h1.375c-.026.5-.195.966-.508 1.399a3.47 3.47 0 01-1.21 1.039c-.5.26-1.05.39-1.65.39-.635 0-1.19-.112-1.663-.336a3.295 3.295 0 01-1.172-.922 4.112 4.112 0 01-.695-1.343 5.677 5.677 0 01-.227-1.617v-.329c0-.567.076-1.104.227-1.609.156-.51.388-.961.695-1.352.312-.39.703-.697 1.172-.921.474-.224 1.028-.336 1.664-.336.661 0 1.24.135 1.734.406.495.265.883.63 1.164 1.094.287.458.443.979.47 1.562h-1.376a2.08 2.08 0 00-.297-.945 1.856 1.856 0 00-.687-.672 1.92 1.92 0 00-1.008-.258c-.443 0-.815.089-1.117.266a1.956 1.956 0 00-.711.703 3.285 3.285 0 00-.375.976c-.073.355-.11.717-.11 1.086v.329c0 .369.037.734.11 1.093.073.36.195.685.367.977.177.291.414.526.71.703.303.172.678.258 1.126.258zm8.5 1.187a4.157 4.157 0 01-1.602-.297 3.636 3.636 0 01-1.226-.851 3.792 3.792 0 01-.782-1.297 4.757 4.757 0 01-.273-1.641v-.328c0-.687.102-1.299.305-1.836.203-.541.479-1 .828-1.375a3.535 3.535 0 011.187-.851 3.406 3.406 0 011.375-.289c.605 0 1.125.104 1.563.312.443.208.805.5 1.086.875.281.37.49.807.625 1.313.135.5.203 1.047.203 1.64v.649h-6.313V148h4.868v-.109a3.602 3.602 0 00-.235-1.094 1.966 1.966 0 00-.625-.875c-.286-.229-.677-.344-1.172-.344a1.963 1.963 0 00-1.617.82 3.072 3.072 0 00-.46.993c-.11.39-.165.841-.165 1.351v.328c0 .401.055.779.164 1.133.115.349.279.656.492.922.22.266.482.474.79.625.312.151.666.227 1.062.227.51 0 .943-.105 1.297-.313.354-.208.664-.487.93-.836l.875.695a4.044 4.044 0 01-.696.789c-.281.25-.627.454-1.039.61-.406.156-.888.234-1.445.234zM79 151.969c.344 0 .662-.071.953-.211.292-.141.531-.334.719-.578a1.61 1.61 0 00.32-.852h1.375c-.026.5-.195.966-.508 1.399A3.472 3.472 0 0179 153.156c-.635 0-1.19-.112-1.664-.336a3.295 3.295 0 01-1.172-.922 4.11 4.11 0 01-.695-1.343 5.674 5.674 0 01-.227-1.617v-.329c0-.567.076-1.104.227-1.609.156-.51.388-.961.695-1.352.313-.39.703-.697 1.172-.921.474-.224 1.029-.336 1.664-.336.662 0 1.24.135 1.734.406.495.265.883.63 1.164 1.094.287.458.443.979.47 1.562h-1.376a2.08 2.08 0 00-.297-.945 1.856 1.856 0 00-.687-.672 1.92 1.92 0 00-1.008-.258c-.443 0-.815.089-1.117.266a1.957 1.957 0 00-.711.703 3.285 3.285 0 00-.375.976c-.073.355-.11.717-.11 1.086v.329c0 .369.037.734.11 1.093.073.36.195.685.367.977.177.291.414.526.711.703.302.172.677.258 1.125.258zm4.61-3.102v-.179c0-.61.088-1.175.265-1.696.177-.526.432-.982.766-1.367a3.405 3.405 0 011.21-.906 3.755 3.755 0 011.594-.328c.594 0 1.128.109 1.602.328.479.213.885.515 1.219.906.338.385.596.841.773 1.367a5.24 5.24 0 01.266 1.696v.179c0 .61-.089 1.175-.266 1.695a4.062 4.062 0 01-.773 1.368 3.551 3.551 0 01-1.211.906c-.47.213-1 .32-1.594.32a3.866 3.866 0 01-1.602-.32 3.632 3.632 0 01-1.218-.906 4.136 4.136 0 01-.766-1.368 5.226 5.226 0 01-.266-1.695zm1.445-.179v.179c0 .422.05.821.148 1.195.1.37.248.698.445.985.204.286.456.513.758.68a2.21 2.21 0 001.055.242c.396 0 .742-.081 1.039-.242a2.19 2.19 0 00.75-.68c.198-.287.346-.615.445-.985.105-.374.157-.773.157-1.195v-.179c0-.417-.053-.81-.157-1.18a3.032 3.032 0 00-.453-.992 2.155 2.155 0 00-.75-.688c-.297-.167-.646-.25-1.047-.25-.395 0-.744.083-1.047.25a2.25 2.25 0 00-.75.688 3.133 3.133 0 00-.445.992c-.099.37-.148.763-.148 1.18zm11.336-4.141V153h-1.454v-8.453h1.454zm2.836 0v1.172h-7.07v-1.172h7.07zm2.867 1.625v10.078h-1.453v-11.703h1.328l.125 1.625zm5.695 2.531v.164c0 .615-.073 1.185-.219 1.711a4.222 4.222 0 01-.64 1.36 2.926 2.926 0 01-1.024.898c-.406.213-.872.32-1.398.32-.537 0-1.011-.088-1.422-.265a2.8 2.8 0 01-1.047-.774 3.936 3.936 0 01-.687-1.219 7.001 7.001 0 01-.344-1.601v-.875c.062-.625.18-1.185.351-1.68.172-.495.399-.916.68-1.265a2.786 2.786 0 011.039-.805c.406-.188.875-.281 1.406-.281.532 0 1.003.104 1.414.312a2.85 2.85 0 011.04.875c.281.38.492.836.632 1.367.146.526.219 1.112.219 1.758zm-1.453.164v-.164c0-.422-.044-.818-.133-1.187a2.98 2.98 0 00-.414-.985 1.982 1.982 0 00-.703-.672c-.287-.166-.628-.25-1.024-.25-.364 0-.682.063-.953.188a2.054 2.054 0 00-.679.508 2.692 2.692 0 00-.461.718 4.09 4.09 0 00-.258.829v2.023c.104.365.25.708.437 1.031.188.318.438.576.75.774.313.192.706.289 1.18.289.391 0 .727-.081 1.008-.242a2.05 2.05 0 00.703-.68c.188-.287.326-.615.414-.985.089-.374.133-.773.133-1.195zm5.578 3.258l2.352-7.578h1.546l-3.39 9.758a5.297 5.297 0 01-.313.672 3.235 3.235 0 01-.484.695 2.289 2.289 0 01-.719.531c-.276.141-.607.211-.992.211-.115 0-.26-.016-.437-.047a3.97 3.97 0 01-.375-.078l-.008-1.172c.041.005.107.011.195.016a2.34 2.34 0 001.031-.117 1.27 1.27 0 00.578-.43c.162-.198.3-.471.414-.82l.602-1.641zm-1.726-7.578l2.195 6.562.375 1.524-1.039.531-3.11-8.617h1.579zm8.015 0h1.445l-.125 3.164c-.031.802-.122 1.495-.273 2.078a6.12 6.12 0 01-.578 1.492 4.469 4.469 0 01-.789 1.024 5.222 5.222 0 01-.891.695h-.719l.039-1.18.297-.008c.172-.203.339-.411.5-.624a4.33 4.33 0 00.446-.774c.135-.302.247-.669.336-1.102.093-.437.153-.971.179-1.601l.133-3.164zm.359 0h5.086V153h-1.445v-7.117h-3.641v-1.336zm-2.617 7.265h8.789v3.68h-1.445V153h-5.898v2.492h-1.453l.007-3.68zm16.125-3.601v1.172h-4.468v-1.172h4.468zm-4.164-3.664V153h-1.445v-8.453h1.445zm5.336 0V153h-1.453v-8.453h1.453zm3.891 6.164l3.898-6.164h1.453V153h-1.453v-6.164L137.133 153h-1.438v-8.453h1.438v6.164zm14.047-6.164V153h-1.446v-8.453h1.446zm-.492 3.883v1.187c-.292.11-.589.209-.891.297a8.226 8.226 0 01-.945.203 7.578 7.578 0 01-1.071.071c-.666 0-1.245-.115-1.734-.344a2.527 2.527 0 01-1.133-1.055c-.266-.474-.398-1.07-.398-1.789v-2.469h1.445V147c0 .469.07.849.211 1.141.14.291.346.507.617.648.271.135.602.203.992.203.375 0 .727-.023 1.055-.07.333-.052.651-.12.953-.203.307-.084.607-.18.899-.289zm6.328 4.726a4.157 4.157 0 01-1.602-.297 3.626 3.626 0 01-1.226-.851 3.798 3.798 0 01-.782-1.297 4.764 4.764 0 01-.273-1.641v-.328c0-.687.101-1.299.305-1.836.203-.541.479-1 .828-1.375a3.532 3.532 0 011.187-.851 3.407 3.407 0 011.375-.289c.604 0 1.125.104 1.563.312.442.208.804.5 1.086.875.281.37.489.807.625 1.313.135.5.203 1.047.203 1.64v.649h-6.313V148h4.867v-.109a3.592 3.592 0 00-.234-1.094 1.968 1.968 0 00-.625-.875c-.286-.229-.677-.344-1.172-.344a1.962 1.962 0 00-1.617.82 3.061 3.061 0 00-.461.993c-.109.39-.164.841-.164 1.351v.328c0 .401.055.779.164 1.133.115.349.279.656.492.922.219.266.482.474.789.625.313.151.667.227 1.063.227.51 0 .942-.105 1.297-.313.354-.208.664-.487.929-.836l.875.695a4.041 4.041 0 01-.695.789c-.281.25-.628.454-1.039.61-.406.156-.888.234-1.445.234zm8.359-1.187c.344 0 .661-.071.953-.211.292-.141.531-.334.719-.578.187-.25.294-.534.32-.852h1.375c-.026.5-.195.966-.508 1.399a3.47 3.47 0 01-1.211 1.039c-.5.26-1.049.39-1.648.39-.635 0-1.19-.112-1.664-.336a3.298 3.298 0 01-1.172-.922 4.11 4.11 0 01-.695-1.343 5.677 5.677 0 01-.227-1.617v-.329c0-.567.076-1.104.227-1.609.156-.51.388-.961.695-1.352.313-.39.703-.697 1.172-.921.474-.224 1.029-.336 1.664-.336.661 0 1.24.135 1.734.406.495.265.883.63 1.164 1.094.287.458.443.979.469 1.562h-1.375a2.078 2.078 0 00-.297-.945 1.854 1.854 0 00-.687-.672 1.923 1.923 0 00-1.008-.258c-.443 0-.815.089-1.117.266a1.956 1.956 0 00-.711.703 3.28 3.28 0 00-.375.976c-.073.355-.11.717-.11 1.086v.329c0 .369.037.734.11 1.093.073.36.195.685.367.977.177.291.414.526.711.703.302.172.677.258 1.125.258zm8.437-7.422V153h-1.453v-8.453h1.453zm2.836 0v1.172h-7.07v-1.172h7.07zm5.391 4.734h-2.773l-.016-1.156h2.266c.448 0 .82-.044 1.117-.133.302-.088.528-.221.679-.398a.972.972 0 00.227-.656 1.027 1.027 0 00-.516-.915 1.886 1.886 0 00-.64-.226 4.382 4.382 0 00-.883-.078h-1.852V153h-1.445v-8.453h3.297c.536 0 1.018.047 1.445.141.433.093.8.236 1.102.429.307.188.542.427.703.719a2.1 2.1 0 01.242 1.031 1.74 1.74 0 01-.617 1.336 2.505 2.505 0 01-.75.438 3.91 3.91 0 01-1.023.211l-.563.429zm0 3.719h-3.297l.719-1.172h2.578c.401 0 .734-.049 1-.148.266-.104.464-.25.594-.438.135-.193.203-.422.203-.687 0-.266-.068-.493-.203-.68-.13-.193-.328-.339-.594-.437-.266-.105-.599-.157-1-.157h-2.195l.015-1.156h2.743l.523.437c.464.037.857.152 1.18.344.323.193.567.438.734.735.167.291.25.609.25.953 0 .396-.075.745-.227 1.047a1.984 1.984 0 01-.64.757 3.147 3.147 0 01-1.024.454 5.686 5.686 0 01-1.359.148zm10.172-1.445v-4.352a1.77 1.77 0 00-.203-.867 1.325 1.325 0 00-.594-.578c-.266-.136-.594-.203-.984-.203-.365 0-.685.062-.961.187a1.672 1.672 0 00-.641.492 1.08 1.08 0 00-.226.657h-1.446c0-.302.078-.602.235-.899a2.62 2.62 0 01.671-.804 3.373 3.373 0 011.063-.579c.417-.145.88-.218 1.391-.218.614 0 1.156.104 1.625.312.474.208.843.524 1.109.945.271.417.406.941.406 1.571v3.937c0 .282.024.581.071.899.052.317.127.591.226.82V153h-1.508a2.715 2.715 0 01-.172-.664 5.446 5.446 0 01-.062-.781zm.25-3.68l.016 1.016h-1.461a5.38 5.38 0 00-1.102.101 2.526 2.526 0 00-.812.289c-.219.13-.386.295-.5.492-.115.193-.172.42-.172.68 0 .266.06.508.179.727.12.218.3.393.539.523.245.125.545.188.899.188.443 0 .833-.094 1.172-.282.338-.187.607-.416.804-.687.204-.271.313-.534.329-.789l.617.695a2.122 2.122 0 01-.297.727 3.482 3.482 0 01-.649.765 3.49 3.49 0 01-.953.602 3.107 3.107 0 01-1.234.234c-.573 0-1.076-.112-1.508-.336a2.58 2.58 0 01-1-.898 2.382 2.382 0 01-.351-1.274c0-.453.088-.851.265-1.195a2.3 2.3 0 01.766-.867 3.623 3.623 0 011.203-.531c.469-.12.992-.18 1.57-.18h1.68zm12.297 3.203l2.875-6.531h1.39L205.258 153h-1l-3.75-8.453h1.39l2.86 6.531zm-3.281-6.531V153h-1.446v-8.453h1.446zm6.515 8.453v-8.453h1.453V153h-1.453zm4.969-5.547h2.539c.682 0 1.258.12 1.727.359.468.235.822.56 1.062.977.245.412.367.88.367 1.406 0 .391-.067.758-.203 1.102a2.478 2.478 0 01-.609.891 2.828 2.828 0 01-.992.601 3.978 3.978 0 01-1.352.211h-3.594v-8.453h1.446v7.265h2.148c.417 0 .75-.075 1-.226.25-.151.43-.346.539-.586a1.795 1.795 0 000-1.5 1.396 1.396 0 00-.539-.609c-.25-.167-.583-.25-1-.25h-2.539v-1.188zm8.703-2.906V153h-1.445v-8.453h1.445zM3.477 175.125l2.351-7.578h1.547l-3.39 9.758a5.421 5.421 0 01-.313.672 3.24 3.24 0 01-.485.695 2.295 2.295 0 01-.718.531c-.276.141-.607.211-.992.211-.115 0-.26-.016-.438-.047a4.106 4.106 0 01-.375-.078l-.008-1.172c.042.005.107.011.196.016a2.339 2.339 0 001.031-.117 1.27 1.27 0 00.578-.43c.161-.198.3-.471.414-.82l.602-1.641zm-1.727-7.578l2.195 6.562.375 1.524-1.039.531-3.11-8.617H1.75zm10.898 4.734H9.875l-.016-1.156h2.266c.448 0 .82-.044 1.117-.133.302-.088.529-.221.68-.398a.976.976 0 00.226-.656c0-.204-.044-.381-.132-.532a.968.968 0 00-.383-.383 1.895 1.895 0 00-.64-.226 4.383 4.383 0 00-.884-.078h-1.851V176H8.813v-8.453h3.296a6.75 6.75 0 011.446.141c.432.093.8.236 1.101.429.307.188.542.427.703.719.162.292.243.635.243 1.031a1.737 1.737 0 01-.618 1.336 2.51 2.51 0 01-.75.438 3.909 3.909 0 01-1.023.211l-.563.429zm0 3.719H9.352l.718-1.172h2.578c.402 0 .735-.049 1-.148.266-.104.464-.25.594-.438.136-.193.203-.422.203-.687 0-.266-.067-.493-.203-.68-.13-.193-.328-.339-.594-.437-.265-.105-.598-.157-1-.157h-2.195l.016-1.156h2.742l.523.437c.464.037.857.152 1.18.344.323.193.568.438.734.735.167.291.25.609.25.953 0 .396-.075.745-.226 1.047a1.99 1.99 0 01-.64.757 3.145 3.145 0 01-1.024.454 5.688 5.688 0 01-1.36.148zm8.696.156a4.157 4.157 0 01-1.602-.297 3.636 3.636 0 01-1.226-.851 3.793 3.793 0 01-.782-1.297 4.757 4.757 0 01-.273-1.641v-.328c0-.687.102-1.299.305-1.836.203-.541.479-1 .828-1.375a3.535 3.535 0 011.187-.851 3.406 3.406 0 011.375-.289c.604 0 1.125.104 1.563.312.442.208.804.5 1.086.875.28.37.49.807.625 1.313.135.5.203 1.047.203 1.64v.649H18.32V171h4.867v-.109a3.605 3.605 0 00-.234-1.094 1.966 1.966 0 00-.625-.875c-.286-.229-.677-.344-1.172-.344a1.962 1.962 0 00-1.617.82 3.07 3.07 0 00-.46.993c-.11.39-.165.841-.165 1.351v.328c0 .401.055.779.164 1.133.115.349.279.656.492.922.22.266.482.474.79.625.312.151.666.227 1.062.227.51 0 .943-.105 1.297-.313.354-.208.664-.487.93-.836l.874.695a4.043 4.043 0 01-.695.789c-.281.25-.627.454-1.039.61-.406.156-.888.234-1.445.234zm10.625-8.609v1.195h-4.086v-1.195h4.086zm1.273 0V176h-1.445v-8.453h1.445zm-5.71 0h1.452l-.218 4.078c-.037.63-.097 1.187-.18 1.672a5.692 5.692 0 01-.328 1.234 2.577 2.577 0 01-.516.844 1.894 1.894 0 01-.734.477 3.034 3.034 0 01-.992.148h-.453v-1.273l.312-.024a1.33 1.33 0 00.57-.156c.162-.089.297-.219.407-.391.109-.177.197-.403.265-.679.073-.276.128-.605.164-.985.042-.38.073-.823.094-1.328l.156-3.617zm9.6 6.164l3.9-6.164h1.452V176h-1.453v-6.164L37.133 176h-1.438v-8.453h1.438v6.164zm14.048-6.164V176h-1.446v-8.453h1.446zm-.492 3.883v1.187c-.292.11-.589.209-.891.297a8.213 8.213 0 01-.945.203 7.566 7.566 0 01-1.07.071c-.667 0-1.245-.115-1.735-.344a2.527 2.527 0 01-1.133-1.055c-.266-.474-.398-1.07-.398-1.789v-2.469h1.445V170c0 .469.07.849.21 1.141.142.291.347.507.618.648.27.135.602.203.992.203a7.45 7.45 0 001.055-.07c.333-.052.651-.12.953-.203.307-.084.607-.18.898-.289zm4.382 2.281l3.899-6.164h1.453V176h-1.453v-6.164L55.07 176h-1.437v-8.453h1.437v6.164zm13.32-6.164v1.195h-4.085v-1.195h4.086zm1.274 0V176H68.22v-8.453h1.445zm-5.71 0h1.452l-.219 4.078a15.15 15.15 0 01-.18 1.672 5.692 5.692 0 01-.327 1.234 2.577 2.577 0 01-.516.844 1.895 1.895 0 01-.734.477 3.035 3.035 0 01-.992.148h-.454v-1.273l.313-.024a1.33 1.33 0 00.57-.156c.162-.089.297-.219.406-.391.11-.177.198-.403.266-.679.073-.276.128-.605.164-.985.042-.38.073-.823.094-1.328l.156-3.617zm9.6 6.164l3.9-6.164h1.452V176h-1.453v-6.164L73.555 176h-1.438v-8.453h1.438v6.164zm15.024 1.258c.344 0 .662-.071.953-.211.292-.141.531-.334.719-.578a1.61 1.61 0 00.32-.852h1.375c-.026.5-.195.966-.507 1.399a3.472 3.472 0 01-2.86 1.429c-.635 0-1.19-.112-1.664-.336a3.295 3.295 0 01-1.172-.922 4.11 4.11 0 01-.695-1.343 5.674 5.674 0 01-.227-1.617v-.329c0-.567.076-1.104.227-1.609.156-.51.388-.961.695-1.352.313-.39.703-.697 1.172-.921.474-.224 1.029-.336 1.664-.336.662 0 1.24.135 1.734.406.495.265.883.63 1.165 1.094.286.458.442.979.468 1.562H90.57a2.079 2.079 0 00-.297-.945 1.855 1.855 0 00-.687-.672 1.92 1.92 0 00-1.008-.258c-.443 0-.815.089-1.117.266a1.958 1.958 0 00-.711.703 3.285 3.285 0 00-.375.976c-.073.355-.11.717-.11 1.086v.329c0 .369.037.734.11 1.093.073.36.195.685.367.977.177.291.414.526.711.703.302.172.677.258 1.125.258zm7.367.156l2.352-7.578h1.547l-3.39 9.758a5.417 5.417 0 01-.313.672 3.238 3.238 0 01-.485.695 2.294 2.294 0 01-.719.531c-.275.141-.606.211-.992.211-.114 0-.26-.016-.437-.047a4.104 4.104 0 01-.375-.078l-.008-1.172c.042.005.107.011.195.016a2.34 2.34 0 001.031-.117c.23-.084.422-.227.579-.43.161-.198.3-.471.414-.82l.601-1.641zm-1.726-7.578l2.195 6.562.375 1.524-1.039.531-3.11-8.617h1.579zm11.789 6.531l2.875-6.531h1.39L106.508 176h-1l-3.75-8.453h1.39l2.86 6.531zm-3.281-6.531V176h-1.446v-8.453h1.446zm6.515 8.453v-8.453h1.453V176h-1.453zm8.641-1.922l2.875-6.531h1.39L118.383 176h-1l-3.75-8.453h1.39l2.86 6.531zm-3.281-6.531V176h-1.446v-8.453h1.446zm6.515 8.453v-8.453h1.453V176h-1.453zm6.156-.875l2.352-7.578h1.547l-3.391 9.758a5.423 5.423 0 01-.312.672 3.24 3.24 0 01-.485.695 2.296 2.296 0 01-.718.531c-.276.141-.607.211-.993.211-.114 0-.26-.016-.437-.047a4.119 4.119 0 01-.375-.078l-.008-1.172c.042.005.107.011.195.016a2.34 2.34 0 001.032-.117 1.27 1.27 0 00.578-.43c.161-.198.299-.471.414-.82l.601-1.641zm-1.726-7.578l2.195 6.562.375 1.524-1.039.531-3.109-8.617h1.578zm14.867 4.734h-2.773l-.016-1.156h2.266c.448 0 .82-.044 1.117-.133.302-.088.528-.221.68-.398a.976.976 0 00.226-.656 1.027 1.027 0 00-.516-.915 1.886 1.886 0 00-.64-.226 4.382 4.382 0 00-.883-.078h-1.852V176h-1.445v-8.453h3.297c.536 0 1.018.047 1.445.141.433.093.8.236 1.102.429.307.188.542.427.703.719a2.1 2.1 0 01.242 1.031 1.74 1.74 0 01-.617 1.336 2.505 2.505 0 01-.75.438 3.91 3.91 0 01-1.023.211l-.563.429zm0 3.719h-3.297l.719-1.172h2.578c.401 0 .734-.049 1-.148.266-.104.464-.25.594-.438.135-.193.203-.422.203-.687 0-.266-.068-.493-.203-.68-.13-.193-.328-.339-.594-.437-.266-.105-.599-.157-1-.157h-2.195l.015-1.156h2.743l.523.437c.464.037.857.152 1.18.344.323.193.567.438.734.735.167.291.25.609.25.953 0 .396-.075.745-.226 1.047-.146.302-.36.554-.641.757a3.147 3.147 0 01-1.024.454 5.686 5.686 0 01-1.359.148zm10.836-8.453v1.195h-4.086v-1.195h4.086zm1.273 0V176h-1.445v-8.453h1.445zm-5.711 0h1.454l-.219 4.078c-.037.63-.096 1.187-.18 1.672a5.664 5.664 0 01-.328 1.234 2.56 2.56 0 01-.516.844 1.888 1.888 0 01-.734.477 3.031 3.031 0 01-.992.148h-.453v-1.273l.312-.024c.224-.015.414-.068.571-.156a1.13 1.13 0 00.406-.391c.109-.177.198-.403.265-.679.073-.276.128-.605.164-.985.042-.38.073-.823.094-1.328l.156-3.617zm7.657 4.32v-.179c0-.61.088-1.175.265-1.696.177-.526.433-.982.766-1.367a3.401 3.401 0 011.211-.906 3.755 3.755 0 011.594-.328c.593 0 1.127.109 1.601.328.479.213.886.515 1.219.906.339.385.596.841.773 1.367.178.521.266 1.086.266 1.696v.179c0 .61-.088 1.175-.266 1.695a4.052 4.052 0 01-.773 1.368 3.548 3.548 0 01-1.211.906c-.469.213-1 .32-1.594.32a3.866 3.866 0 01-1.601-.32 3.637 3.637 0 01-1.219-.906 4.14 4.14 0 01-.766-1.368 5.229 5.229 0 01-.265-1.695zm1.445-.179v.179c0 .422.05.821.148 1.195.099.37.248.698.446.985.203.286.456.513.758.68.302.161.653.242 1.054.242.396 0 .742-.081 1.039-.242.302-.167.552-.394.75-.68.198-.287.347-.615.446-.985.104-.374.156-.773.156-1.195v-.179c0-.417-.052-.81-.156-1.18a3.036 3.036 0 00-.453-.992 2.156 2.156 0 00-.75-.688c-.297-.167-.646-.25-1.047-.25-.396 0-.745.083-1.047.25a2.247 2.247 0 00-.75.688 3.131 3.131 0 00-.446.992 4.59 4.59 0 00-.148 1.18zm10.453.632l-3.203-4.773h1.742l2.188 3.5h1.687l-.211 1.273h-2.203zm.789-.148L164.703 176h-1.828l3.367-4.875.914 1.047zm2.367-4.625V176h-1.445v-8.453h1.445zm4.93 0l-3.203 4.773h-2.203l-.227-1.273h1.696l2.187-3.5h1.75zM172.906 176l-2.461-3.828.93-1.047 3.359 4.875h-1.828zm6.516.156a4.157 4.157 0 01-1.602-.297 3.636 3.636 0 01-1.226-.851 3.798 3.798 0 01-.782-1.297 4.764 4.764 0 01-.273-1.641v-.328c0-.687.102-1.299.305-1.836.203-.541.479-1 .828-1.375a3.541 3.541 0 011.187-.851 3.407 3.407 0 011.375-.289c.605 0 1.125.104 1.563.312.443.208.805.5 1.086.875.281.37.489.807.625 1.313.135.5.203 1.047.203 1.64v.649h-6.313V171h4.868v-.109a3.594 3.594 0 00-.235-1.094 1.96 1.96 0 00-.625-.875c-.286-.229-.677-.344-1.172-.344a1.962 1.962 0 00-1.617.82 3.082 3.082 0 00-.461.993c-.109.39-.164.841-.164 1.351v.328c0 .401.055.779.164 1.133.115.349.279.656.492.922.219.266.482.474.79.625.312.151.666.227 1.062.227.51 0 .943-.105 1.297-.313.354-.208.664-.487.93-.836l.875.695a4.048 4.048 0 01-.696.789c-.281.25-.627.454-1.039.61-.406.156-.888.234-1.445.234zm10.711-4.945v1.172h-4.469v-1.172h4.469zm-4.164-3.664V176h-1.446v-8.453h1.446zm5.336 0V176h-1.453v-8.453h1.453zm3.89 6.164l3.899-6.164h1.453V176h-1.453v-6.164L195.195 176h-1.437v-8.453h1.437v6.164zm9.235 0l3.898-6.164h1.453V176h-1.453v-6.164L204.43 176h-1.438v-8.453h1.438v6.164zm3.109-9.227h1.172c0 .407-.094.769-.281 1.086a1.934 1.934 0 01-.805.735c-.349.177-.763.265-1.242.265-.724 0-1.297-.192-1.719-.578-.417-.39-.625-.893-.625-1.508h1.172c0 .308.088.578.266.813.177.234.479.351.906.351.416 0 .713-.117.89-.351.178-.235.266-.505.266-.813zm4.586 10.75c0-.244.076-.45.227-.617.156-.172.38-.258.671-.258.292 0 .513.086.665.258a.87.87 0 01.234.617.86.86 0 01-.234.61c-.152.166-.373.25-.665.25-.291 0-.515-.084-.671-.25a.877.877 0 01-.227-.61zm15.813-5.718v1.226h-6.157v-1.226h6.157zm-5.922-4.891V176h-1.508v-11.375h1.508zm7.234 0V176h-1.5v-11.375h1.5zm7.445 9.93v-4.352c0-.333-.067-.622-.203-.867a1.325 1.325 0 00-.594-.578c-.265-.136-.593-.203-.984-.203-.365 0-.685.062-.961.187a1.68 1.68 0 00-.641.492 1.08 1.08 0 00-.226.657h-1.445c0-.302.078-.602.234-.899a2.61 2.61 0 01.672-.804 3.367 3.367 0 011.062-.579 4.215 4.215 0 011.391-.218c.615 0 1.156.104 1.625.312.474.208.844.524 1.109.945.271.417.407.941.407 1.571v3.937c0 .282.023.581.07.899.052.317.128.591.227.82V176h-1.508a2.67 2.67 0 01-.172-.664 5.314 5.314 0 01-.063-.781zm.25-3.68l.016 1.016H235.5c-.411 0-.779.033-1.102.101a2.543 2.543 0 00-.812.289 1.38 1.38 0 00-.5.492c-.115.193-.172.42-.172.68 0 .266.06.508.18.727.12.218.299.393.539.523.245.125.544.188.898.188.443 0 .834-.094 1.172-.282.339-.187.607-.416.805-.687.203-.271.312-.534.328-.789l.617.695c-.036.219-.135.461-.297.727a3.521 3.521 0 01-1.601 1.367 3.112 3.112 0 01-1.235.234c-.573 0-1.075-.112-1.508-.336a2.58 2.58 0 01-1-.898 2.382 2.382 0 01-.351-1.274c0-.453.088-.851.266-1.195.177-.349.432-.638.765-.867a3.641 3.641 0 011.203-.531c.469-.12.993-.18 1.571-.18h1.679zM6.735 190.547v1.195H2.46v-1.195h4.273zm-4.063 0V199H1.227v-8.453h1.445zm5.344 0V199H6.562v-8.453h1.454zm3.765 1.625v10.078h-1.453v-11.703h1.328l.125 1.625zm5.696 2.531v.164c0 .615-.073 1.185-.22 1.711a4.2 4.2 0 01-.64 1.36 2.923 2.923 0 01-1.023.898c-.406.213-.873.32-1.399.32-.536 0-1.01-.088-1.422-.265a2.8 2.8 0 01-1.046-.774 3.943 3.943 0 01-.688-1.219 7.044 7.044 0 01-.344-1.601v-.875c.063-.625.18-1.185.352-1.68.172-.495.398-.916.68-1.265a2.78 2.78 0 011.039-.805c.406-.188.875-.281 1.406-.281.531 0 1.002.104 1.414.312.411.203.758.495 1.039.875a4 4 0 01.633 1.367c.146.526.219 1.112.219 1.758zm-1.454.164v-.164c0-.422-.044-.818-.132-1.187a3 3 0 00-.414-.985 1.981 1.981 0 00-.704-.672c-.286-.166-.627-.25-1.023-.25-.365 0-.682.063-.953.188a2.054 2.054 0 00-.68.508 2.699 2.699 0 00-.46.718 4.14 4.14 0 00-.259.829v2.023c.105.365.25.708.438 1.031.187.318.437.576.75.774.312.192.706.289 1.18.289.39 0 .726-.081 1.007-.242.287-.167.521-.394.704-.68.187-.287.325-.615.414-.985a5.21 5.21 0 00.132-1.195zm2.915 0v-.179c0-.61.088-1.175.265-1.696.177-.526.432-.982.766-1.367a3.404 3.404 0 011.21-.906 3.755 3.755 0 011.594-.328c.594 0 1.128.109 1.602.328.48.213.885.515 1.219.906.338.385.596.841.773 1.367a5.24 5.24 0 01.266 1.696v.179c0 .61-.089 1.175-.266 1.695a4.063 4.063 0 01-.773 1.368 3.552 3.552 0 01-1.211.906c-.469.213-1 .32-1.594.32a3.866 3.866 0 01-1.602-.32 3.631 3.631 0 01-1.218-.906 4.135 4.135 0 01-.766-1.368 5.226 5.226 0 01-.265-1.695zm1.445-.179v.179c0 .422.05.821.148 1.195.1.37.248.698.446.985.203.286.455.513.757.68a2.21 2.21 0 001.055.242c.396 0 .742-.081 1.04-.242a2.19 2.19 0 00.75-.68c.197-.287.345-.615.444-.985.105-.374.157-.773.157-1.195v-.179c0-.417-.052-.81-.157-1.18a3.032 3.032 0 00-.453-.992 2.155 2.155 0 00-.75-.688c-.297-.167-.646-.25-1.047-.25-.395 0-.744.083-1.046.25a2.249 2.249 0 00-.75.688 3.13 3.13 0 00-.446.992c-.099.37-.148.763-.148 1.18zm11.336-4.141V199h-1.453v-8.453h1.453zm2.836 0v1.172h-7.07v-1.172h7.07zm3.133 4.422h1.562L36.805 199h-1.563l2.446-4.031zm1.21-4.422h3.532V199h-1.446v-7.281h-2.086c-.411 0-.747.07-1.007.211-.26.135-.45.312-.57.531a1.397 1.397 0 00-.016 1.344c.11.208.28.38.515.515.235.136.537.203.907.203h2.648v1.188h-2.648c-.485 0-.914-.065-1.29-.195a2.843 2.843 0 01-.953-.539 2.355 2.355 0 01-.593-.821 2.598 2.598 0 01-.203-1.031c0-.37.07-.711.21-1.023a2.46 2.46 0 01.625-.821 2.879 2.879 0 011.008-.539c.401-.13.857-.195 1.367-.195zm8.422 4.773l-3.203-4.773h1.742l2.188 3.5h1.687l-.21 1.273H47.32zm.79-.148L45.655 199h-1.828l3.367-4.875.914 1.047zm2.367-4.625V199H49.03v-8.453h1.446zm4.93 0l-3.204 4.773H50l-.227-1.273h1.696l2.187-3.5h1.75zM53.858 199l-2.46-3.828.93-1.047L55.686 199H53.86zm6.516.156a4.157 4.157 0 01-1.602-.297 3.636 3.636 0 01-1.226-.851 3.792 3.792 0 01-.781-1.297 4.757 4.757 0 01-.274-1.641v-.328c0-.687.102-1.299.305-1.836.203-.541.479-1 .828-1.375a3.536 3.536 0 011.188-.851 3.406 3.406 0 011.374-.289c.605 0 1.126.104 1.563.312.443.208.805.5 1.086.875.281.37.49.807.625 1.313.135.5.203 1.047.203 1.64v.649h-6.312V194h4.867v-.109a3.608 3.608 0 00-.235-1.094 1.967 1.967 0 00-.625-.875c-.286-.229-.677-.344-1.172-.344a1.963 1.963 0 00-1.617.82 3.072 3.072 0 00-.46.993c-.11.39-.165.841-.165 1.351v.328c0 .401.055.779.164 1.133.115.349.279.656.493.922.218.266.481.474.789.625.312.151.666.227 1.062.227.51 0 .943-.105 1.297-.313.354-.208.664-.487.93-.836l.875.695a4.047 4.047 0 01-.696.789c-.28.25-.627.454-1.039.61-.406.156-.888.234-1.445.234zm10.71-4.945v1.172h-4.468v-1.172h4.469zm-4.163-3.664V199h-1.445v-8.453h1.445zm5.336 0V199h-1.453v-8.453h1.453zm3.89 6.164l3.899-6.164H81.5V199h-1.453v-6.164L76.148 199h-1.437v-8.453h1.437v6.164zm9.235 0l3.898-6.164h1.453V199H89.28v-6.164L85.383 199h-1.438v-8.453h1.438v6.164zm15.609-1.43h-2.773l-.016-1.156h2.266c.448 0 .82-.044 1.117-.133.302-.088.529-.221.68-.398a.976.976 0 00.226-.656 1.027 1.027 0 00-.515-.915 1.9 1.9 0 00-.641-.226 4.382 4.382 0 00-.883-.078h-1.851V199h-1.446v-8.453h3.297c.537 0 1.018.047 1.445.141.433.093.8.236 1.102.429.307.188.542.427.703.719.162.292.242.635.242 1.031a1.74 1.74 0 01-.617 1.336 2.505 2.505 0 01-.75.438 3.91 3.91 0 01-1.023.211l-.563.429zm0 3.719h-3.297l.72-1.172h2.577c.401 0 .735-.049 1-.148.266-.104.464-.25.594-.438.135-.193.203-.422.203-.687 0-.266-.068-.493-.203-.68-.13-.193-.328-.339-.594-.437-.265-.105-.599-.157-1-.157h-2.195l.016-1.156h2.742l.523.437c.464.037.857.152 1.18.344.323.193.568.438.734.735.167.291.25.609.25.953 0 .396-.075.745-.226 1.047-.146.302-.36.554-.641.757a3.141 3.141 0 01-1.023.454 5.694 5.694 0 01-1.36.148zm8.57-1.031c.344 0 .662-.071.954-.211.291-.141.531-.334.718-.578.188-.25.295-.534.321-.852h1.375c-.026.5-.196.966-.508 1.399a3.47 3.47 0 01-1.211 1.039c-.5.26-1.05.39-1.649.39-.635 0-1.19-.112-1.664-.336a3.294 3.294 0 01-1.171-.922 4.113 4.113 0 01-.696-1.343 5.677 5.677 0 01-.226-1.617v-.329c0-.567.075-1.104.226-1.609.157-.51.388-.961.696-1.352.312-.39.703-.697 1.171-.921.474-.224 1.029-.336 1.664-.336.662 0 1.24.135 1.735.406.495.265.883.63 1.164 1.094.286.458.443.979.469 1.562h-1.375a2.078 2.078 0 00-.297-.945 1.857 1.857 0 00-.688-.672 1.918 1.918 0 00-1.008-.258c-.442 0-.815.089-1.117.266a1.956 1.956 0 00-.711.703 3.307 3.307 0 00-.375.976 5.377 5.377 0 00-.109 1.086v.329c0 .369.036.734.109 1.093.073.36.196.685.368.977.177.291.414.526.711.703.302.172.677.258 1.124.258zm8.5 1.187a4.155 4.155 0 01-1.601-.297 3.64 3.64 0 01-1.227-.851 3.796 3.796 0 01-.781-1.297 4.764 4.764 0 01-.273-1.641v-.328c0-.687.101-1.299.304-1.836.204-.541.48-1 .828-1.375a3.535 3.535 0 011.188-.851 3.407 3.407 0 011.375-.289c.604 0 1.125.104 1.563.312.442.208.804.5 1.085.875.282.37.49.807.625 1.313.136.5.204 1.047.204 1.64v.649h-6.313V194h4.867v-.109a3.622 3.622 0 00-.234-1.094 1.968 1.968 0 00-.625-.875c-.287-.229-.677-.344-1.172-.344a1.962 1.962 0 00-1.617.82 3.061 3.061 0 00-.461.993c-.109.39-.164.841-.164 1.351v.328c0 .401.055.779.164 1.133.114.349.279.656.492.922.219.266.482.474.789.625.313.151.667.227 1.063.227.51 0 .942-.105 1.297-.313.354-.208.664-.487.929-.836l.875.695a4.041 4.041 0 01-.695.789c-.281.25-.628.454-1.039.61-.406.156-.888.234-1.446.234zm10.438-8.609v1.195h-3.906V199h-1.446v-8.453h5.352zm.719 4.32v-.179c0-.61.088-1.175.265-1.696.177-.526.433-.982.766-1.367a3.401 3.401 0 011.211-.906 3.755 3.755 0 011.594-.328c.593 0 1.127.109 1.601.328.479.213.886.515 1.219.906.339.385.596.841.773 1.367.178.521.266 1.086.266 1.696v.179c0 .61-.088 1.175-.266 1.695a4.052 4.052 0 01-.773 1.368 3.548 3.548 0 01-1.211.906c-.469.213-1 .32-1.594.32a3.866 3.866 0 01-1.601-.32 3.637 3.637 0 01-1.219-.906 4.14 4.14 0 01-.766-1.368 5.229 5.229 0 01-.265-1.695zm1.445-.179v.179c0 .422.05.821.148 1.195.099.37.248.698.446.985.203.286.456.513.758.68.302.161.653.242 1.054.242.396 0 .742-.081 1.039-.242.302-.167.552-.394.75-.68.198-.287.347-.615.446-.985.104-.374.156-.773.156-1.195v-.179c0-.417-.052-.81-.156-1.18a3.036 3.036 0 00-.453-.992 2.156 2.156 0 00-.75-.688c-.297-.167-.646-.25-1.047-.25-.396 0-.745.083-1.047.25a2.247 2.247 0 00-.75.688 3.131 3.131 0 00-.446.992 4.59 4.59 0 00-.148 1.18zm17.664-4.141v1.195h-4.273v-1.195h4.273zm-4.062 0V199h-1.446v-8.453h1.446zm5.343 0V199h-1.453v-8.453h1.453zm5.829 8.609a4.157 4.157 0 01-1.602-.297 3.64 3.64 0 01-1.227-.851 3.796 3.796 0 01-.781-1.297 4.764 4.764 0 01-.273-1.641v-.328c0-.687.101-1.299.304-1.836.203-.541.48-1 .829-1.375a3.522 3.522 0 011.187-.851 3.407 3.407 0 011.375-.289c.604 0 1.125.104 1.562.312.443.208.805.5 1.086.875.282.37.49.807.625 1.313.136.5.204 1.047.204 1.64v.649h-6.313V194h4.867v-.109a3.622 3.622 0 00-.234-1.094 1.968 1.968 0 00-.625-.875c-.287-.229-.677-.344-1.172-.344a1.962 1.962 0 00-1.617.82 3.061 3.061 0 00-.461.993c-.11.39-.164.841-.164 1.351v.328c0 .401.054.779.164 1.133.114.349.279.656.492.922.219.266.482.474.789.625.313.151.667.227 1.063.227.51 0 .942-.105 1.296-.313.355-.208.665-.487.93-.836l.875.695a4.041 4.041 0 01-.695.789c-.281.25-.628.454-1.039.61-.406.156-.888.234-1.445.234zm6.421-6.984v10.078h-1.453v-11.703h1.328l.125 1.625zm5.696 2.531v.164c0 .615-.073 1.185-.219 1.711a4.202 4.202 0 01-.641 1.36 2.923 2.923 0 01-1.023.898c-.406.213-.873.32-1.399.32-.536 0-1.01-.088-1.421-.265a2.793 2.793 0 01-1.047-.774 3.938 3.938 0 01-.688-1.219 7.11 7.11 0 01-.344-1.601v-.875c.063-.625.18-1.185.352-1.68.172-.495.398-.916.68-1.265a2.778 2.778 0 011.039-.805c.406-.188.875-.281 1.406-.281.531 0 1.003.104 1.414.312a2.84 2.84 0 011.039.875 4 4 0 01.633 1.367c.146.526.219 1.112.219 1.758zm-1.453.164v-.164c0-.422-.045-.818-.133-1.187a3.022 3.022 0 00-.414-.985 1.99 1.99 0 00-.703-.672c-.287-.166-.628-.25-1.024-.25-.364 0-.682.063-.953.188a2.057 2.057 0 00-.68.508 2.716 2.716 0 00-.461.718 4.15 4.15 0 00-.257.829v2.023c.104.365.25.708.437 1.031.188.318.438.576.75.774.313.192.706.289 1.18.289.39 0 .726-.081 1.008-.242.286-.167.52-.394.703-.68.187-.287.325-.615.414-.985a5.21 5.21 0 00.133-1.195zm4.859 1.844l3.898-6.164h1.453V199h-1.453v-6.164L170.961 199h-1.438v-8.453h1.438v6.164zm7.289-1.844v-.179c0-.61.089-1.175.266-1.696.177-.526.432-.982.765-1.367a3.41 3.41 0 011.211-.906 3.755 3.755 0 011.594-.328c.594 0 1.128.109 1.602.328.479.213.885.515 1.218.906.339.385.597.841.774 1.367a5.24 5.24 0 01.265 1.696v.179c0 .61-.088 1.175-.265 1.695a4.054 4.054 0 01-.774 1.368 3.548 3.548 0 01-1.211.906c-.468.213-1 .32-1.593.32a3.867 3.867 0 01-1.602-.32 3.637 3.637 0 01-1.219-.906 4.139 4.139 0 01-.765-1.368 5.229 5.229 0 01-.266-1.695zm1.445-.179v.179c0 .422.05.821.149 1.195.099.37.247.698.445.985.203.286.456.513.758.68a2.21 2.21 0 001.055.242c.395 0 .742-.081 1.039-.242.302-.167.552-.394.75-.68.198-.287.346-.615.445-.985.104-.374.156-.773.156-1.195v-.179c0-.417-.052-.81-.156-1.18a3.036 3.036 0 00-.453-.992 2.156 2.156 0 00-.75-.688c-.297-.167-.646-.25-1.047-.25-.396 0-.745.083-1.047.25a2.247 2.247 0 00-.75.688 3.13 3.13 0 00-.445.992c-.099.37-.149.763-.149 1.18zm9.024-4.141h1.445l-.125 3.164c-.031.802-.122 1.495-.273 2.078a6.12 6.12 0 01-.578 1.492 4.472 4.472 0 01-.79 1.024 5.178 5.178 0 01-.89.695h-.719l.039-1.18.297-.008c.172-.203.339-.411.5-.624.161-.219.31-.477.445-.774.136-.302.248-.669.336-1.102.094-.437.154-.971.18-1.601l.133-3.164zm.359 0h5.086V199h-1.445v-7.117h-3.641v-1.336zm-2.617 7.265h8.789v3.68h-1.445V199h-5.899v2.492h-1.453l.008-3.68zm15.375-.257v-4.352a1.77 1.77 0 00-.203-.867 1.325 1.325 0 00-.594-.578c-.266-.136-.594-.203-.984-.203-.365 0-.685.062-.961.187a1.672 1.672 0 00-.641.492 1.08 1.08 0 00-.226.657h-1.446c0-.302.078-.602.235-.899a2.61 2.61 0 01.672-.804 3.356 3.356 0 011.062-.579c.417-.145.88-.218 1.391-.218.614 0 1.156.104 1.625.312.474.208.843.524 1.109.945.271.417.406.941.406 1.571v3.937c0 .282.024.581.071.899.052.317.127.591.226.82V199h-1.508a2.715 2.715 0 01-.172-.664 5.446 5.446 0 01-.062-.781zm.25-3.68l.016 1.016h-1.461a5.38 5.38 0 00-1.102.101 2.526 2.526 0 00-.812.289c-.219.13-.386.295-.5.492-.115.193-.172.42-.172.68 0 .266.06.508.179.727.12.218.3.393.539.523.245.125.545.188.899.188.443 0 .833-.094 1.172-.282.338-.187.607-.416.804-.687.204-.271.313-.534.329-.789l.617.695a2.122 2.122 0 01-.297.727 3.482 3.482 0 01-.649.765 3.49 3.49 0 01-.953.602 3.107 3.107 0 01-1.234.234c-.573 0-1.076-.112-1.508-.336a2.58 2.58 0 01-1-.898 2.382 2.382 0 01-.351-1.274c0-.453.088-.851.265-1.195a2.3 2.3 0 01.766-.867 3.623 3.623 0 011.203-.531c.469-.12.992-.18 1.57-.18h1.68zm7.461 4.359c0-.244.075-.45.226-.617.157-.172.381-.258.672-.258.292 0 .513.086.664.258a.867.867 0 01.235.617c0 .24-.078.443-.235.61-.151.166-.372.25-.664.25-.291 0-.515-.084-.672-.25a.876.876 0 01-.226-.61zm4.219 0c0-.244.075-.45.226-.617.156-.172.38-.258.672-.258.292 0 .513.086.664.258a.87.87 0 01.234.617.86.86 0 01-.234.61c-.151.166-.372.25-.664.25-.292 0-.516-.084-.672-.25a.876.876 0 01-.226-.61zm4.218 0c0-.244.076-.45.227-.617.156-.172.38-.258.672-.258.291 0 .513.086.664.258a.87.87 0 01.234.617.86.86 0 01-.234.61c-.151.166-.373.25-.664.25-.292 0-.516-.084-.672-.25a.877.877 0 01-.227-.61z" fill="#5E5E5E"/><path d="M7.552 239v-4.592c-.16.064-.368.144-.624.24-.256.085-.56.16-.912.224a6.483 6.483 0 01-1.184.096c-1.29 0-2.25-.288-2.88-.864-.63-.576-.944-1.493-.944-2.752v-3.712h1.744v3.52c0 .747.187 1.296.56 1.648.373.352 1.003.528 1.888.528.416 0 .837-.048 1.264-.144.437-.096.8-.219 1.088-.368v-5.184h1.76V239h-1.76zm4.082 0v-8.352h1.76v6l4.24-6.016h1.6V239h-1.76v-5.872L13.282 239h-1.648zm11.687 0v-6.816h-2.768v-1.552h7.312v1.552h-2.784V239h-1.76zm5.236-2.448c0-.533.15-.997.448-1.392.31-.405.731-.715 1.264-.928.534-.224 1.152-.336 1.856-.336.374 0 .752.027 1.136.08.395.053.742.139 1.04.256v-.528c0-.587-.176-1.045-.528-1.376-.352-.331-.858-.496-1.52-.496a3.46 3.46 0 00-1.328.256c-.416.16-.858.389-1.328.688l-.592-1.184a6.74 6.74 0 011.664-.832 5.789 5.789 0 011.776-.272c1.12 0 2 .299 2.64.896.651.587.976 1.424.976 2.512v3.12c0 .203.032.347.096.432.075.085.198.133.368.144V239a3.942 3.942 0 01-.752.08c-.373 0-.656-.091-.848-.272a1.048 1.048 0 01-.336-.64l-.048-.48a3.61 3.61 0 01-1.392 1.088 4.116 4.116 0 01-1.712.384c-.554 0-1.05-.112-1.488-.336a2.654 2.654 0 01-1.024-.944 2.464 2.464 0 01-.368-1.328zm5.328.512a2.06 2.06 0 00.304-.416.798.798 0 00.112-.368v-.96a4.56 4.56 0 00-.944-.256 5.129 5.129 0 00-.976-.096c-.64 0-1.162.128-1.568.384-.394.256-.592.608-.592 1.056 0 .245.064.48.192.704.139.224.331.405.576.544.256.139.571.208.944.208.384 0 .752-.075 1.104-.224a2.37 2.37 0 00.848-.576zM40.087 239v-6.816h-2.768v-1.552h7.312v1.552h-2.784V239h-1.76zm5.86 0v-8.368h1.76v2.752h2c.992 0 1.744.251 2.256.752.522.501.784 1.163.784 1.984 0 .555-.112 1.051-.336 1.488a2.416 2.416 0 01-.992 1.024c-.427.245-.96.368-1.6.368h-3.872zm1.76-1.36h1.84c.352 0 .634-.064.848-.192.213-.139.373-.32.48-.544.106-.235.16-.485.16-.752s-.048-.507-.144-.72a1.095 1.095 0 00-.48-.528c-.214-.139-.507-.208-.88-.208h-1.824v2.944zM58.134 239v-8.368h7.2V239h-1.76v-6.816h-3.68V239h-1.76zm13.088.16c-.661 0-1.253-.112-1.776-.336a4.261 4.261 0 01-1.36-.96 4.404 4.404 0 01-.864-1.376 4.561 4.561 0 01-.304-1.664c0-.587.102-1.141.304-1.664.203-.523.49-.981.864-1.376a4.06 4.06 0 011.36-.944 4.357 4.357 0 011.776-.352c.65 0 1.238.117 1.76.352.534.224.987.539 1.36.944.384.395.678.853.88 1.376.203.523.304 1.077.304 1.664s-.101 1.141-.304 1.664a4.264 4.264 0 01-.88 1.376 4.04 4.04 0 01-1.36.96c-.522.224-1.11.336-1.76.336zm-2.496-4.32c0 .533.112 1.013.336 1.44.224.427.523.763.896 1.008.374.245.795.368 1.264.368.459 0 .875-.123 1.248-.368a2.73 2.73 0 00.912-1.024 3.11 3.11 0 00.336-1.44c0-.533-.112-1.013-.336-1.44a2.603 2.603 0 00-.912-1.008 2.158 2.158 0 00-1.248-.384c-.47 0-.89.128-1.264.384a2.784 2.784 0 00-.896 1.024c-.224.416-.336.896-.336 1.44zm7.69 4.24v-1.568c.266 0 .506-.064.72-.192.213-.139.4-.363.56-.672.16-.32.287-.763.383-1.328.096-.565.16-1.285.192-2.16l.112-2.528h5.968V239h-1.76v-6.816h-2.656l-.032 1.136c-.042 1.12-.144 2.053-.304 2.8-.16.736-.384 1.323-.672 1.76-.277.427-.63.736-1.056.928-.416.181-.901.272-1.456.272zm10.046-.08v-8.368h1.76v3.328h3.888v-3.328h1.76V239h-1.76v-3.52h-3.888V239h-1.76zm13.291.16c-.66 0-1.253-.112-1.775-.336a4.261 4.261 0 01-1.36-.96 4.407 4.407 0 01-.864-1.376 4.561 4.561 0 01-.305-1.664c0-.587.102-1.141.305-1.664a4.18 4.18 0 01.864-1.376 4.04 4.04 0 011.36-.944 4.357 4.357 0 011.776-.352c.65 0 1.237.117 1.76.352.533.224.986.539 1.36.944.384.395.677.853.879 1.376.203.523.305 1.077.305 1.664s-.102 1.141-.305 1.664a4.252 4.252 0 01-.879 1.376 4.049 4.049 0 01-1.36.96c-.523.224-1.11.336-1.76.336zm-2.496-4.32c0 .533.112 1.013.337 1.44.224.427.522.763.896 1.008a2.25 2.25 0 001.264.368 2.23 2.23 0 001.248-.368 2.73 2.73 0 00.912-1.024 3.11 3.11 0 00.336-1.44c0-.533-.112-1.013-.336-1.44a2.603 2.603 0 00-.912-1.008 2.16 2.16 0 00-1.248-.384c-.47 0-.891.128-1.264.384a2.785 2.785 0 00-.896 1.024c-.224.416-.337.896-.337 1.44zm12.154 4.32a4.54 4.54 0 01-1.776-.336 4.258 4.258 0 01-1.36-.96 4.438 4.438 0 01-.896-1.392 4.555 4.555 0 01-.304-1.664c0-.789.176-1.509.528-2.16a4.235 4.235 0 011.504-1.568c.65-.395 1.418-.592 2.304-.592.853 0 1.594.192 2.224.576.64.373 1.109.875 1.408 1.504l-1.712.544a2.004 2.004 0 00-.816-.816 2.182 2.182 0 00-1.136-.304c-.47 0-.896.123-1.28.368a2.525 2.525 0 00-.896.992c-.214.416-.32.901-.32 1.456 0 .533.112 1.019.336 1.456.224.427.522.768.896 1.024.384.245.81.368 1.28.368.288 0 .565-.048.832-.144.277-.107.517-.245.72-.416.202-.181.346-.379.432-.592l1.728.512a3.15 3.15 0 01-.816 1.104c-.352.32-.774.576-1.264.768a4.553 4.553 0 01-1.616.272zm7.129-.16v-6.816h-2.768v-1.552h7.312v1.552H118.3V239h-1.76zm5.86 0v-8.368h1.76v2.752h2c.992 0 1.744.251 2.256.752.522.501.784 1.163.784 1.984 0 .555-.112 1.051-.336 1.488a2.418 2.418 0 01-.992 1.024c-.427.245-.96.368-1.6.368H122.4zm1.76-1.36H126c.352 0 .634-.064.848-.192.213-.139.373-.32.48-.544.106-.235.16-.485.16-.752s-.048-.507-.144-.72a1.095 1.095 0 00-.48-.528c-.214-.139-.507-.208-.88-.208h-1.824v2.944zm13.674 1.52c-.736 0-1.392-.155-1.968-.464a3.823 3.823 0 01-1.376-1.264 4.635 4.635 0 01-.656-1.84h-1.44V239h-1.76v-8.368h1.76v3.424h1.44c.096-.704.32-1.323.672-1.856a3.775 3.775 0 011.392-1.264c.565-.299 1.211-.448 1.936-.448.875 0 1.621.197 2.24.592a3.953 3.953 0 011.424 1.568c.331.651.496 1.376.496 2.176 0 .821-.171 1.557-.512 2.208a3.81 3.81 0 01-1.44 1.552c-.619.384-1.355.576-2.208.576zm0-1.504c.469 0 .88-.117 1.232-.352.352-.245.629-.576.832-.992.203-.427.304-.923.304-1.488 0-.576-.101-1.072-.304-1.488a2.35 2.35 0 00-.848-.992 2.189 2.189 0 00-1.216-.352c-.448 0-.848.117-1.2.352a2.33 2.33 0 00-.8.992c-.192.427-.288.923-.288 1.488 0 .576.096 1.077.288 1.504.203.427.475.757.816.992a2.16 2.16 0 001.184.336z" fill="#60B3A3"/><path d="M143 245H0v2h143v-2z" fill="#60B3A3" mask="url(#path-4-inside-1_80_1770)"/></svg>